<!-- Generated by IcoMoon.io -->
<svg version="1.1" xmlns="http://www.w3.org/2000/svg" width="24" height="24" viewBox="0 0 24 24">
<title>applications</title>
<path d="M3.273 0c1.807 0 3.273 1.465 3.273 3.273s-1.465 3.273-3.273 3.273c-1.807 0-3.273-1.465-3.273-3.273v0c0.002-1.807 1.466-3.271 3.273-3.273h0zM3.273 5.236c1.084 0 1.964-0.879 1.964-1.964s-0.879-1.964-1.964-1.964c-1.084 0-1.964 0.879-1.964 1.964v0c0.001 1.084 0.88 1.962 1.964 1.964h0z"></path>
<path d="M12 0c1.807 0 3.273 1.465 3.273 3.273s-1.465 3.273-3.273 3.273c-1.807 0-3.273-1.465-3.273-3.273v0c0.002-1.807 1.466-3.271 3.273-3.273h0zM12 5.236c1.084 0 1.964-0.879 1.964-1.964s-0.879-1.964-1.964-1.964c-1.084 0-1.964 0.879-1.964 1.964v0c0.001 1.084 0.88 1.962 1.963 1.964h0z"></path>
<path d="M20.727 0c1.807 0 3.273 1.465 3.273 3.273s-1.465 3.273-3.273 3.273c-1.807 0-3.273-1.465-3.273-3.273v0c0.002-1.807 1.466-3.271 3.273-3.273h0zM20.727 5.236c1.084 0 1.964-0.879 1.964-1.964s-0.879-1.964-1.964-1.964c-1.084 0-1.964 0.879-1.964 1.964v0c0.001 1.084 0.88 1.962 1.963 1.964h0z"></path>
<path d="M3.273 8.727c1.807 0 3.273 1.465 3.273 3.273s-1.465 3.273-3.273 3.273c-1.807 0-3.273-1.465-3.273-3.273v0c0.002-1.807 1.466-3.271 3.273-3.273h0zM3.273 13.964c1.084 0 1.964-0.879 1.964-1.964s-0.879-1.964-1.964-1.964c-1.084 0-1.964 0.879-1.964 1.964v0c0.001 1.084 0.88 1.962 1.964 1.964h0z"></path>
<path d="M12 8.727c1.807 0 3.273 1.465 3.273 3.273s-1.465 3.273-3.273 3.273c-1.807 0-3.273-1.465-3.273-3.273v0c0.002-1.807 1.466-3.271 3.273-3.273h0zM12 13.964c1.084 0 1.964-0.879 1.964-1.964s-0.879-1.964-1.964-1.964c-1.084 0-1.964 0.879-1.964 1.964v0c0.001 1.084 0.88 1.962 1.963 1.964h0z"></path>
<path d="M20.727 8.727c1.807 0 3.273 1.465 3.273 3.273s-1.465 3.273-3.273 3.273c-1.807 0-3.273-1.465-3.273-3.273v0c0.002-1.807 1.466-3.271 3.273-3.273h0zM20.727 13.964c1.084 0 1.964-0.879 1.964-1.964s-0.879-1.964-1.964-1.964c-1.084 0-1.964 0.879-1.964 1.964v0c0.001 1.084 0.88 1.962 1.963 1.964h0z"></path>
<path d="M3.273 17.455c1.807 0 3.273 1.465 3.273 3.273s-1.465 3.273-3.273 3.273c-1.807 0-3.273-1.465-3.273-3.273v0c0.002-1.807 1.466-3.271 3.273-3.273h0zM3.273 22.691c1.084 0 1.964-0.879 1.964-1.964s-0.879-1.964-1.964-1.964c-1.084 0-1.964 0.879-1.964 1.964v0c0.001 1.084 0.88 1.962 1.964 1.964h0z"></path>
<path d="M12 17.455c1.807 0 3.273 1.465 3.273 3.273s-1.465 3.273-3.273 3.273c-1.807 0-3.273-1.465-3.273-3.273v0c0.002-1.807 1.466-3.271 3.273-3.273h0zM12 22.691c1.084 0 1.964-0.879 1.964-1.964s-0.879-1.964-1.964-1.964c-1.084 0-1.964 0.879-1.964 1.964v0c0.001 1.084 0.88 1.962 1.963 1.964h0z"></path>
<path d="M20.727 17.455c1.807 0 3.273 1.465 3.273 3.273s-1.465 3.273-3.273 3.273c-1.807 0-3.273-1.465-3.273-3.273v0c0.002-1.807 1.466-3.271 3.273-3.273h0zM20.727 22.691c1.084 0 1.964-0.879 1.964-1.964s-0.879-1.964-1.964-1.964c-1.084 0-1.964 0.879-1.964 1.964v0c0.001 1.084 0.88 1.962 1.963 1.964h0z"></path>
</svg>
