<!-- Generated by IcoMoon.io -->
<svg version="1.1" xmlns="http://www.w3.org/2000/svg" width="24" height="24" viewBox="0 0 24 24">
<title>approve</title>
<path d="M12 24c-6.627 0-12-5.373-12-12s5.373-12 12-12c6.627 0 12 5.373 12 12v0c0 6.627-5.373 12-12 12v0zM12 1.714c-5.681 0-10.286 4.605-10.286 10.286s4.605 10.286 10.286 10.286c5.681 0 10.286-4.605 10.286-10.286v0c0-5.681-4.605-10.286-10.286-10.286v0zM10.851 16.071l7.714-6.857-1.131-1.286-7.149 6.326-3.677-3.72-1.217 1.217 4.286 4.286c0.156 0.154 0.37 0.248 0.606 0.248 0.218 0 0.418-0.081 0.57-0.215l-0.001 0.001z"></path>
</svg>
