<!-- Generated by IcoMoon.io -->
<svg version="1.1" xmlns="http://www.w3.org/2000/svg" width="22" height="24" viewBox="0 0 22 24">
<title>bank-statement</title>
<path d="M6.277 14.854h-4.566c0 0 0 0 0 0-0.315 0-0.571-0.255-0.572-0.571v-11.415c0-0.316 0.256-0.571 0.572-0.571v0h10.276c0.315 0.001 0.57 0.256 0.571 0.571v6.848c0 0.315 0.256 0.571 0.571 0.571s0.571-0.256 0.571-0.571v0-6.847c-0.001-0.945-0.767-1.711-1.711-1.712h-10.276c-0.945 0.002-1.711 0.767-1.712 1.712v11.415c0.002 0.945 0.767 1.711 1.712 1.712h4.566c0.315 0 0.571-0.256 0.571-0.571s-0.256-0.571-0.571-0.571v0z"></path>
<path d="M3.994 4.58c-0.315 0-0.571 0.256-0.571 0.571s0.256 0.571 0.571 0.571v0h5.708c0.315 0 0.571-0.256 0.571-0.571s-0.256-0.571-0.571-0.571v0z"></path>
<path d="M10.274 8.575c0-0.315-0.256-0.571-0.571-0.571v0h-5.708c-0.315 0-0.571 0.256-0.571 0.571s0.256 0.571 0.571 0.571v0h5.708c0 0 0.001 0 0.001 0 0.315 0 0.571-0.256 0.571-0.571 0 0 0-0.001 0-0.001v0z"></path>
<path d="M6.278 11.429h-2.284c-0.315 0-0.571 0.256-0.571 0.571s0.256 0.571 0.571 0.571v0h2.284c0.315 0 0.571-0.256 0.571-0.571s-0.256-0.571-0.571-0.571v0z"></path>
<path d="M9.702 22.844h10.273c0.945-0.001 1.711-0.767 1.712-1.711v-7.991c-0.002-0.945-0.767-1.711-1.712-1.712h-10.273c-0.945 0.002-1.711 0.767-1.712 1.712v7.991c0.002 0.945 0.767 1.711 1.712 1.712v0zM19.975 21.703h-10.273c-0.315-0.001-0.57-0.256-0.571-0.571v-5.136h11.414v5.136c-0.001 0.314-0.256 0.569-0.57 0.569v0zM9.702 12.571h10.273c0.315 0.001 0.57 0.256 0.571 0.571v1.712h-11.413v-1.712c0.001-0.315 0.256-0.569 0.57-0.571v0z"></path>
<path d="M3.577 23.833c0.103 0.104 0.246 0.167 0.404 0.167s0.3-0.064 0.404-0.167l2.298-2.298c0.103-0.104 0.167-0.246 0.167-0.404s-0.064-0.3-0.167-0.404l-2.298-2.298c-0.104-0.104-0.246-0.167-0.404-0.167-0.315 0-0.571 0.256-0.571 0.571 0 0.158 0.064 0.3 0.167 0.404l1.324 1.324h-2.047c-0.945-0.002-1.711-0.767-1.712-1.712v-1.141c0-0.315-0.256-0.571-0.571-0.571s-0.571 0.256-0.571 0.571v0 1.141c0.002 1.575 1.278 2.852 2.853 2.854h2.047l-1.324 1.324c-0.103 0.104-0.167 0.246-0.167 0.403s0.064 0.301 0.167 0.404v0z"></path>
<path d="M21.687 5.152c-0.002-1.575-1.278-2.852-2.853-2.853h-2.047l1.324-1.324c0.103-0.104 0.167-0.246 0.167-0.404 0-0.315-0.256-0.571-0.571-0.571-0.158 0-0.301 0.064-0.404 0.167v0l-2.298 2.298c-0.104 0.103-0.167 0.246-0.167 0.404s0.064 0.3 0.167 0.404l2.298 2.298c0.104 0.103 0.246 0.167 0.404 0.167 0.315 0 0.571-0.256 0.571-0.571 0-0.157-0.064-0.3-0.167-0.404l-1.324-1.324h2.046c0.945 0.001 1.712 0.766 1.712 1.712v4.566c0 0.315 0.256 0.571 0.571 0.571s0.571-0.256 0.571-0.571v0z"></path>
</svg>
