<!-- Generated by IcoMoon.io -->
<svg version="1.1" xmlns="http://www.w3.org/2000/svg" width="24" height="24" viewBox="0 0 24 24">
<title>calendar-sm</title>
<path d="M16.138 0c0.452 0 0.818 0.366 0.818 0.818v0 0.927c1.496 0.045 2.844 0.643 3.855 1.595l-0.003-0.003c0.968 1.042 1.563 2.444 1.563 3.984 0 0.101-0.003 0.201-0.008 0.301l0.001-0.014v9.955c0 3.635-2.308 5.891-6.023 5.891h-9.227c-3.715 0-6.023-2.291-6.023-5.976v-9.872c-0.010-0.122-0.015-0.264-0.015-0.407 0-3.004 2.429-5.441 5.43-5.454h0.001v-0.927c0-0.452 0.366-0.818 0.818-0.818s0.818 0.366 0.818 0.818v0 0.904h7.176v-0.904c0-0.452 0.366-0.818 0.818-0.818v0zM20.727 9.709h-18v7.765c0 2.804 1.558 4.344 4.387 4.344h9.227c2.829 0 4.387-1.512 4.387-4.255zM16.582 16.582c0.449 0.003 0.812 0.368 0.812 0.817 0 0.451-0.366 0.817-0.817 0.817s-0.817-0.366-0.817-0.817c0-0.45 0.363-0.814 0.812-0.817h0zM11.74 16.582c0.449 0.003 0.812 0.368 0.812 0.817 0 0.451-0.366 0.817-0.817 0.817s-0.817-0.366-0.817-0.817c0-0.45 0.363-0.814 0.812-0.817h0zM6.889 16.582c0.45 0.003 0.813 0.368 0.813 0.818 0 0.452-0.366 0.818-0.818 0.818s-0.818-0.366-0.818-0.818c0-0.45 0.364-0.815 0.813-0.818h0zM16.582 12.338c0.449 0.003 0.812 0.368 0.812 0.817 0 0.451-0.366 0.817-0.817 0.817s-0.817-0.366-0.817-0.817c0-0.45 0.363-0.814 0.812-0.817h0zM11.74 12.338c0.449 0.003 0.812 0.368 0.812 0.817 0 0.451-0.366 0.817-0.817 0.817s-0.817-0.366-0.817-0.817c0-0.45 0.363-0.814 0.812-0.817h0zM6.889 12.338c0.45 0.003 0.813 0.368 0.813 0.818 0 0.452-0.366 0.818-0.818 0.818s-0.818-0.366-0.818-0.818c0-0.45 0.364-0.815 0.813-0.818h0zM15.317 3.359h-7.174v1.049c0 0.452-0.366 0.818-0.818 0.818s-0.818-0.366-0.818-0.818v0-1.027c-2.101 0-3.803 1.703-3.803 3.804 0 0.148 0.008 0.295 0.025 0.439l-0.002-0.018v0.466h18v-0.466c0.006-0.087 0.010-0.187 0.010-0.289 0-1.089-0.413-2.081-1.090-2.829l0.003 0.004c-0.71-0.655-1.65-1.069-2.685-1.11l-0.008-0v1.024c0 0.452-0.366 0.818-0.818 0.818s-0.818-0.366-0.818-0.818v0z"></path>
</svg>
