<!-- Generated by IcoMoon.io -->
<svg version="1.1" xmlns="http://www.w3.org/2000/svg" width="24" height="24" viewBox="0 0 24 24">
<title>calendar-check</title>
<path d="M22.036 1.455h-2.036c-0.175-0.836-0.906-1.455-1.782-1.455s-1.607 0.619-1.78 1.443l-0.002 0.012h-8.873c-0.179-0.834-0.908-1.451-1.782-1.455h-0c-0.004-0-0.010-0-0.015-0-0.872 0-1.599 0.62-1.765 1.443l-0.002 0.012h-2.036c-0.003 0-0.005-0-0.008-0-1.080 0-1.955 0.875-1.955 1.955 0 0.003 0 0.005 0 0.008v-0 15.164c0 0.003-0 0.005-0 0.008 0 1.080 0.875 1.955 1.955 1.955 0.003 0 0.006 0 0.009-0h11.891c0.624 2.015 2.471 3.453 4.654 3.453 2.341 0 4.296-1.654 4.759-3.858l0.006-0.032c0.437-0.37 0.715-0.915 0.727-1.525l0-0.002v-15.165c0-0.003 0-0.005 0-0.008 0-1.080-0.875-1.955-1.955-1.955-0.003 0-0.006 0-0.009 0h0zM18.218 0.728c0.007-0 0.015-0 0.023-0 0.592 0 1.071 0.48 1.071 1.071 0 0.008-0 0.016-0 0.024l0-0.001c0.002 0.024 0.003 0.052 0.003 0.080 0 0.604-0.49 1.094-1.094 1.094s-1.094-0.49-1.094-1.094c0-0.028 0.001-0.056 0.003-0.084l-0 0.004c0-0 0-0.001 0-0.001 0-0.602 0.487-1.091 1.089-1.094h0zM5.781 0.728c0.007-0 0.015-0 0.023-0 0.592 0 1.071 0.48 1.071 1.071 0 0.008-0 0.016-0 0.024l0-0.001c0.002 0.024 0.003 0.052 0.003 0.080 0 0.604-0.49 1.094-1.094 1.094s-1.094-0.49-1.094-1.094c0-0.028 0.001-0.056 0.003-0.084l-0 0.004c-0-0.007-0-0.015-0-0.024 0-0.592 0.48-1.071 1.071-1.071 0.006 0 0.012 0 0.018 0l-0.001-0zM1.964 2.182h2.036c0.175 0.836 0.906 1.455 1.782 1.455s1.607-0.619 1.78-1.443l0.002-0.012h8.909c0.175 0.836 0.906 1.455 1.782 1.455s1.607-0.619 1.78-1.443l0.002-0.012h2c0.003-0 0.007-0 0.010-0 0.677 0 1.226 0.549 1.226 1.226 0 0.004-0 0.007-0 0.011v-0.001 1.967h-22.545v-1.967c-0-0.003-0-0.007-0-0.010 0-0.677 0.549-1.226 1.226-1.226 0.004 0 0.008 0 0.012 0h-0.001zM1.964 19.852c-0.685-0.012-1.236-0.57-1.236-1.257 0-0.006 0-0.011 0-0.017v0.001-12.436h22.545v11.967c-0.516-2.185-2.449-3.786-4.756-3.786-2.681 0-4.857 2.162-4.88 4.838l-0 0.002c0.007 0.262 0.033 0.513 0.077 0.757l-0.004-0.030h-11.745zM18.511 23.273c-2.29 0-4.146-1.856-4.146-4.146s1.856-4.146 4.146-4.146c2.29 0 4.146 1.856 4.146 4.146v0c0 0 0 0.001 0 0.002 0 2.289-1.855 4.144-4.144 4.144-0.001 0-0.001 0-0.002 0h0z"></path>
<path d="M8.618 7.382h-1.963c-0.006-0-0.014-0.001-0.021-0.001-0.19 0-0.343 0.154-0.343 0.343 0 0.007 0 0.015 0.001 0.022l-0-0.001v1.964c-0 0.006-0.001 0.014-0.001 0.021 0 0.19 0.154 0.343 0.343 0.343 0.007 0 0.015-0 0.022-0.001l-0.001 0h1.964c0.006 0 0.014 0.001 0.021 0.001 0.19 0 0.343-0.154 0.343-0.343 0-0.007-0-0.015-0.001-0.022l0 0.001v-1.964c-0-0.201-0.163-0.363-0.364-0.363 0 0 0 0 0 0v0zM8.254 9.346h-1.236v-1.237h1.236zM12.873 7.382h-1.964c-0.006-0-0.014-0.001-0.021-0.001-0.19 0-0.343 0.154-0.343 0.343 0 0.007 0 0.015 0.001 0.022l-0-0.001v1.964c-0 0.006-0.001 0.014-0.001 0.021 0 0.19 0.154 0.343 0.343 0.343 0.007 0 0.015-0 0.022-0.001l-0.001 0h1.964c0.006 0 0.014 0.001 0.021 0.001 0.19 0 0.343-0.154 0.343-0.343 0-0.007-0-0.015-0.001-0.022l0 0.001v-1.964c-0-0.201-0.163-0.363-0.363-0.363h-0zM12.509 9.346h-1.237v-1.237h1.236zM15.162 10.074h1.964c0.006 0 0.014 0.001 0.021 0.001 0.19 0 0.343-0.154 0.343-0.343 0-0.007-0-0.015-0.001-0.022l0 0.001v-1.966c0-0.006 0.001-0.014 0.001-0.021 0-0.19-0.154-0.343-0.343-0.343-0.007 0-0.015 0-0.022 0.001l0.001-0h-1.964c-0.006-0-0.014-0.001-0.021-0.001-0.19 0-0.343 0.154-0.343 0.343 0 0.007 0 0.015 0.001 0.022l-0-0.001v1.964c0 0 0 0.001 0 0.001 0 0.201 0.163 0.364 0.363 0.364h0zM15.526 8.111h1.235v1.236h-1.234zM19.418 10.074h1.964c0.006 0 0.014 0.001 0.021 0.001 0.19 0 0.343-0.154 0.343-0.343 0-0.007-0-0.015-0.001-0.022l0 0.001v-1.966c0-0.006 0.001-0.014 0.001-0.021 0-0.19-0.154-0.343-0.343-0.343-0.007 0-0.015 0-0.022 0.001l0.001-0h-1.964c-0.006-0-0.014-0.001-0.021-0.001-0.19 0-0.343 0.154-0.343 0.343 0 0.007 0 0.015 0.001 0.022l-0-0.001v1.964c0 0 0 0.001 0 0.001 0 0.201 0.163 0.364 0.363 0.364h0zM19.782 8.111h1.236v1.236h-1.236zM4.364 11.236h-1.964c-0.006-0-0.013-0.001-0.021-0.001-0.19 0-0.343 0.154-0.343 0.343 0 0.007 0 0.015 0.001 0.022l-0-0.001v1.964c-0 0.006-0.001 0.014-0.001 0.021 0 0.19 0.154 0.343 0.343 0.343 0.007 0 0.015-0 0.022-0.001l-0.001 0h1.964c0.006 0 0.013 0.001 0.021 0.001 0.19 0 0.343-0.154 0.343-0.343 0-0.007-0-0.015-0.001-0.022l0 0.001v-1.964c-0-0.201-0.163-0.363-0.363-0.363h-0zM4 13.236h-1.237v-1.236h1.237zM8.619 11.236h-1.964c-0.006-0-0.014-0.001-0.021-0.001-0.19 0-0.343 0.154-0.343 0.343 0 0.007 0 0.015 0.001 0.022l-0-0.001v1.964c-0 0.006-0.001 0.014-0.001 0.021 0 0.19 0.154 0.343 0.343 0.343 0.007 0 0.015-0 0.022-0.001l-0.001 0h1.964c0.006 0 0.014 0.001 0.021 0.001 0.19 0 0.343-0.154 0.343-0.343 0-0.007-0-0.015-0.001-0.022l0 0.001v-1.964c-0-0.201-0.163-0.363-0.364-0.363 0 0 0 0 0 0v0zM8.255 13.236h-1.237v-1.236h1.236zM15.164 13.963h1.964c0.006 0 0.014 0.001 0.021 0.001 0.19 0 0.343-0.154 0.343-0.343 0-0.007-0-0.015-0.001-0.022l0 0.001v-1.964c0-0.006 0.001-0.014 0.001-0.021 0-0.19-0.154-0.343-0.343-0.343-0.007 0-0.015 0-0.022 0.001l0.001-0h-1.966c-0.006-0-0.014-0.001-0.021-0.001-0.19 0-0.343 0.154-0.343 0.343 0 0.007 0 0.015 0.001 0.022l-0-0.001v1.964c0.014 0.195 0.169 0.35 0.362 0.363l0.001 0zM15.528 11.963h1.234v1.236h-1.234zM4.364 15.127h-1.964c-0.006-0-0.013-0.001-0.021-0.001-0.19 0-0.343 0.154-0.343 0.343 0 0.007 0 0.015 0.001 0.022l-0-0.001v1.964c-0 0.006-0.001 0.014-0.001 0.021 0 0.19 0.154 0.343 0.343 0.343 0.007 0 0.015-0 0.022-0.001l-0.001 0h1.964c0.006 0 0.013 0.001 0.021 0.001 0.19 0 0.343-0.154 0.343-0.343 0-0.007-0-0.015-0.001-0.022l0 0.001v-1.964c0-0.006 0.001-0.014 0.001-0.021 0-0.19-0.154-0.343-0.343-0.343-0.007 0-0.015 0-0.022 0.001l0.001-0zM4 17.091h-1.237v-1.236h1.237zM8.619 15.127h-1.964c-0.006-0-0.014-0.001-0.021-0.001-0.19 0-0.343 0.154-0.343 0.343 0 0.007 0 0.015 0.001 0.022l-0-0.001v1.964c-0 0.006-0.001 0.014-0.001 0.021 0 0.19 0.154 0.343 0.343 0.343 0.007 0 0.015-0 0.022-0.001l-0.001 0h1.964c0.006 0 0.014 0.001 0.021 0.001 0.19 0 0.343-0.154 0.343-0.343 0-0.007-0-0.015-0.001-0.022l0 0.001v-1.964c0-0.006 0.001-0.014 0.001-0.021 0-0.19-0.154-0.343-0.343-0.343-0.008 0-0.015 0-0.023 0.001l0.001-0zM8.255 17.091h-1.237v-1.236h1.236zM12.874 11.236h-1.965c-0.006-0-0.014-0.001-0.021-0.001-0.19 0-0.343 0.154-0.343 0.343 0 0.007 0 0.015 0.001 0.022l-0-0.001v1.964c-0 0.006-0.001 0.014-0.001 0.021 0 0.19 0.154 0.343 0.343 0.343 0.007 0 0.015-0 0.022-0.001l-0.001 0h1.964c0.006 0 0.014 0.001 0.021 0.001 0.19 0 0.343-0.154 0.343-0.343 0-0.007-0-0.015-0.001-0.022l0 0.001v-1.964c-0-0.201-0.163-0.363-0.363-0.363h-0zM12.51 13.236h-1.238v-1.236h1.236zM20.692 17.091l-3.197 3.273-1.128-1.599c-0.072-0.083-0.178-0.135-0.296-0.135-0.079 0-0.153 0.024-0.215 0.064l0.001-0.001c-0.084 0.071-0.138 0.177-0.138 0.295 0 0.080 0.024 0.154 0.066 0.216l-0.001-0.001 1.382 1.927c0.059 0.079 0.149 0.133 0.251 0.145l0.002 0c0.003 0 0.007 0 0.011 0 0.108 0 0.207-0.042 0.28-0.11l-0 0 3.527-3.563c0.067-0.064 0.109-0.154 0.109-0.255s-0.042-0.19-0.109-0.254l-0-0c-0.071-0.069-0.168-0.111-0.275-0.111s-0.202 0.042-0.273 0.11l0-0z"></path>
</svg>
