<!-- Generated by IcoMoon.io -->
<svg version="1.1" xmlns="http://www.w3.org/2000/svg" width="24" height="24" viewBox="0 0 24 24">
<title>calendar</title>
<path d="M7.658 9.693h-1.379c-0.826 0-1.496 0.475-1.5 1.058q-0.008 0.944 0 1.89c0.005 0.58 0.681 1.048 1.508 1.051h2.652c0.847 0 1.511-0.472 1.517-1.069v-1.867c-0.006-0.584-0.67-1.059-1.492-1.062zM9.283 10.937v1.070h-0.005v0.443c-0.096 0.041-0.207 0.065-0.325 0.065-0.006 0-0.011-0-0.017-0l0.001 0h-2.64c-0.005 0-0.011 0-0.017 0-0.116 0-0.226-0.024-0.325-0.067l0.005 0.002v-1.513c0.093-0.041 0.201-0.065 0.314-0.065 0.005 0 0.010 0 0.015 0h2.672c0.004-0 0.008-0 0.012-0 0.112 0 0.218 0.024 0.314 0.067l-0.005-0.002z"></path>
<path d="M8.96 15.311h-2.679c-0.826 0-1.496 0.475-1.5 1.058q-0.008 0.945 0 1.89c0.005 0.58 0.681 1.049 1.508 1.051h2.646c0.847 0 1.511-0.472 1.517-1.069v-1.867c-0.007-0.584-0.67-1.059-1.492-1.062zM9.285 17.021v0.603h-0.006v0.442c-0.096 0.041-0.207 0.065-0.324 0.065-0.006 0-0.012-0-0.018-0l0.001 0h-2.64c-0.005 0-0.010 0-0.016 0-0.115 0-0.225-0.024-0.325-0.067l0.005 0.002v-1.511c0.092-0.041 0.2-0.065 0.314-0.065 0.005 0 0.010 0 0.015 0h2.672c0.001 0 0.001 0 0.002 0 0.068 0 0.135 0.008 0.199 0.023l-0.006-0.001c0.049 0.011 0.093 0.026 0.134 0.045l-0.004-0.002z"></path>
<path d="M23.679 6.453l-0.014-0.043c-0.002-0.007-0.005-0.017-0.007-0.026l-0-0.002c-0.507-2.471-2.51-3.769-5.24-3.418h-0.439v-0.93c0.001-0.025 0.002-0.054 0.002-0.083 0-0.712-0.459-1.316-1.098-1.532l-0.011-0.003-0.029-0.017c-0.083-0.047-0.182-0.075-0.288-0.075h-1.495c-0.002-0-0.004-0-0.005-0-0.123 0-0.237 0.038-0.332 0.103l0.002-0.001c-0.054 0.038-0.112 0.073-0.171 0.108-0.222 0.121-0.412 0.271-0.572 0.448l-0.002 0.002c-0.206 0.266-0.331 0.605-0.332 0.973v0c-0.010 0.324-0.010 0.653-0.010 0.979v1.982c-0 0.014-0.001 0.031-0.001 0.048 0 0.85 0.661 1.546 1.497 1.602l0.005 0q0.33 0.024 0.66 0.024c0.234 0 0.468-0.009 0.701-0.027 0.829-0.069 1.476-0.759 1.476-1.6 0-0.010-0-0.019-0-0.029l0 0.001v-0.805h0.557c1.016-0.134 3.434-0.163 3.964 2.469l0.006 0.029c0.015 0.077 0.025 0.166 0.027 0.258l0 0.002v12.536c0 0 0 0 0 0 0 0.229-0.033 0.45-0.095 0.658l0.004-0.016-0.012 0.042c-0.073 0.294-0.167 0.549-0.285 0.791l0.010-0.024c-0.414 0.802-1.186 1.368-2.099 1.49l-0.014 0.002c-0.055 0.010-0.102 0.022-0.148 0.037l0.008-0.002h-16.087c-0.038-0.013-0.086-0.025-0.134-0.034l-0.007-0.001c-0.927-0.124-1.699-0.69-2.106-1.476l-0.007-0.015c-0.107-0.219-0.201-0.475-0.268-0.742l-0.006-0.028-0.012-0.042c-0.058-0.192-0.091-0.413-0.091-0.642v0-12.531c0.002-0.093 0.011-0.182 0.028-0.269l-0.002 0.010 0.006-0.029c0.53-2.634 2.948-2.605 3.965-2.471h0.557v0.805c-0 0.008-0 0.018-0 0.027 0 0.841 0.646 1.531 1.469 1.6l0.006 0c0.232 0.018 0.467 0.027 0.701 0.027q0.33 0 0.66-0.024c0.841-0.056 1.502-0.752 1.502-1.602 0-0.017-0-0.034-0.001-0.051l0 0.002v-1.982c0-0.324 0-0.653-0.010-0.979 0-0.001 0-0.002 0-0.003 0-0.367-0.123-0.705-0.33-0.975l0.003 0.004c-0.162-0.179-0.352-0.329-0.563-0.445l-0.011-0.006c-0.058-0.035-0.117-0.070-0.171-0.108-0.092-0.063-0.206-0.101-0.329-0.101-0.003 0-0.005 0-0.008 0h-1.495c-0 0-0 0-0 0-0.106 0-0.205 0.028-0.291 0.077l0.003-0.002-0.029 0.017c-0.65 0.22-1.109 0.824-1.109 1.536 0 0.029 0.001 0.058 0.002 0.087l-0-0.004v0.93h-0.44c-2.73-0.351-4.733 0.946-5.24 3.418-0.002 0.011-0.005 0.021-0.008 0.030l0.001-0.002-0.014 0.043c-0.018 0.054-0.029 0.117-0.029 0.182v13.275c0 0 0 0.001 0 0.001 0 0.034 0.006 0.067 0.016 0.098l-0.001-0.002 0.015 0.044c0.043 0.13 0.081 0.256 0.118 0.389 0.098 0.379 0.225 0.709 0.383 1.021l-0.013-0.028c0.594 1.115 1.67 1.906 2.943 2.098l0.022 0.003 0.148 0.046h16.446l0.148-0.046c1.295-0.194 2.371-0.986 2.954-2.079l0.011-0.022c0.145-0.283 0.27-0.613 0.36-0.957l0.008-0.034c0.038-0.134 0.076-0.259 0.118-0.389l0.015-0.044c0.010-0.029 0.016-0.062 0.016-0.096 0-0 0-0 0-0v0-13.275c0-0 0-0 0-0 0-0.065-0.010-0.127-0.030-0.185l0.001 0.004zM16.8 2.036v2.907c0.001 0.009 0.001 0.019 0.001 0.030 0 0.223-0.171 0.405-0.389 0.424l-0.002 0c-0.177 0.014-0.384 0.022-0.593 0.022s-0.415-0.008-0.62-0.023l0.027 0.002h-0.011c-0.224-0.021-0.399-0.208-0.399-0.436 0-0.014 0.001-0.028 0.002-0.041l-0 0.002v-0.741c0-0.732-0.005-1.465 0.010-2.197 0-0.001 0-0.002 0-0.002 0-0.088 0.022-0.17 0.061-0.242l-0.001 0.003c0.081-0.074 0.172-0.138 0.271-0.191l0.007-0.003 0.065-0.042h1.182l0.014 0.005c0.216 0.041 0.377 0.229 0.377 0.454 0 0.026-0.002 0.052-0.006 0.077l0-0.003zM7.28 1.507l0.014-0.005h1.182l0.068 0.042c0.106 0.056 0.197 0.121 0.279 0.196l-0.001-0.001c0.038 0.069 0.060 0.152 0.060 0.24 0 0.001 0 0.002 0 0.002v-0c0.014 0.732 0.012 1.465 0.010 2.197v0.741c0.001 0.012 0.002 0.026 0.002 0.039 0 0.228-0.174 0.415-0.397 0.436l-0.002 0h-0.010c-0.177 0.014-0.384 0.022-0.593 0.022s-0.415-0.008-0.62-0.023l0.027 0.002c-0.219-0.019-0.39-0.201-0.39-0.424 0-0.011 0-0.021 0.001-0.031l-0 0.001v-2.903c-0.004-0.023-0.006-0.049-0.006-0.075 0-0.225 0.161-0.412 0.374-0.453l0.003-0z"></path>
<path d="M14.769 13.692h2.649c0.827-0.003 1.503-0.472 1.508-1.051q0.008-0.945 0-1.89c-0.005-0.584-0.675-1.058-1.5-1.058h-2.682c-0.822 0.003-1.486 0.479-1.492 1.062v0 1.871c0.006 0.597 0.67 1.068 1.517 1.068zM14.425 11.406v-0.466c0.091-0.041 0.197-0.065 0.309-0.065 0.004 0 0.009 0 0.013 0h2.672c0.004-0 0.009-0 0.014-0 0.114 0 0.222 0.024 0.32 0.067l-0.005-0.002v1.513c-0.094 0.041-0.204 0.065-0.32 0.065-0.006 0-0.012-0-0.018-0l0.001 0h-2.641c-0.005 0-0.010 0-0.016 0-0.117 0-0.229-0.024-0.33-0.067l0.006 0.002v-0.443h-0.005z"></path>
<path d="M17.427 15.31h-2.679c-0.822 0.005-1.486 0.479-1.492 1.062v1.867c0.006 0.597 0.67 1.069 1.517 1.069h2.646c0.827 0 1.503-0.472 1.508-1.051q0.008-0.944 0-1.89c-0.005-0.584-0.675-1.058-1.5-1.058zM17.748 17.32v0.744c-0.094 0.041-0.204 0.065-0.32 0.065-0.006 0-0.011-0-0.017-0l0.001 0h-2.64c-0.005 0-0.011 0-0.017 0-0.117 0-0.228-0.024-0.329-0.067l0.005 0.002v-0.441h-0.006v-1.070c0.037-0.018 0.080-0.033 0.125-0.043l0.004-0.001c0.058-0.014 0.124-0.021 0.193-0.021 0.001 0 0.001 0 0.002 0h2.672c0.004-0 0.009-0 0.014-0 0.113 0 0.221 0.024 0.319 0.067l-0.005-0.002z"></path>
<path d="M13.638 4.182v-1.247h-3.568v1.247z"></path>
</svg>
