<!-- Generated by IcoMoon.io -->
<svg version="1.1" xmlns="http://www.w3.org/2000/svg" width="24" height="24" viewBox="0 0 24 24">
<title>cards</title>
<path d="M22.909 10.909h-8.728c-0.602 0-1.091-0.488-1.091-1.091v0-8.728c0-0.602 0.488-1.091 1.091-1.091v0h8.728c0.602 0 1.091 0.488 1.091 1.091v0 8.728c0 0.602-0.488 1.091-1.091 1.091v0zM15.273 8.728h6.546v-6.546h-6.546z"></path>
<path d="M22.909 23.773h-8.728c-0.602 0-1.091-0.488-1.091-1.091v0-8.728c0-0.602 0.488-1.091 1.091-1.091v0h8.728c0.602 0 1.091 0.488 1.091 1.091v0 8.728c0 0.602-0.488 1.091-1.091 1.091v0zM15.273 21.592h6.546v-6.546h-6.546z"></path>
<path d="M9.818 13.091h-8.728c-0.602 0-1.091 0.488-1.091 1.091v0 8.728c0 0.602 0.488 1.091 1.091 1.091v0h8.728c0.602 0 1.091-0.488 1.091-1.091v0-8.728c0-0.602-0.488-1.091-1.091-1.091v0zM8.728 21.819h-6.546v-6.546h6.546z"></path>
<path d="M9.818 10.909h-8.728c-0.602 0-1.091-0.488-1.091-1.091v0-8.728c0-0.602 0.488-1.091 1.091-1.091h8.728c0.602 0 1.091 0.488 1.091 1.091v0 8.728c0 0.602-0.488 1.091-1.091 1.091v0zM2.182 8.728h6.546v-6.546h-6.546z"></path>
</svg>
