<!-- Generated by IcoMoon.io -->
<svg version="1.1" xmlns="http://www.w3.org/2000/svg" width="24" height="24" viewBox="0 0 24 24">
<title>cloud</title>
<path d="M4.071 14.572h3.357c0.237 0 0.429-0.192 0.429-0.429s-0.192-0.429-0.429-0.429v0h-3.357c-1.775-0-3.214-1.439-3.214-3.214 0-1.655 1.252-3.019 2.86-3.195l0.014-0.001c0.217-0.023 0.384-0.205 0.384-0.426 0-0.059-0.012-0.115-0.034-0.166l0.001 0.003c-0.144-0.339-0.228-0.732-0.228-1.146 0-1.655 1.342-2.997 2.997-2.997 0.878 0 1.667 0.377 2.215 0.979l0.002 0.002c0.077 0.086 0.188 0.14 0.312 0.14 0.017 0 0.034-0.001 0.050-0.003l-0.002 0c0.139-0.014 0.256-0.093 0.324-0.205l0.001-0.002c0.95-1.582 2.656-2.624 4.605-2.624 2.957 0 5.353 2.397 5.353 5.353 0 0.001 0 0.002 0 0.003v-0c-0.001 0.215-0.014 0.426-0.040 0.633l0.003-0.026c-0.001 0.008-0.001 0.018-0.001 0.028 0 0.124 0.051 0.236 0.134 0.315l0 0c0.084 0.081 0.199 0.131 0.325 0.131 0.011 0 0.022-0 0.033-0.001l-0.001 0c0.063-0.004 0.126-0.009 0.19-0.009 1.775 0 3.214 1.439 3.214 3.214s-1.439 3.214-3.214 3.214v0h-4.928c-0.237 0-0.429 0.192-0.429 0.429s0.192 0.429 0.429 0.429v0h4.928c0 0 0.001 0 0.001 0 2.249 0 4.071-1.823 4.071-4.071 0-2.175-1.706-3.952-3.852-4.066l-0.010-0c0.003-0.075 0.004-0.148 0.004-0.22 0-0.002 0-0.003 0-0.005 0-3.429-2.78-6.209-6.209-6.209-2.075 0-3.912 1.018-5.040 2.581l-0.013 0.018c-0.661-0.549-1.519-0.883-2.455-0.883-2.129 0-3.855 1.726-3.855 3.855 0 0.344 0.045 0.678 0.13 0.995l-0.006-0.027c-1.805 0.443-3.124 2.048-3.124 3.96 0 2.249 1.823 4.072 4.072 4.072h0z"></path>
<path d="M11.143 20.571c0 0 0 0 0 0 0.237 0 0.429-0.192 0.429-0.429 0-0 0-0 0-0.001v0-11.142h3.489c0.197 0.745 0.865 1.286 1.66 1.286 0.947 0 1.714-0.768 1.714-1.714s-0.768-1.714-1.714-1.714c-0.795 0-1.463 0.54-1.657 1.274l-0.003 0.012h-3.918c-0.237 0-0.428 0.192-0.428 0.429 0 0 0 0 0 0v0 11.143h-8.572v-1.347c0.745-0.197 1.286-0.865 1.286-1.66 0-0.947-0.768-1.714-1.714-1.714s-1.714 0.768-1.714 1.714c0 0.795 0.541 1.463 1.274 1.657l0.012 0.003v1.775c0 0.237 0.192 0.428 0.428 0.428 0 0 0 0 0 0h-0zM16.714 7.714c0.473 0 0.857 0.383 0.857 0.856s-0.383 0.857-0.857 0.857c-0.473 0-0.856-0.383-0.856-0.857v0c0.001-0.473 0.384-0.856 0.856-0.856h0zM0.856 16.714c0-0.473 0.383-0.857 0.856-0.857s0.856 0.383 0.856 0.857c0 0.473-0.383 0.856-0.856 0.857h-0c-0.473-0-0.857-0.383-0.857-0.856v-0z"></path>
<path d="M6.428 16.714c-0.23 0.009-0.413 0.197-0.413 0.428s0.183 0.42 0.412 0.428l0.001 0h3c0.237 0 0.428-0.192 0.428-0.428 0-0 0-0 0-0v0-5.142c0-0 0-0 0-0 0-0.105-0.038-0.2-0.1-0.275l0.001 0.001-1.878-2.253c0.164-0.255 0.262-0.567 0.263-0.901v-0c-0-0.947-0.768-1.714-1.714-1.714s-1.714 0.768-1.714 1.714 0.768 1.714 1.714 1.714v0c0.305-0.002 0.59-0.085 0.836-0.227l-0.008 0.004 1.743 2.092v4.559zM5.572 8.572c0-0.001-0-0.003-0-0.005 0-0.473 0.383-0.856 0.857-0.856s0.856 0.383 0.856 0.856c0 0.169-0.049 0.326-0.133 0.458l0.002-0.003c-0.055 0.018-0.103 0.044-0.144 0.078l0.001-0.001c-0.058 0.051-0.101 0.116-0.124 0.191l-0.001 0.003c-0.13 0.085-0.289 0.135-0.46 0.135-0.472 0-0.854-0.382-0.854-0.854 0-0.001 0-0.001 0-0.002v0z"></path>
<path d="M23.143 16.715h-9.001v-3.489c0.745-0.197 1.285-0.865 1.285-1.66 0-0.947-0.767-1.714-1.714-1.714s-1.714 0.767-1.714 1.714c0 0.794 0.54 1.463 1.274 1.657l0.012 0.003v3.918c0 0.237 0.192 0.429 0.429 0.429v0h9.429c0.23-0.009 0.413-0.197 0.413-0.428s-0.183-0.42-0.412-0.428l-0.001-0zM12.857 11.572c0-0.473 0.384-0.856 0.856-0.856s0.857 0.383 0.857 0.856-0.383 0.857-0.857 0.857v0c-0.473-0.001-0.856-0.384-0.856-0.857v-0z"></path>
<path d="M22.714 21.857h-3.179l-1.591-2.784c-0.075-0.13-0.214-0.216-0.372-0.216-0 0-0 0-0 0h-3.858c-0.005-0-0.010-0-0.016-0-0.237 0-0.429 0.192-0.429 0.429s0.192 0.429 0.429 0.429c0.006 0 0.011-0 0.017-0l-0.001 0h3.609l1.591 2.784c0.075 0.13 0.214 0.216 0.372 0.216 0 0 0 0 0 0h3.429c0.237 0 0.429-0.192 0.429-0.429s-0.192-0.429-0.429-0.429v0z"></path>
<path d="M17.143 21.858h-1.347c-0.194-0.745-0.861-1.286-1.653-1.286s-1.46 0.541-1.651 1.274l-0.003 0.012h-10.347c-0.237 0-0.429 0.192-0.429 0.429s0.192 0.429 0.429 0.429v0h10.347c0.194 0.745 0.861 1.285 1.653 1.285s1.459-0.541 1.651-1.274l0.003-0.012h1.347c0.237 0 0.429-0.192 0.429-0.429s-0.192-0.429-0.429-0.429v0zM14.143 23.144c-0.473 0-0.856-0.383-0.856-0.857s0.383-0.856 0.856-0.856c0.473 0 0.856 0.383 0.856 0.856v0c-0.001 0.472-0.384 0.855-0.856 0.856h-0z"></path>
</svg>
