<!-- Generated by IcoMoon.io -->
<svg version="1.1" xmlns="http://www.w3.org/2000/svg" width="24" height="24" viewBox="0 0 24 24">
<title>company</title>
<path d="M16.101 24.099c-0.22 0-0.398-0.178-0.398-0.398v0-18.406h-7.574v18.41c0 0.006 0 0.012 0 0.018 0 0.22-0.178 0.398-0.398 0.398s-0.398-0.178-0.398-0.398c0-0.006 0-0.013 0-0.019l-0 0.001v-18.806c0-0.22 0.178-0.398 0.398-0.398v0h8.368c0.22 0 0.398 0.178 0.398 0.398v0 18.806c-0.002 0.218-0.179 0.394-0.398 0.394 0 0 0 0-0 0v0z"></path>
<path d="M16.101 24.21c-0.279 0-0.505-0.226-0.505-0.505v0-18.303h-7.357v18.303c-0.011 0.27-0.233 0.484-0.504 0.484s-0.493-0.214-0.504-0.483l-0-0.001v-18.806c0-0.279 0.226-0.505 0.505-0.505v0h8.366c0.279 0 0.505 0.226 0.505 0.505v0 18.806c0 0.279-0.226 0.505-0.505 0.505v0zM8.025 5.188h7.781v18.514c-0 0.005-0 0.010-0 0.016 0 0.16 0.13 0.291 0.291 0.291s0.291-0.13 0.291-0.291c0-0.006-0-0.011-0-0.017l0 0.001v-18.803c0-0 0-0.001 0-0.001 0-0.159-0.127-0.288-0.285-0.291h-8.366c-0.16 0-0.291 0.13-0.291 0.291v18.807c-0 0.005-0 0.010-0 0.016 0 0.16 0.13 0.291 0.291 0.291s0.291-0.13 0.291-0.291c0-0.006-0-0.011-0-0.017l0 0.001z"></path>
<path d="M14.231 5.296c-0.22 0-0.398-0.178-0.398-0.398v-1.847h-3.834v1.847c0 0.006 0 0.012 0 0.018 0 0.22-0.178 0.398-0.398 0.398s-0.398-0.178-0.398-0.398c0-0.006 0-0.013 0-0.019l-0 0.001v-2.244c0-0.22 0.178-0.398 0.398-0.398v0h4.629c0.22 0 0.398 0.178 0.398 0.398v0 2.245c-0 0.219-0.178 0.397-0.398 0.397 0 0 0 0 0 0v0z"></path>
<path d="M14.231 5.403c-0.279 0-0.505-0.226-0.505-0.505v-1.74h-3.623v1.74c0 0.006 0 0.013 0 0.021 0 0.279-0.226 0.505-0.505 0.505s-0.505-0.226-0.505-0.505c0-0.007 0-0.015 0-0.022l-0 0.001v-2.244c0-0.279 0.226-0.505 0.505-0.505v0h4.629c0.279 0 0.505 0.226 0.505 0.505v0 2.245c-0 0.277-0.224 0.502-0.501 0.504h-0zM9.889 2.944h4.053v1.954c-0 0.005-0 0.010-0 0.016 0 0.16 0.13 0.291 0.291 0.291s0.291-0.13 0.291-0.291c0-0.006-0-0.011-0-0.017l0 0.001v-2.244c0-0.16-0.13-0.291-0.291-0.291v0h-4.629c-0.16 0-0.291 0.13-0.291 0.291v0 2.245c-0 0.005-0 0.010-0 0.016 0 0.16 0.13 0.291 0.291 0.291s0.291-0.13 0.291-0.291c0-0.006-0-0.011-0-0.017l0 0.001z"></path>
<path d="M11.916 3.051c-0.22 0-0.398-0.178-0.398-0.398v0-2.149c0.010-0.212 0.184-0.379 0.397-0.379s0.387 0.168 0.397 0.378l0 0.001v2.149c0 0 0 0 0 0 0 0.219-0.178 0.397-0.397 0.398h-0zM0.933 24.127c-0.22 0-0.398-0.178-0.398-0.398v0-9.429c0-0.187 0.129-0.344 0.303-0.386l0.003-0.001 6.801-1.612c0.018-0.003 0.040-0.005 0.061-0.005 0.22 0 0.398 0.178 0.398 0.398 0 0.176-0.114 0.325-0.273 0.378l-0.003 0.001-6.496 1.539v8.719l21.712-0.022 0.015-13.417h-6.943c-0.006 0-0.012 0-0.018 0-0.22 0-0.398-0.178-0.398-0.398s0.178-0.398 0.398-0.398c0.006 0 0.013 0 0.019 0l-0.001-0h7.34c0.22 0 0.398 0.178 0.398 0.398v0l-0.015 14.212c0 0.22-0.178 0.398-0.398 0.398v0l-22.505 0.021zM13.81 7.793h-3.791c-0.212-0.010-0.379-0.184-0.379-0.397s0.168-0.387 0.378-0.397l0.001-0h3.791c0.006-0 0.012-0 0.018-0 0.22 0 0.398 0.178 0.398 0.398s-0.178 0.398-0.398 0.398c-0.006 0-0.013-0-0.019-0l0.001 0z"></path>
<path d="M11.916 0c0.279 0 0.505 0.226 0.505 0.505v0 2.149c-0.011 0.27-0.233 0.484-0.504 0.484s-0.493-0.214-0.504-0.483l-0-0.001v-2.149c0 0 0 0 0 0 0-0.279 0.226-0.504 0.504-0.505h0zM11.916 2.944c0.16 0 0.291-0.13 0.291-0.291v0-2.149c-0.009-0.154-0.135-0.275-0.29-0.275s-0.282 0.121-0.29 0.274l-0 0.001v2.149c0 0 0 0 0 0 0 0.16 0.13 0.29 0.29 0.291h0zM10.019 6.887h3.791c0.006-0 0.013-0 0.021-0 0.279 0 0.505 0.226 0.505 0.505s-0.226 0.505-0.505 0.505c-0.007 0-0.015-0-0.022-0l0.001 0h-3.791c-0.27-0.011-0.484-0.233-0.484-0.504s0.214-0.493 0.483-0.504l0.001-0zM13.81 7.682c0.154-0.009 0.275-0.135 0.275-0.29s-0.121-0.282-0.274-0.29l-0.001-0h-3.791c-0.005-0-0.010-0-0.016-0-0.16 0-0.291 0.13-0.291 0.291s0.13 0.291 0.291 0.291c0.006 0 0.011-0 0.017-0l-0.001 0zM16.113 8.985h7.342c0.279 0 0.505 0.226 0.505 0.505v0l-0.015 14.212c-0 0.278-0.226 0.504-0.505 0.504 0 0 0 0 0 0v0l-22.527 0.027c-0.267-0.015-0.478-0.235-0.478-0.504v0-9.429c0-0.001 0-0.001 0-0.002 0-0.237 0.164-0.436 0.385-0.488l0.003-0.001 6.801-1.612c0.031-0.007 0.067-0.011 0.104-0.011h0c0.278 0.001 0.503 0.227 0.503 0.505 0 0.231-0.156 0.426-0.368 0.486l-0.004 0.001-6.422 1.52v8.523l21.498-0.022 0.015-13.2h-6.837c-0.006 0-0.013 0-0.021 0-0.279 0-0.505-0.226-0.505-0.505s0.226-0.505 0.505-0.505c0.007 0 0.015 0 0.022 0l-0.001-0zM0.959 24.020l22.481-0.023c0.16 0 0.291-0.13 0.291-0.291v0l0.015-14.212c-0-0.16-0.13-0.29-0.291-0.29 0 0 0 0 0 0h-7.343c-0.154 0.009-0.275 0.135-0.275 0.29s0.121 0.282 0.274 0.29l0.001 0h7.052l-0.015 13.629-21.926 0.028v-8.909l6.578-1.56c0.121-0.037 0.208-0.148 0.208-0.279 0-0.159-0.128-0.289-0.288-0.291h-0c-0.020 0-0.040 0.002-0.059 0.006l0.002-0-6.798 1.611c-0.129 0.031-0.224 0.145-0.224 0.281 0 0 0 0 0 0.001v-0 9.429c0 0.16 0.13 0.291 0.291 0.291v0z"></path>
<path d="M13.811 9.891h-3.792c-0.212-0.010-0.379-0.184-0.379-0.397s0.168-0.387 0.378-0.397l0.001-0h3.791c0.006-0 0.012-0 0.018-0 0.22 0 0.398 0.178 0.398 0.398s-0.178 0.398-0.398 0.398c-0.006 0-0.013-0-0.019-0l0.001 0zM13.811 11.992h-3.792c-0.212-0.010-0.379-0.184-0.379-0.397s0.168-0.387 0.378-0.397l0.001-0h3.791c0.006-0 0.012-0 0.018-0 0.22 0 0.398 0.178 0.398 0.398s-0.178 0.398-0.398 0.398c-0.006 0-0.013-0-0.019-0l0.001 0zM13.811 14.092h-3.792c-0.212-0.010-0.379-0.184-0.379-0.397s0.168-0.387 0.378-0.397l0.001-0h3.791c0.212 0.010 0.379 0.184 0.379 0.397s-0.168 0.387-0.378 0.397l-0.001 0zM13.811 16.192h-3.792c-0.212-0.010-0.379-0.184-0.379-0.397s0.168-0.387 0.378-0.397l0.001-0h3.791c0.006-0 0.012-0 0.018-0 0.22 0 0.398 0.178 0.398 0.398s-0.178 0.398-0.398 0.398c-0.006 0-0.013-0-0.019-0l0.001 0zM13.811 18.292h-3.792c-0.212-0.010-0.379-0.184-0.379-0.397s0.168-0.387 0.378-0.397l0.001-0h3.791c0.006-0 0.012-0 0.018-0 0.22 0 0.398 0.178 0.398 0.398s-0.178 0.398-0.398 0.398c-0.006 0-0.013-0-0.019-0l0.001 0zM13.811 20.391h-3.792c-0.212-0.010-0.379-0.184-0.379-0.397s0.168-0.387 0.378-0.397l0.001-0h3.791c0.212 0.010 0.379 0.184 0.379 0.397s-0.168 0.387-0.378 0.397l-0.001 0zM13.811 22.491h-3.792c-0.212-0.010-0.379-0.184-0.379-0.397s0.168-0.387 0.378-0.397l0.001-0h3.791c0.212 0.010 0.379 0.184 0.379 0.397s-0.168 0.387-0.378 0.397l-0.001 0zM4.395 16.69c-0.22 0-0.398-0.178-0.398-0.398v0-0.491c-0-0.006-0-0.012-0-0.018 0-0.22 0.178-0.398 0.398-0.398s0.398 0.178 0.398 0.398c0 0.006-0 0.013-0 0.019l0-0.001v0.495c-0.002 0.217-0.179 0.393-0.397 0.393h-0zM5.985 16.69c-0.22 0-0.398-0.178-0.398-0.398v0-0.491c-0-0.006-0-0.012-0-0.018 0-0.22 0.178-0.398 0.398-0.398s0.398 0.178 0.398 0.398c0 0.006-0 0.013-0 0.019l0-0.001v0.495c-0.002 0.217-0.179 0.393-0.397 0.393h-0zM2.805 16.69c-0.22 0-0.398-0.178-0.398-0.398v0-0.491c0.010-0.212 0.184-0.379 0.397-0.379s0.387 0.168 0.397 0.378l0 0.001v0.495c-0.002 0.217-0.179 0.392-0.396 0.393h-0zM4.395 19.162c-0.22 0-0.398-0.178-0.398-0.398v0-0.489c0.010-0.212 0.184-0.379 0.397-0.379s0.387 0.168 0.397 0.378l0 0.001v0.49c-0 0.219-0.177 0.396-0.396 0.397h-0zM5.984 19.162c-0.22 0-0.398-0.178-0.398-0.398v0-0.489c0.010-0.212 0.184-0.379 0.397-0.379s0.387 0.168 0.397 0.378l0 0.001v0.49c-0 0.219-0.177 0.396-0.396 0.397h-0zM2.805 19.162c-0.22 0-0.398-0.178-0.398-0.398v0-0.489c0.010-0.212 0.184-0.379 0.397-0.379s0.387 0.168 0.397 0.378l0 0.001v0.49c-0 0.218-0.177 0.395-0.395 0.397h-0zM4.394 21.635c-0.22 0-0.398-0.178-0.398-0.398v0-0.49c0.010-0.212 0.184-0.379 0.397-0.379s0.387 0.168 0.397 0.378l0 0.001v0.49c0 0 0 0 0 0 0 0.219-0.177 0.396-0.395 0.398h-0zM5.983 21.635c-0.22 0-0.398-0.178-0.398-0.398v0-0.49c0.010-0.212 0.184-0.379 0.397-0.379s0.387 0.168 0.397 0.378l0 0.001v0.49c0 0 0 0 0 0 0 0.219-0.177 0.396-0.395 0.398h-0zM2.804 21.635c-0.22 0-0.398-0.178-0.398-0.398v0-0.49c0.010-0.212 0.184-0.379 0.397-0.379s0.387 0.168 0.397 0.378l0 0.001v0.49c0 0 0 0 0 0 0 0.218-0.176 0.396-0.394 0.398h-0zM19.784 12.628c-0.22 0-0.398-0.178-0.398-0.398v0-0.49c-0-0.006-0-0.012-0-0.018 0-0.22 0.178-0.398 0.398-0.398s0.398 0.178 0.398 0.398c0 0.006-0 0.013-0 0.019l0-0.001v0.49c0 0 0 0 0 0 0 0.219-0.178 0.397-0.397 0.398h-0zM21.373 12.628c-0.22 0-0.398-0.178-0.398-0.398v0-0.49c-0-0.006-0-0.012-0-0.018 0-0.22 0.178-0.398 0.398-0.398s0.398 0.178 0.398 0.398c0 0.006-0 0.013-0 0.019l0-0.001v0.49c0 0 0 0 0 0 0 0.219-0.177 0.397-0.396 0.398h-0zM18.194 12.628c-0.22 0-0.398-0.178-0.398-0.398v0-0.49c-0-0.006-0-0.012-0-0.018 0-0.22 0.178-0.398 0.398-0.398s0.398 0.178 0.398 0.398c0 0.006-0 0.013-0 0.019l0-0.001v0.49c0 0 0 0 0 0 0 0.219-0.177 0.397-0.396 0.398h-0zM19.784 15.097c-0.22 0-0.398-0.178-0.398-0.398v0-0.491c0.010-0.212 0.184-0.379 0.397-0.379s0.387 0.168 0.397 0.378l0 0.001v0.491c0 0 0 0 0 0 0 0.219-0.178 0.397-0.397 0.398h-0zM21.373 15.097c-0.22 0-0.398-0.178-0.398-0.398v0-0.491c-0-0.006-0-0.012-0-0.018 0-0.22 0.178-0.398 0.398-0.398s0.398 0.178 0.398 0.398c0 0.006-0 0.013-0 0.019l0-0.001v0.491c0 0 0 0 0 0 0 0.219-0.177 0.397-0.396 0.398h-0zM18.194 15.097c-0.22 0-0.398-0.178-0.398-0.398v0-0.491c-0-0.006-0-0.012-0-0.018 0-0.22 0.178-0.398 0.398-0.398s0.398 0.178 0.398 0.398c0 0.006-0 0.013-0 0.019l0-0.001v0.491c0 0 0 0 0 0 0 0.219-0.177 0.397-0.396 0.398h-0zM19.783 17.569c-0.22 0-0.398-0.178-0.398-0.398v0-0.489c-0-0.006-0-0.012-0-0.018 0-0.22 0.178-0.398 0.398-0.398s0.398 0.178 0.398 0.398c0 0.006-0 0.013-0 0.019l0-0.001v0.49c-0.001 0.219-0.179 0.396-0.398 0.396 0 0 0 0 0 0v0zM21.372 17.569c-0.22 0-0.398-0.178-0.398-0.398v0-0.489c-0-0.006-0-0.012-0-0.018 0-0.22 0.178-0.398 0.398-0.398s0.398 0.178 0.398 0.398c0 0.006-0 0.013-0 0.019l0-0.001v0.49c-0.001 0.219-0.179 0.396-0.398 0.396 0 0 0 0 0 0v0zM18.193 17.569c-0.22 0-0.398-0.178-0.398-0.398v0-0.489c-0-0.006-0-0.012-0-0.018 0-0.22 0.178-0.398 0.398-0.398s0.398 0.178 0.398 0.398c0 0.006-0 0.013-0 0.019l0-0.001v0.49c-0.001 0.219-0.179 0.396-0.398 0.396 0 0 0 0 0 0v0zM19.782 19.953c-0.22 0-0.398-0.178-0.398-0.398v0-0.489c0.010-0.212 0.184-0.379 0.397-0.379s0.387 0.168 0.397 0.378l0 0.001v0.49c-0.001 0.219-0.179 0.396-0.398 0.396 0 0 0 0 0 0v0zM21.371 19.953c-0.22 0-0.398-0.178-0.398-0.398v0-0.489c-0-0.006-0-0.012-0-0.018 0-0.22 0.178-0.398 0.398-0.398s0.398 0.178 0.398 0.398c0 0.006-0 0.013-0 0.019l0-0.001v0.49c-0.001 0.219-0.179 0.396-0.398 0.396 0 0 0 0 0 0v0zM18.192 19.953c-0.22 0-0.398-0.178-0.398-0.398v0-0.489c-0-0.006-0-0.012-0-0.018 0-0.22 0.178-0.398 0.398-0.398s0.398 0.178 0.398 0.398c0 0.006-0 0.013-0 0.019l0-0.001v0.49c-0.001 0.219-0.179 0.396-0.398 0.396 0 0 0 0 0 0v0zM20.577 24.099h-1.586c-0.22 0-0.398-0.178-0.398-0.398v0-2.102c0-0.22 0.178-0.398 0.398-0.398v0h1.586c0.22 0 0.398 0.178 0.398 0.398v0 2.106c-0 0.218-0.177 0.395-0.395 0.397h-0zM19.389 23.305h0.791v-1.308h-0.791z"></path>
<path d="M10.019 8.99h3.791c0.27 0.011 0.484 0.233 0.484 0.504s-0.214 0.493-0.483 0.504l-0.001 0h-3.791c-0.27-0.011-0.484-0.233-0.484-0.504s0.214-0.493 0.483-0.504l0.001-0zM13.81 9.784c0.005 0 0.010 0 0.016 0 0.16 0 0.291-0.13 0.291-0.291s-0.13-0.291-0.291-0.291c-0.006 0-0.011 0-0.017 0l0.001-0h-3.791c-0.154 0.009-0.275 0.135-0.275 0.29s0.121 0.282 0.274 0.29l0.001 0zM10.019 11.091h3.791c0.27 0.011 0.484 0.233 0.484 0.504s-0.214 0.493-0.483 0.504l-0.001 0h-3.791c-0.27-0.011-0.484-0.233-0.484-0.504s0.214-0.493 0.483-0.504l0.001-0zM13.81 11.885c0.005 0 0.010 0 0.016 0 0.16 0 0.291-0.13 0.291-0.291s-0.13-0.291-0.291-0.291c-0.006 0-0.011 0-0.017 0l0.001-0h-3.791c-0.154 0.009-0.275 0.135-0.275 0.29s0.121 0.282 0.274 0.29l0.001 0zM18.194 11.235c0.279 0 0.505 0.226 0.505 0.505v0 0.49c0 0.006 0 0.013 0 0.021 0 0.279-0.226 0.505-0.505 0.505s-0.505-0.226-0.505-0.505c0-0.007 0-0.015 0-0.022l-0 0.001v-0.49c0.002-0.277 0.228-0.501 0.505-0.501 0 0 0 0 0 0v0zM18.194 12.521c0.16 0 0.291-0.13 0.291-0.291v0-0.49c0-0.005 0-0.010 0-0.016 0-0.16-0.13-0.291-0.291-0.291s-0.291 0.13-0.291 0.291c0 0.006 0 0.011 0 0.017l-0-0.001v0.49c-0 0.001-0 0.003-0 0.004 0 0.16 0.13 0.291 0.291 0.291 0 0 0 0 0 0v0zM19.783 11.235c0.279 0 0.505 0.226 0.505 0.505v0 0.49c0 0.006 0 0.013 0 0.021 0 0.279-0.226 0.505-0.505 0.505s-0.505-0.226-0.505-0.505c0-0.007 0-0.015 0-0.022l-0 0.001v-0.49c0.002-0.277 0.228-0.501 0.505-0.501 0 0 0 0 0 0v0zM19.783 12.521c0.16 0 0.291-0.13 0.291-0.291v0-0.49c0-0.005 0-0.010 0-0.016 0-0.16-0.13-0.291-0.291-0.291s-0.291 0.13-0.291 0.291c0 0.006 0 0.011 0 0.017l-0-0.001v0.49c-0 0.001-0 0.003-0 0.004 0 0.16 0.13 0.291 0.291 0.291 0 0 0 0 0 0v0zM21.374 11.24c0.279 0 0.505 0.226 0.505 0.505v0 0.49c0 0.006 0 0.013 0 0.021 0 0.279-0.226 0.505-0.505 0.505s-0.505-0.226-0.505-0.505c0-0.007 0-0.015 0-0.022l-0 0.001v-0.49c0 0 0 0 0 0 0-0.279 0.226-0.504 0.504-0.505h0zM21.374 12.525c0.16 0 0.291-0.13 0.291-0.291v0-0.49c0-0.005 0-0.010 0-0.016 0-0.16-0.13-0.291-0.291-0.291s-0.291 0.13-0.291 0.291c0 0.006 0 0.011 0 0.017l-0-0.001v0.49c0 0 0 0 0 0 0 0.16 0.13 0.29 0.29 0.291h0zM10.020 13.195h3.791c0.27 0.011 0.484 0.233 0.484 0.504s-0.214 0.493-0.483 0.504l-0.001 0h-3.792c-0.27-0.011-0.484-0.233-0.484-0.504s0.214-0.493 0.483-0.504l0.001-0zM13.811 13.989c0.154-0.009 0.275-0.135 0.275-0.29s-0.121-0.282-0.274-0.29l-0.001-0h-3.792c-0.154 0.009-0.275 0.135-0.275 0.29s0.121 0.282 0.274 0.29l0.001 0zM18.195 13.713c0.279 0 0.505 0.226 0.505 0.505v0 0.491c0 0.006 0 0.013 0 0.021 0 0.279-0.226 0.505-0.505 0.505s-0.505-0.226-0.505-0.505c0-0.007 0-0.015 0-0.022l-0 0.001v-0.491c0-0.001-0-0.003-0-0.004 0-0.279 0.226-0.504 0.504-0.505h0zM18.195 14.998c0.16 0 0.291-0.13 0.291-0.291v0-0.491c0-0.005 0-0.010 0-0.016 0-0.16-0.13-0.291-0.291-0.291s-0.291 0.13-0.291 0.291c0 0.006 0 0.011 0 0.017l-0-0.001v0.491c0.002 0.158 0.131 0.286 0.29 0.286h0zM19.784 13.713c0.279 0 0.505 0.226 0.505 0.505v0 0.491c0 0.006 0 0.013 0 0.021 0 0.279-0.226 0.505-0.505 0.505s-0.505-0.226-0.505-0.505c0-0.007 0-0.015 0-0.022l-0 0.001v-0.491c0-0.001-0-0.003-0-0.004 0-0.279 0.226-0.504 0.504-0.505h0zM19.784 14.998c0.16 0 0.291-0.13 0.291-0.291v0-0.491c-0.009-0.154-0.135-0.275-0.29-0.275s-0.282 0.121-0.29 0.274l-0 0.001v0.491c0.002 0.158 0.131 0.286 0.29 0.286h0zM21.373 13.713c0.279 0 0.505 0.226 0.505 0.505v0 0.491c0 0.006 0 0.013 0 0.021 0 0.279-0.226 0.505-0.505 0.505s-0.505-0.226-0.505-0.505c0-0.007 0-0.015 0-0.022l-0 0.001v-0.491c0-0.001-0-0.003-0-0.004 0-0.279 0.226-0.505 0.505-0.505 0 0 0 0 0 0v0zM21.373 14.998c0.16 0 0.291-0.13 0.291-0.291v0-0.491c-0.009-0.154-0.135-0.275-0.29-0.275s-0.282 0.121-0.29 0.274l-0 0.001v0.491c0.002 0.159 0.132 0.286 0.291 0.286 0 0 0 0 0 0v0zM10.019 15.294h3.791c0.27 0.011 0.484 0.233 0.484 0.504s-0.214 0.493-0.483 0.504l-0.001 0h-3.791c-0.27-0.011-0.484-0.233-0.484-0.504s0.214-0.493 0.483-0.504l0.001-0zM13.81 16.089c0.154-0.009 0.275-0.135 0.275-0.29s-0.121-0.282-0.274-0.29l-0.001-0h-3.791c-0.154 0.009-0.275 0.135-0.275 0.29s0.121 0.282 0.274 0.29l0.001 0zM2.806 15.298c0.279 0 0.505 0.226 0.505 0.505v0 0.494c-0.011 0.27-0.233 0.484-0.504 0.484s-0.493-0.214-0.504-0.483l-0-0.001v-0.491c0-0.001 0-0.002 0-0.003 0-0.279 0.226-0.504 0.504-0.505h0zM2.806 16.584c0.16 0 0.291-0.13 0.291-0.291v0-0.491c0-0.005 0-0.010 0-0.016 0-0.16-0.13-0.291-0.291-0.291s-0.291 0.13-0.291 0.291c0 0.006 0 0.011 0 0.017l-0-0.001v0.495c0.002 0.158 0.131 0.286 0.29 0.286h0zM4.395 15.298c0.279 0 0.505 0.226 0.505 0.505v0 0.494c-0.011 0.27-0.233 0.484-0.504 0.484s-0.493-0.214-0.504-0.483l-0-0.001v-0.491c0-0.001 0-0.002 0-0.003 0-0.279 0.226-0.504 0.504-0.505h0zM4.395 16.584c0.16 0 0.291-0.13 0.291-0.291v0-0.491c-0.009-0.154-0.135-0.275-0.29-0.275s-0.282 0.121-0.29 0.274l-0 0.001v0.495c0.002 0.158 0.131 0.286 0.29 0.286h0zM5.985 15.298c0.279 0 0.505 0.226 0.505 0.505v0 0.494c-0.011 0.27-0.233 0.484-0.504 0.484s-0.493-0.214-0.504-0.483l-0-0.001v-0.491c0-0.001 0-0.002 0-0.003 0-0.279 0.226-0.504 0.504-0.505h0zM5.985 16.584c0.16 0 0.291-0.13 0.291-0.291v0-0.491c-0.009-0.154-0.135-0.275-0.29-0.275s-0.282 0.121-0.29 0.274l-0 0.001v0.495c0.002 0.158 0.131 0.286 0.29 0.286h0zM18.195 16.183c0.279 0 0.505 0.226 0.505 0.505v0 0.49c-0.011 0.27-0.233 0.484-0.504 0.484s-0.493-0.214-0.504-0.483l-0-0.001v-0.489c0-0.001 0-0.001 0-0.002 0-0.279 0.226-0.504 0.504-0.505h0zM18.195 17.469c0 0 0 0 0 0 0.16 0 0.29-0.13 0.291-0.29v-0.49c0-0.005 0-0.010 0-0.016 0-0.16-0.13-0.291-0.291-0.291s-0.291 0.13-0.291 0.291c0 0.006 0 0.011 0 0.017l-0-0.001v0.489c0.001 0.159 0.13 0.288 0.29 0.288h0zM19.784 16.183c0.279 0 0.505 0.226 0.505 0.505v0 0.49c-0.011 0.27-0.233 0.484-0.504 0.484s-0.493-0.214-0.504-0.483l-0-0.001v-0.489c0-0.001 0-0.001 0-0.002 0-0.279 0.226-0.504 0.504-0.505h0zM19.784 17.469c0 0 0 0 0 0 0.16 0 0.29-0.13 0.291-0.29v-0.49c0-0.005 0-0.010 0-0.016 0-0.16-0.13-0.291-0.291-0.291s-0.291 0.13-0.291 0.291c0 0.006 0 0.011 0 0.017l-0-0.001v0.489c0.001 0.159 0.131 0.288 0.29 0.288h0zM21.373 16.183c0.279 0 0.505 0.226 0.505 0.505v0 0.49c-0.011 0.27-0.233 0.484-0.504 0.484s-0.493-0.214-0.504-0.483l-0-0.001v-0.489c0-0.001 0-0.001 0-0.002 0-0.279 0.226-0.505 0.505-0.505 0 0 0 0 0 0v0zM21.373 17.469c0 0 0 0 0 0 0.16 0 0.29-0.13 0.291-0.29v-0.49c0-0.005 0-0.010 0-0.016 0-0.16-0.13-0.291-0.291-0.291s-0.291 0.13-0.291 0.291c0 0.006 0 0.011 0 0.017l-0-0.001v0.489c0.001 0.159 0.131 0.288 0.291 0.288 0 0 0 0 0 0v0zM10.019 17.392h3.791c0.27 0.011 0.484 0.233 0.484 0.504s-0.214 0.493-0.483 0.504l-0.001 0h-3.791c-0.27-0.011-0.484-0.233-0.484-0.504s0.214-0.493 0.483-0.504l0.001-0zM13.811 18.183c0.005 0 0.010 0 0.016 0 0.16 0 0.291-0.13 0.291-0.291s-0.13-0.291-0.291-0.291c-0.006 0-0.011 0-0.017 0l0.001-0h-3.792c-0.154 0.009-0.275 0.135-0.275 0.29s0.121 0.282 0.274 0.29l0.001 0zM2.806 17.772c0.279 0 0.505 0.226 0.505 0.505v0 0.49c-0.011 0.27-0.233 0.484-0.504 0.484s-0.493-0.214-0.504-0.483l-0-0.001v-0.489c0-0 0-0.001 0-0.001 0-0.279 0.226-0.504 0.504-0.505h0zM2.806 19.058c0 0 0 0 0 0 0.16 0 0.29-0.13 0.291-0.29v-0.49c0-0.005 0-0.010 0-0.016 0-0.16-0.13-0.291-0.291-0.291s-0.291 0.13-0.291 0.291c0 0.006 0 0.011 0 0.017l-0-0.001v0.489c0.001 0.159 0.131 0.288 0.29 0.288h0zM4.395 17.772c0.279 0 0.505 0.226 0.505 0.505v0 0.49c-0.011 0.27-0.233 0.484-0.504 0.484s-0.493-0.214-0.504-0.483l-0-0.001v-0.489c0-0 0-0.001 0-0.001 0-0.279 0.226-0.504 0.504-0.505h0zM4.395 19.058c0 0 0 0 0 0 0.16 0 0.29-0.13 0.291-0.29v-0.49c-0.009-0.154-0.135-0.275-0.29-0.275s-0.282 0.121-0.29 0.274l-0 0.001v0.489c0.001 0.159 0.13 0.288 0.29 0.288h0zM5.985 17.772c0.279 0 0.505 0.226 0.505 0.505v0 0.49c-0.011 0.27-0.233 0.484-0.504 0.484s-0.493-0.214-0.504-0.483l-0-0.001v-0.489c0-0 0-0.001 0-0.001 0-0.279 0.226-0.504 0.504-0.505h0zM5.985 19.058c0 0 0 0 0 0 0.16 0 0.29-0.13 0.291-0.29v-0.49c-0.009-0.154-0.135-0.275-0.29-0.275s-0.282 0.121-0.29 0.274l-0 0.001v0.489c0.001 0.159 0.131 0.288 0.29 0.288h0zM18.195 18.568c0.279 0 0.505 0.226 0.505 0.505v0 0.49c-0.011 0.27-0.233 0.484-0.504 0.484s-0.493-0.214-0.504-0.483l-0-0.001v-0.489c0-0.001 0-0.002 0-0.003 0-0.279 0.226-0.504 0.504-0.505h0zM18.195 19.854c0 0 0 0 0 0 0.16 0 0.29-0.13 0.291-0.29v-0.49c0-0.005 0-0.010 0-0.016 0-0.16-0.13-0.291-0.291-0.291s-0.291 0.13-0.291 0.291c0 0.006 0 0.011 0 0.017l-0-0.001v0.489c0.002 0.159 0.131 0.287 0.29 0.287h0zM19.784 18.568c0.279 0 0.505 0.226 0.505 0.505v0 0.49c-0.011 0.27-0.233 0.484-0.504 0.484s-0.493-0.214-0.504-0.483l-0-0.001v-0.489c0-0.001 0-0.002 0-0.003 0-0.279 0.226-0.504 0.504-0.505h0zM19.784 19.854c0 0 0 0 0 0 0.16 0 0.29-0.13 0.291-0.29v-0.49c-0.009-0.154-0.135-0.275-0.29-0.275s-0.282 0.121-0.29 0.274l-0 0.001v0.489c0.002 0.159 0.131 0.287 0.29 0.287h0zM21.373 18.568c0.279 0 0.505 0.226 0.505 0.505v0 0.49c-0.011 0.27-0.233 0.484-0.504 0.484s-0.493-0.214-0.504-0.483l-0-0.001v-0.489c0-0.001 0-0.002 0-0.003 0-0.279 0.226-0.505 0.505-0.505 0 0 0 0 0 0v0zM21.373 19.854c0 0 0 0 0 0 0.16 0 0.29-0.13 0.291-0.29v-0.49c0-0.005 0-0.010 0-0.016 0-0.16-0.13-0.291-0.291-0.291s-0.291 0.13-0.291 0.291c0 0.006 0 0.011 0 0.017l-0-0.001v0.489c0.002 0.159 0.131 0.287 0.291 0.287 0 0 0 0 0 0v0zM10.019 19.493h3.791c0.27 0.011 0.484 0.233 0.484 0.504s-0.214 0.493-0.483 0.504l-0.001 0h-3.791c-0.27-0.011-0.484-0.233-0.484-0.504s0.214-0.493 0.483-0.504l0.001-0zM13.81 20.288c0.005 0 0.010 0 0.016 0 0.16 0 0.291-0.13 0.291-0.291s-0.13-0.291-0.291-0.291c-0.006 0-0.011 0-0.017 0l0.001-0h-3.791c-0.154 0.009-0.275 0.135-0.275 0.29s0.121 0.282 0.274 0.29l0.001 0zM2.806 20.24c0.279 0 0.505 0.226 0.505 0.505v0 0.49c0 0.006 0 0.013 0 0.021 0 0.279-0.226 0.505-0.505 0.505s-0.505-0.226-0.505-0.505c0-0.007 0-0.015 0-0.022l-0 0.001v-0.49c0 0 0 0 0 0 0-0.279 0.226-0.504 0.504-0.505h0zM2.806 21.525c0.16 0 0.291-0.13 0.291-0.291v0-0.49c0-0.005 0-0.010 0-0.016 0-0.16-0.13-0.291-0.291-0.291s-0.291 0.13-0.291 0.291c0 0.006 0 0.011 0 0.017l-0-0.001v0.49c0 0 0 0 0 0 0 0.16 0.13 0.29 0.29 0.291h0zM4.395 20.24c0.279 0 0.505 0.226 0.505 0.505v0 0.49c-0.011 0.27-0.233 0.484-0.504 0.484s-0.493-0.214-0.504-0.483l-0-0.001v-0.49c0 0 0 0 0 0 0-0.279 0.226-0.504 0.504-0.505h0zM4.395 21.525c0.16 0 0.291-0.13 0.291-0.291v0-0.49c-0.009-0.154-0.135-0.275-0.29-0.275s-0.282 0.121-0.29 0.274l-0 0.001v0.49c0 0 0 0 0 0 0 0.16 0.13 0.29 0.29 0.291h0zM5.985 20.24c0.279 0 0.505 0.226 0.505 0.505v0 0.49c-0.011 0.27-0.233 0.484-0.504 0.484s-0.493-0.214-0.504-0.483l-0-0.001v-0.49c0 0 0 0 0 0 0-0.279 0.226-0.504 0.504-0.505h0zM5.985 21.525c0.16 0 0.291-0.13 0.291-0.291v0-0.49c-0.009-0.154-0.135-0.275-0.29-0.275s-0.282 0.121-0.29 0.274l-0 0.001v0.49c0 0 0 0 0 0 0 0.16 0.13 0.29 0.29 0.291h0zM18.993 21.097h1.586c0.279 0 0.505 0.226 0.505 0.505v0 2.106c0 0.279-0.226 0.505-0.505 0.505v0h-1.586c-0.279 0-0.505-0.226-0.505-0.505v0-2.108c0.001-0.278 0.227-0.503 0.505-0.503 0 0 0.001 0 0.001 0h-0zM20.578 23.997c0.16 0 0.291-0.13 0.291-0.291v0-2.107c0-0.16-0.13-0.291-0.291-0.291v0h-1.586c-0.16 0-0.291 0.13-0.291 0.291v0 2.106c0 0.16 0.13 0.291 0.291 0.291v0zM10.019 21.589h3.791c0.27 0.011 0.484 0.233 0.484 0.504s-0.214 0.493-0.483 0.504l-0.001 0h-3.791c-0.27-0.011-0.484-0.233-0.484-0.504s0.214-0.493 0.483-0.504l0.001-0zM13.81 22.383c0.005 0 0.010 0 0.016 0 0.16 0 0.291-0.13 0.291-0.291s-0.13-0.291-0.291-0.291c-0.006 0-0.011 0-0.017 0l0.001-0h-3.791c-0.154 0.009-0.275 0.135-0.275 0.29s0.121 0.282 0.274 0.29l0.001 0zM19.283 21.89h1.005v1.526h-1.005zM20.074 22.104h-0.577v1.097h0.577z"></path>
</svg>
