<!-- Generated by IcoMoon.io -->
<svg version="1.1" xmlns="http://www.w3.org/2000/svg" width="22" height="24" viewBox="0 0 22 24">
<title>condition-type</title>
<path d="M11.018 23.998c-0 0-0.001 0-0.002 0-0.884 0-1.713-0.239-2.425-0.656l0.023 0.012-6.223-3.597c-1.44-0.849-2.393-2.391-2.398-4.155v-7.209c0.007-1.766 0.961-3.307 2.381-4.142l0.023-0.012 6.223-3.597c0.69-0.403 1.519-0.642 2.404-0.642s1.714 0.238 2.427 0.654l-0.023-0.012 6.223 3.597c1.437 0.85 2.387 2.391 2.391 4.153v7.207c-0.007 1.763-0.959 3.303-2.375 4.139l-0.022 0.012-6.223 3.597c-0.69 0.405-1.519 0.644-2.404 0.644v0zM11.018 2.398c-0.001 0-0.001 0-0.002 0-0.442 0-0.855 0.12-1.21 0.328l0.011-0.006-6.223 3.597c-0.718 0.425-1.192 1.196-1.193 2.077v7.207c0.002 0.883 0.478 1.655 1.188 2.072l0.011 0.006 6.223 3.597c0.345 0.202 0.759 0.321 1.202 0.321s0.857-0.119 1.213-0.327l-0.011 0.006 6.223-3.597c0.721-0.424 1.198-1.195 1.2-2.078v-7.207c-0.002-0.883-0.478-1.655-1.188-2.072l-0.011-0.006-6.223-3.597c-0.343-0.202-0.756-0.321-1.197-0.321-0.004 0-0.008 0-0.012 0h0.001z"></path>
<path d="M11.025 19.202c-0.001 0-0.003 0-0.005 0-0.661 0-1.198-0.535-1.2-1.196v-6.177c0.024-0.644 0.552-1.158 1.2-1.158s1.176 0.513 1.2 1.156l0 0.002v6.177c-0.002 0.66-0.536 1.195-1.196 1.196h-0z"></path>
<path d="M11.023 7.933c-0 0-0.001 0-0.002 0-0.662 0-1.2-0.537-1.2-1.2 0-0.001 0-0.001 0-0.002v0-0.599c-0-0.013-0.001-0.028-0.001-0.043 0-0.663 0.538-1.201 1.201-1.201s1.201 0.538 1.201 1.201c0 0.015-0 0.030-0.001 0.045l0-0.002v0.601c0 0.662-0.537 1.2-1.2 1.2v0z"></path>
</svg>
