<!-- Generated by IcoMoon.io -->
<svg version="1.1" xmlns="http://www.w3.org/2000/svg" width="24" height="24" viewBox="0 0 24 24">
<title>configurations</title>
<path d="M19.348 14.146c2.291 0.012 4.143 1.872 4.143 4.164 0 2.3-1.864 4.164-4.164 4.164s-4.164-1.864-4.164-4.164v0c0.009-2.302 1.876-4.164 4.179-4.164 0.002 0 0.004 0 0.006 0h-0zM19.348 16.163c-1.176 0.012-2.124 0.968-2.124 2.146 0 1.185 0.961 2.146 2.146 2.146s2.146-0.961 2.146-2.146v0c-0.009-1.187-0.973-2.146-2.161-2.146-0.002 0-0.005 0-0.007 0h0zM9.521 17.353c0.543 0.018 0.976 0.463 0.976 1.009s-0.433 0.99-0.974 1.008l-0.002 0h-8.473c-0.543-0.018-0.976-0.463-0.976-1.009s0.433-0.99 0.974-1.008l0.002-0zM4.186 1.091c2.29 0.012 4.142 1.872 4.142 4.164 0 2.3-1.864 4.164-4.164 4.164s-4.163-1.864-4.164-4.163v-0c0.009-2.302 1.877-4.165 4.18-4.165 0.002 0 0.004 0 0.006 0h-0zM4.186 3.108c-1.176 0.013-2.124 0.969-2.124 2.147 0 1.186 0.961 2.147 2.147 2.147s2.146-0.961 2.147-2.146v-0c-0.007-1.188-0.972-2.148-2.161-2.148-0.003 0-0.006 0-0.009 0h0zM21.772 4.319c0.543 0.018 0.976 0.463 0.976 1.009s-0.433 0.99-0.974 1.008l-0.002 0h-8.471c-0.543-0.018-0.976-0.463-0.976-1.009s0.433-0.99 0.974-1.008l0.002-0z"></path>
</svg>
