<!-- Generated by IcoMoon.io -->
<svg version="1.1" xmlns="http://www.w3.org/2000/svg" width="24" height="24" viewBox="0 0 24 24">
<title>customer</title>
<path d="M12.004 6.384c-1.206 0-2.184-0.978-2.184-2.184s0.978-2.184 2.184-2.184c1.206 0 2.184 0.978 2.184 2.184v0c-0.002 1.206-0.978 2.182-2.184 2.184h-0zM12.004 2.784c-0.782 0-1.416 0.634-1.416 1.416s0.634 1.416 1.416 1.416c0.782 0 1.416-0.634 1.416-1.416v0c-0.001-0.782-0.634-1.415-1.416-1.416h-0z"></path>
<path d="M15.968 12.817h-7.928c-0.212 0-0.384-0.172-0.384-0.384v0-2.215c0-1.725 1.403-3.128 3.128-3.128h2.44c1.725 0 3.128 1.403 3.128 3.128v2.215c0 0.212-0.172 0.384-0.383 0.384h-0zM8.424 12.049h7.16v-1.831c-0.001-1.303-1.057-2.359-2.36-2.36h-2.441c-1.302 0.002-2.358 1.057-2.359 2.36v0z"></path>
<path d="M14.496 12.817c-0.212 0-0.384-0.172-0.384-0.384v0-1.684c0-0.212 0.172-0.384 0.384-0.384s0.384 0.172 0.384 0.384v0 1.684c0 0.212-0.172 0.384-0.384 0.384v0z"></path>
<path d="M9.512 12.817c-0.212 0-0.384-0.172-0.384-0.384v0-1.684c0-0.212 0.172-0.384 0.384-0.384s0.384 0.172 0.384 0.384v0 1.684c0 0.212-0.172 0.384-0.384 0.384v0z"></path>
<path d="M14.61 18.757h-4.308c-0.212 0-0.384-0.172-0.384-0.384s0.172-0.384 0.384-0.384v0h4.308c0.455-0.008 0.82-0.378 0.82-0.834s-0.365-0.826-0.819-0.834h-4.319c-0.036 0-0.899-0.030-1.977-0.497l-0.068-0.030c-1.002-0.44-1.739-0.664-2.188-0.667-0.725-0.005-1.347 0.144-1.846 0.44-0.057 0.035-0.126 0.056-0.2 0.056-0.212 0-0.384-0.172-0.384-0.384 0-0.141 0.076-0.264 0.189-0.331l0.002-0.001c0.621-0.369 1.375-0.554 2.243-0.548 0.75 0.005 1.781 0.42 2.492 0.732l0.065 0.028c0.897 0.389 1.628 0.431 1.689 0.433h4.301c0.876 0.011 1.583 0.724 1.583 1.602s-0.706 1.591-1.582 1.602h-0.001z"></path>
<path d="M11.968 21.984q-0.273 0-0.55-0.026c-0.684-0.068-1.311-0.24-1.889-0.503l0.037 0.015-1.594-0.703c-0.395-0.182-0.889-0.371-1.396-0.53l-0.094-0.026c-0.361-0.11-0.552-0.149-0.648-0.163-0.778-0.111-1.375-0.108-1.68 0.008-0.040 0.016-0.087 0.025-0.136 0.025-0.212 0-0.384-0.172-0.384-0.384 0-0 0-0.001 0-0.001v0-4.483c0-0.212 0.172-0.384 0.384-0.384s0.384 0.172 0.384 0.384v0 4.010c0.404-0.045 0.919-0.023 1.541 0.066 0.182 0.026 0.432 0.087 0.763 0.188 0.636 0.195 1.159 0.395 1.665 0.623l-0.088-0.036 1.594 0.702c0.471 0.216 1.018 0.367 1.592 0.424l0.022 0.002c0.142 0.014 0.306 0.023 0.473 0.023 0.275 0 0.545-0.022 0.808-0.065l-0.029 0.004c0.526-0.085 1.301-0.347 1.592-0.445l0.050-0.017c2.912-0.976 5.549-3.6 6.547-4.68 0.176-0.187 0.285-0.44 0.285-0.718 0-0.084-0.010-0.166-0.029-0.244l0.001 0.007c-0.052-0.218-0.186-0.513-0.736-0.558-0.024-0.002-0.052-0.003-0.081-0.003-0.233 0-0.448 0.076-0.623 0.204l0.003-0.002-3.7 2.671c-0.063 0.048-0.143 0.077-0.23 0.077-0.212 0-0.384-0.172-0.384-0.384 0-0.13 0.065-0.245 0.163-0.314l0.001-0.001 3.7-2.671c0.296-0.218 0.668-0.348 1.071-0.348 0.050 0 0.099 0.002 0.147 0.006l-0.006-0c0.753 0.061 1.258 0.468 1.42 1.144 0.031 0.125 0.049 0.269 0.049 0.417 0 0.479-0.186 0.915-0.489 1.24l0.001-0.001c-1.039 1.126-3.787 3.856-6.867 4.888l-0.048 0.016c-0.308 0.104-1.127 0.38-1.716 0.474-0.269 0.046-0.58 0.072-0.896 0.072h-0z"></path>
<path d="M3.213 21.266c-0.661-0.001-1.197-0.536-1.197-1.197v-5.409c0-0.661 0.536-1.197 1.197-1.197s1.197 0.536 1.197 1.197v0 5.409c-0.001 0.661-0.536 1.196-1.197 1.197h-0zM3.213 14.23c-0.237 0-0.429 0.192-0.429 0.429v5.409c0 0.237 0.192 0.429 0.429 0.429s0.429-0.192 0.429-0.429v0-5.409c-0-0.237-0.192-0.429-0.429-0.429h-0z"></path>
</svg>
