<!-- Generated by IcoMoon.io -->
<svg version="1.1" xmlns="http://www.w3.org/2000/svg" width="24" height="24" viewBox="0 0 24 24">
<title>dashboard</title>
<path d="M10 3v18c0 1.657-1.343 3-3 3v0h-4c-1.657 0-3-1.343-3-3v0-18c0-1.657 1.343-3 3-3v0h4c1.657 0 3 1.343 3 3v0zM21 15.7h-6c-1.657 0-3 1.343-3 3v0 2.3c0 1.657 1.343 3 3 3v0h6c1.657 0 3-1.343 3-3v0-2.3c0-1.657-1.343-3-3-3v0zM21 0h-6c-1.657 0-3 1.343-3 3v0 7.7c0 1.657 1.343 3 3 3v0h6c1.657 0 3-1.343 3-3v0-7.7c0-1.657-1.343-3-3-3v0z"></path>
</svg>
