<!-- Generated by IcoMoon.io -->
<svg version="1.1" xmlns="http://www.w3.org/2000/svg" width="24" height="24" viewBox="0 0 24 24">
<title>dashboard-outlined</title>
<path d="M3.446 0h3.802c1.902 0.002 3.443 1.543 3.446 3.445v17.109c-0.002 1.902-1.544 3.443-3.445 3.446h-3.802c-1.902-0.002-3.443-1.544-3.446-3.445v-17.109c0.002-1.902 1.543-3.443 3.445-3.446h0zM7.248 22.812c1.246-0.002 2.256-1.011 2.257-2.257v-17.109c-0.002-1.246-1.011-2.256-2.257-2.257h-3.802c-1.246 0.002-2.256 1.011-2.257 2.257v17.109c0.002 1.246 1.011 2.256 2.257 2.257h0zM14.851 0h5.703c1.902 0.002 3.443 1.543 3.446 3.445v7.319c-0.002 1.902-1.544 3.443-3.445 3.446h-5.703c-1.902-0.002-3.443-1.543-3.446-3.445v-7.319c0.002-1.902 1.543-3.443 3.445-3.446h0zM20.554 13.022c1.246-0.002 2.256-1.011 2.257-2.257v-7.319c-0.002-1.246-1.011-2.256-2.257-2.257h-5.703c-1.246 0.002-2.256 1.011-2.257 2.257v7.319c0.002 1.246 1.011 2.256 2.257 2.257h0zM14.851 14.923h5.703c1.902 0.002 3.443 1.543 3.446 3.445v2.186c-0.002 1.902-1.544 3.443-3.445 3.446h-5.703c-1.902-0.002-3.443-1.544-3.446-3.445v-2.186c0.002-1.902 1.543-3.443 3.445-3.446h0zM20.554 22.812c1.246-0.002 2.256-1.011 2.257-2.257v-2.186c-0.002-1.246-1.011-2.256-2.257-2.257h-5.703c-1.246 0.002-2.256 1.011-2.257 2.257v2.186c0.002 1.246 1.011 2.256 2.257 2.257h0z"></path>
</svg>
