<!-- Generated by IcoMoon.io -->
<svg version="1.1" xmlns="http://www.w3.org/2000/svg" width="24" height="24" viewBox="0 0 24 24">
<title>decline</title>
<path d="M3.513 20.487c-2.176-2.174-3.522-5.178-3.522-8.496 0-6.632 5.377-12.009 12.009-12.009s12.009 5.377 12.009 12.009c0 6.632-5.377 12.009-12.009 12.009-0 0-0 0-0 0v0c-0.010 0-0.022 0-0.035 0-3.303 0-6.293-1.343-8.452-3.513l-0-0zM4.68 4.68c-1.879 1.876-3.042 4.469-3.042 7.334 0 5.723 4.639 10.362 10.362 10.362s10.362-4.639 10.362-10.362c0-5.723-4.639-10.362-10.362-10.362-0 0-0 0-0 0v0c-0.010-0-0.021-0-0.033-0-2.848 0-5.425 1.158-7.287 3.028l-0 0zM15.766 16.925l-3.766-3.766-3.766 3.766c-0.147 0.152-0.352 0.246-0.579 0.246s-0.433-0.094-0.579-0.246l-0-0c-0.153-0.146-0.248-0.352-0.248-0.579s0.095-0.433 0.248-0.579l0-0 3.766-3.766-3.766-3.766c-0.153-0.146-0.248-0.352-0.248-0.579s0.095-0.433 0.248-0.579l0-0c0.147-0.152 0.352-0.246 0.579-0.246s0.433 0.094 0.579 0.246l3.767 3.766 3.766-3.765c0.15-0.163 0.365-0.265 0.603-0.265 0.453 0 0.82 0.367 0.82 0.82 0 0.238-0.102 0.453-0.264 0.603l-0.001 0.001-3.765 3.766 3.765 3.766c0.163 0.15 0.265 0.365 0.265 0.603 0 0.453-0.367 0.82-0.82 0.82-0.238 0-0.453-0.102-0.603-0.264l-0.001-0.001z"></path>
</svg>
