<!-- Generated by IcoMoon.io -->
<svg version="1.1" xmlns="http://www.w3.org/2000/svg" width="22" height="24" viewBox="0 0 22 24">
<title>design</title>
<path d="M19.816 3.121h-0.285c0.189-0.304 0.301-0.674 0.301-1.069 0-1.133-0.919-2.052-2.052-2.052-0.708 0-1.332 0.358-1.701 0.904l-0.005 0.007-1.479 2.21h-12.702c-1.046 0.001-1.893 0.848-1.894 1.893v12.107c0.001 1.045 0.848 1.892 1.893 1.894h7.355l-0.556 2.334h-1.2c-0.783 0.001-1.417 0.635-1.418 1.418v0.296h-1.478c-0.259 0-0.469 0.21-0.469 0.469s0.21 0.469 0.469 0.469h12.515c0.259 0 0.469-0.21 0.469-0.469s-0.21-0.469-0.469-0.469h-1.479v-0.296c-0.001-0.783-0.635-1.417-1.418-1.418h-1.199l-0.556-2.334h7.355c1.045-0.001 1.892-0.849 1.893-1.894v-12.107c-0.002-1.045-0.848-1.892-1.893-1.893h-0zM13.1 11.362c-0.733 0.513-2.106-0.184-3.417 0.515-0.319-1.662-0.118-3.225 1.547-3.57 0.181-0.039 0.389-0.062 0.603-0.062 0.014 0 0.029 0 0.043 0l-0.002-0 1.696 1.258c0.246 0.716 0.154 1.421-0.47 1.858zM13.572 6.337l1.327 0.984-1.020 1.244-1.201-0.891zM16.854 1.433c0.203-0.302 0.542-0.498 0.928-0.498 0.615 0 1.114 0.499 1.114 1.114 0 0.27-0.096 0.518-0.256 0.711l0.001-0.002-3.147 3.837-1.4-1.039zM14.696 22.767v0.296h-7.683v-0.296c0-0.265 0.215-0.48 0.48-0.48h6.723c0.265 0 0.48 0.215 0.48 0.48v0zM12.053 21.349h-2.396l0.556-2.334h1.285zM20.772 17.121c-0.001 0.528-0.428 0.955-0.956 0.956h-17.923c-0.528-0.001-0.955-0.428-0.956-0.956v-2.195h1.339c0.259 0 0.469-0.21 0.469-0.469s-0.21-0.469-0.469-0.469h-1.339v-8.974c0.001-0.528 0.428-0.955 0.956-0.956h12.076l-2.174 3.249c-0.919 0.009-1.836 0.328-2.436 1.029-0.817 0.954-0.961 2.452-0.427 4.454 0.056 0.202 0.237 0.347 0.453 0.347 0.126 0 0.24-0.049 0.324-0.13l-0 0c1.212-1.158 2.722 0.105 4.073-0.989 0.825-0.668 1.020-1.73 0.709-2.723l4.297-5.238h1.028c0.528 0.001 0.955 0.428 0.956 0.956v8.974h-14.746c-0.259 0-0.469 0.21-0.469 0.469s0.21 0.469 0.469 0.469h14.746z"></path>
<path d="M4.061 13.998c-0.216 0.044-0.377 0.233-0.377 0.459 0 0.259 0.21 0.469 0.469 0.469s0.469-0.21 0.469-0.469c0-0.032-0.003-0.064-0.010-0.095l0.001 0.003c-0.044-0.217-0.233-0.377-0.459-0.377-0.033 0-0.065 0.003-0.095 0.010l0.003-0.001z"></path>
</svg>
