<!-- Generated by IcoMoon.io -->
<svg version="1.1" xmlns="http://www.w3.org/2000/svg" width="24" height="24" viewBox="0 0 24 24">
<title>Edit-Square</title>
<path d="M11.185 0.043c0.488 0 0.884 0.396 0.884 0.884s-0.396 0.884-0.884 0.884h-4.406c-3.045 0-5.012 2.086-5.012 5.31v9.8c0 3.227 1.966 5.313 5.011 5.313h10.4c3.045 0 5.013-2.086 5.013-5.313v-4.746c0-0.488 0.396-0.884 0.884-0.884s0.884 0.396 0.884 0.884v4.746c0 4.234-2.726 7.080-6.78 7.080h-10.4c-4.054 0-6.778-2.846-6.778-7.080v-9.8c0-4.231 2.724-7.077 6.779-7.077zM21.447 1.078l1.433 1.434c0.668 0.668 1.082 1.591 1.082 2.611s-0.413 1.943-1.082 2.611l-8.848 8.848c-0.619 0.622-1.477 1.007-2.424 1.007-0.003 0-0.006 0-0.009 0h-4.413c-0.487-0.003-0.88-0.398-0.88-0.886 0-0.007 0-0.015 0-0.022l-0 0.001 0.11-4.453c0.022-0.919 0.403-1.745 1.006-2.347l8.802-8.805c0.669-0.666 1.592-1.079 2.611-1.079s1.942 0.412 2.611 1.079l-0-0zM15.501 4.302l-6.831 6.832c-0.293 0.293-0.478 0.694-0.489 1.139l-0 0.002-0.088 3.548h3.507c0.002 0 0.004 0 0.006 0 0.461 0 0.877-0.188 1.178-0.49l6.872-6.875zM17.475 2.329l-0.726 0.72 4.156 4.16 0.726-0.725c0.348-0.348 0.562-0.829 0.562-1.36s-0.215-1.012-0.562-1.36l-1.434-1.435c-0.349-0.347-0.83-0.561-1.361-0.561s-1.012 0.214-1.361 0.561l0-0z"></path>
</svg>
