<!-- Generated by IcoMoon.io -->
<svg version="1.1" xmlns="http://www.w3.org/2000/svg" width="24" height="24" viewBox="0 0 24 24">
<title>email</title>
<path d="M17.67 1.043c3.757 0 6.592 3.066 6.592 7.132v7.75c0.001 0.049 0.002 0.106 0.002 0.163 0 1.995-0.791 3.805-2.077 5.133l0.002-0.002c-1.129 1.13-2.689 1.829-4.413 1.829-0.031 0-0.061-0-0.092-0.001l0.005 0h-11.114c-0.025 0-0.055 0.001-0.086 0.001-1.723 0-3.282-0.699-4.411-1.829l-0-0c-1.286-1.327-2.079-3.139-2.079-5.135 0-0.056 0.001-0.112 0.002-0.167l-0 0.008v-7.75c0-4.066 2.833-7.132 6.591-7.132zM17.67 2.736h-11.080c-2.838 0-4.898 2.287-4.898 5.439v7.75c-0.001 0.047-0.002 0.102-0.002 0.157 0 1.528 0.601 2.916 1.58 3.939l-0.002-0.002c0.827 0.826 1.969 1.337 3.23 1.337 0.026 0 0.053-0 0.079-0.001l-0.004 0h11.096s0.011 0 0.018 0c0.023 0 0.050 0.001 0.077 0.001 1.26 0 2.401-0.51 3.228-1.335l-0 0c0.977-1.021 1.578-2.408 1.578-3.936 0-0.056-0.001-0.112-0.002-0.167l0 0.008v-7.751c0-3.152-2.060-5.44-4.898-5.44zM19.444 7.96c0.118 0.144 0.189 0.331 0.189 0.534 0 0.264-0.121 0.5-0.311 0.656l-0.002 0.001-5.015 4.076c-0.582 0.47-1.332 0.755-2.147 0.755-0.812 0-1.558-0.282-2.146-0.754l0.007 0.005-5.061-4.080c-0.192-0.157-0.314-0.394-0.314-0.659 0-0.468 0.38-0.848 0.848-0.848 0.203 0 0.389 0.071 0.535 0.19l-0.002-0.001 5.057 4.076c0.295 0.236 0.673 0.379 1.085 0.379s0.79-0.143 1.089-0.382l-0.003 0.003 5.009-4.070c0.144-0.118 0.331-0.19 0.534-0.19 0.263 0 0.497 0.12 0.652 0.308l0.001 0.001z"></path>
</svg>
