<!-- Generated by IcoMoon.io -->
<svg version="1.1" xmlns="http://www.w3.org/2000/svg" width="24" height="24" viewBox="0 0 24 24">
<title>faq</title>
<path d="M12 0c-6.627 0-12 5.373-12 12s5.373 12 12 12c6.627 0 12-5.373 12-12v0c0-6.627-5.373-12-12-12v0zM12 22c-5.523 0-10-4.477-10-10s4.477-10 10-10c5.523 0 10 4.477 10 10v0c0 5.523-4.477 10-10 10v0z"></path>
<path d="M12.716 5.064c-0.215-0.041-0.463-0.065-0.716-0.065-2.209 0-4 1.791-4 4 0 0 0 0.001 0 0.001v-0c0 0.552 0.448 1 1 1s1-0.448 1-1v0c0-0.001 0-0.001 0-0.002 0-1.104 0.895-2 2-2 0.131 0 0.26 0.013 0.384 0.037l-0.013-0.002c0.81 0.162 1.439 0.79 1.598 1.587l0.002 0.013c0.022 0.112 0.035 0.24 0.035 0.372 0 0.828-0.504 1.539-1.222 1.843l-0.013 0.005c-1.050 0.457-1.771 1.485-1.771 2.682 0 0.016 0 0.032 0 0.047l-0-0.002v0.42c0 0.552 0.448 1 1 1s1-0.448 1-1v0-0.42c-0.001-0.012-0.001-0.026-0.001-0.040 0-0.368 0.212-0.686 0.52-0.84l0.005-0.002c1.466-0.615 2.476-2.039 2.476-3.699 0-1.957-1.405-3.586-3.261-3.932l-0.025-0.004z"></path>
<path d="M12.906 18.34c0 0.5-0.405 0.906-0.906 0.906s-0.906-0.405-0.906-0.906c0-0.5 0.405-0.906 0.906-0.906s0.906 0.405 0.906 0.906z"></path>
</svg>
