<!-- Generated by IcoMoon.io -->
<svg version="1.1" xmlns="http://www.w3.org/2000/svg" width="24" height="24" viewBox="0 0 24 24">
<title>language</title>
<path d="M12 0.119c-6.562 0-11.881 5.319-11.881 11.881s5.319 11.881 11.881 11.881c6.562 0 11.881-5.319 11.881-11.881v0c0-6.562-5.319-11.881-11.881-11.881v0zM22.276 16.162l-3.379 0.583c0.368-1.297 0.593-2.791 0.622-4.333l0-0.017h3.564c-0.049 1.369-0.34 2.656-0.831 3.839l0.027-0.073zM0.92 12.396h3.564c0.029 1.559 0.254 3.052 0.652 4.474l-0.030-0.125-3.379-0.583c-0.465-1.11-0.757-2.397-0.807-3.747l-0.001-0.020zM1.724 7.838l3.379-0.583c-0.368 1.297-0.593 2.791-0.622 4.333l-0 0.017h-3.564c0.050-1.369 0.342-2.656 0.834-3.839l-0.027 0.073zM12.396 6.478c1.514 0.020 2.981 0.16 4.409 0.412l-0.164-0.024 1.398 0.238c0.409 1.341 0.658 2.884 0.687 4.482l0 0.015h-6.33zM16.777 6.082c-1.306-0.234-2.82-0.377-4.363-0.396l-0.018-0v-4.752c2.27 0.218 4.242 2.297 5.361 5.322zM11.605 5.686c-1.561 0.019-3.075 0.162-4.549 0.42l0.168-0.024-0.981 0.17c1.118-3.027 3.089-5.106 5.361-5.323zM7.358 6.866c1.264-0.228 2.731-0.368 4.227-0.388l0.019-0v5.126h-6.33c0.029-1.613 0.278-3.157 0.718-4.618l-0.031 0.12zM5.274 12.396h6.33v5.126c-1.514-0.020-2.981-0.16-4.409-0.412l0.164 0.024-1.398-0.238c-0.409-1.342-0.658-2.887-0.687-4.485l-0-0.015zM7.224 17.915c1.304 0.235 2.818 0.38 4.361 0.401l0.020 0v4.752c-2.27-0.219-4.242-2.297-5.361-5.323zM12.397 18.317c1.563-0.021 3.076-0.167 4.55-0.426l-0.169 0.025 0.981-0.169c-1.118 3.027-3.089 5.106-5.361 5.323zM16.642 17.135c-1.265 0.228-2.731 0.368-4.227 0.388l-0.019 0v-5.127h6.33c-0.029 1.613-0.278 3.157-0.718 4.618l0.031-0.12zM19.518 11.604c-0.029-1.559-0.254-3.052-0.652-4.474l0.030 0.125 3.379 0.583c0.464 1.11 0.755 2.398 0.803 3.747l0.001 0.019zM21.875 6.965l-3.239-0.559c-0.614-1.964-1.705-3.631-3.141-4.922l-0.010-0.009c2.801 0.954 5.048 2.909 6.36 5.428l0.029 0.062zM8.515 1.475c-1.446 1.3-2.537 2.966-3.13 4.853l-0.021 0.077-3.239 0.559c1.342-2.581 3.589-4.536 6.311-5.467l0.078-0.023zM2.125 17.035l3.239 0.559c0.614 1.964 1.705 3.631 3.141 4.922l0.010 0.009c-2.801-0.954-5.048-2.909-6.36-5.428l-0.029-0.062zM15.485 22.525c1.446-1.3 2.537-2.966 3.13-4.853l0.021-0.077 3.239-0.559c-1.342 2.581-3.589 4.536-6.311 5.467l-0.078 0.023z"></path>
<path d="M12 24c-0 0-0 0-0.001 0-6.627 0-12-5.373-12-12 0-3.314 1.343-6.314 3.515-8.486v0c2.172-2.172 5.172-3.515 8.486-3.515 6.628 0 12 5.373 12 12 0 3.314-1.343 6.314-3.515 8.486v0c-2.16 2.171-5.149 3.515-8.453 3.515-0.012 0-0.023-0-0.035-0h0.002zM12 0.238c-6.496 0-11.762 5.266-11.762 11.762s5.266 11.762 11.762 11.762c6.496 0 11.762-5.266 11.762-11.762v0c-0.008-6.493-5.269-11.755-11.762-11.762h-0.001zM11.723 23.2l-0.13-0.013c-2.25-0.216-4.291-2.235-5.461-5.4l-0.071-0.193 1.183 0.204c1.299 0.233 2.806 0.376 4.343 0.396l0.019 0h0.117zM6.428 17.899c1.123 2.905 2.996 4.771 5.057 5.038v-4.503c-1.533-0.028-3.012-0.172-4.452-0.426l0.17 0.025zM12.276 23.199v-5h0.117c1.556-0.022 3.062-0.168 4.528-0.426l-0.169 0.025 1.183-0.204-0.071 0.193c-1.169 3.168-3.211 5.185-5.461 5.4zM12.514 18.433v4.502c2.059-0.265 3.933-2.131 5.057-5.038l-0.775 0.134c-1.27 0.229-2.748 0.374-4.254 0.401l-0.026 0zM15.524 22.638l-0.117-0.201c1.43-1.286 2.509-2.934 3.096-4.8l0.021-0.077 0.021-0.070 3.545-0.611-0.109 0.211c-1.357 2.607-3.628 4.581-6.379 5.521l-0.079 0.024zM18.73 17.699c-0.568 1.774-1.513 3.291-2.746 4.518l-0 0c2.457-0.974 4.429-2.736 5.647-4.968l0.029-0.057zM8.478 22.638c-2.83-0.963-5.101-2.937-6.428-5.482l-0.030-0.062-0.109-0.211 3.545 0.611 0.021 0.070c0.608 1.942 1.687 3.589 3.106 4.865l0.010 0.009zM2.342 17.193c1.246 2.289 3.218 4.051 5.601 4.999l0.074 0.026c-1.234-1.228-2.178-2.745-2.724-4.441l-0.022-0.078zM11.723 17.642h-0.12c-1.521-0.020-2.994-0.161-4.429-0.414l0.165 0.024-1.471-0.253-0.021-0.071c-0.412-1.351-0.663-2.906-0.692-4.516l-0-0.016v-0.121h6.574zM6.054 16.789l1.325 0.229c1.219 0.219 2.637 0.358 4.082 0.384l0.025 0v-4.887h-6.091c0.039 1.537 0.277 3.003 0.689 4.394l-0.030-0.119zM12.277 17.643v-5.366h6.574v0.121c-0.029 1.624-0.28 3.179-0.723 4.65l0.031-0.121-0.021 0.071-1.471 0.253c-1.27 0.228-2.743 0.369-4.245 0.39l-0.019 0zM12.515 12.515v4.887c1.47-0.026 2.888-0.165 4.27-0.408l-0.163 0.024 1.325-0.228c0.382-1.272 0.62-2.739 0.659-4.256l0-0.021zM18.733 16.894l0.049-0.18c0.366-1.288 0.589-2.772 0.618-4.303l0-0.017v-0.116h3.802l-0.004 0.123c-0.049 1.383-0.343 2.684-0.84 3.88l0.027-0.073-0.025 0.061zM19.634 12.515c-0.037 1.466-0.244 2.867-0.604 4.207l0.029-0.125 3.131-0.54c0.43-1.043 0.705-2.252 0.764-3.517l0.001-0.024zM5.267 16.894l-3.628-0.626-0.025-0.061c-0.47-1.122-0.764-2.424-0.812-3.788l-0.001-0.019-0.005-0.123h3.802v0.116c0.029 1.548 0.252 3.032 0.647 4.444l-0.030-0.124zM1.81 16.056l3.131 0.54c-0.331-1.214-0.538-2.615-0.575-4.059l-0-0.022h-3.321c0.060 1.289 0.336 2.498 0.791 3.614l-0.026-0.073zM18.848 11.723h-6.574v-5.366h0.12c1.521 0.020 2.994 0.161 4.429 0.414l-0.165-0.024 1.471 0.253 0.021 0.071c0.412 1.35 0.663 2.905 0.692 4.513l0 0.016zM12.511 11.485h6.090c-0.039-1.538-0.277-3.005-0.689-4.397l0.030 0.119-1.325-0.229c-1.218-0.218-2.634-0.356-4.078-0.381l-0.024-0zM11.719 11.723h-6.574v-0.121c0.033-1.626 0.287-3.18 0.733-4.65l-0.032 0.121 0.021-0.071 1.471-0.253c1.27-0.228 2.744-0.369 4.247-0.39l0.019-0h0.12zM5.391 11.485h6.094v-4.887c-1.47 0.026-2.888 0.165-4.27 0.408l0.163-0.024-1.325 0.229c-0.382 1.271-0.62 2.737-0.659 4.253l-0 0.021zM4.595 11.723h-3.797l0.004-0.123c0.049-1.383 0.343-2.684 0.84-3.88l-0.027 0.073 0.025-0.061 3.628-0.626-0.049 0.18c-0.366 1.288-0.589 2.772-0.618 4.303l-0 0.017zM1.041 11.485h3.324c0.037-1.466 0.245-2.866 0.604-4.204l-0.029 0.125-3.131 0.54c-0.429 1.043-0.705 2.25-0.764 3.515l-0.001 0.024zM23.198 11.723h-3.802v-0.116c-0.029-1.548-0.252-3.032-0.647-4.444l0.030 0.124-0.046-0.181 3.628 0.626 0.025 0.061c0.47 1.122 0.764 2.424 0.812 3.788l0.001 0.019zM19.634 11.485h3.321c-0.060-1.289-0.336-2.498-0.791-3.614l0.026 0.073-3.131-0.538c0.331 1.213 0.539 2.614 0.575 4.056l0 0.023zM22.090 7.122l-3.546-0.611-0.021-0.070c-0.607-1.943-1.686-3.592-3.106-4.869l-0.010-0.009 0.117-0.201c2.83 0.963 5.101 2.937 6.428 5.482l0.030 0.062zM18.728 6.301l2.931 0.505c-1.247-2.289-3.218-4.050-5.602-4.998l-0.074-0.026c1.233 1.228 2.178 2.745 2.724 4.441l0.022 0.078zM1.911 7.122l0.109-0.211c1.357-2.607 3.628-4.581 6.379-5.521l0.079-0.024 0.117 0.201c-1.43 1.285-2.509 2.931-3.097 4.796l-0.021 0.077-0.021 0.070zM8.017 1.782c-2.457 0.974-4.429 2.735-5.647 4.967l-0.029 0.057 2.931-0.505c0.567-1.774 1.511-3.291 2.744-4.518l0-0zM17.941 6.408l-1.188-0.206c-1.3-0.233-2.807-0.376-4.344-0.396l-0.018-0h-0.117v-5.004l0.13 0.013c2.25 0.216 4.291 2.234 5.461 5.4zM12.515 5.568c1.531 0.025 3.010 0.168 4.451 0.421l-0.169-0.025 0.775 0.135c-1.124-2.901-2.997-4.768-5.057-5.030zM6.059 6.406l0.071-0.193c1.169-3.168 3.211-5.185 5.461-5.4l0.131-0.012v5.002h-0.117c-1.555 0.021-3.060 0.166-4.527 0.424l0.169-0.025zM11.485 1.065c-2.059 0.265-3.933 2.131-5.057 5.038l0.775-0.134c1.272-0.228 2.751-0.371 4.258-0.396l0.024-0z"></path>
</svg>
