<!-- Generated by IcoMoon.io -->
<svg version="1.1" xmlns="http://www.w3.org/2000/svg" width="24" height="24" viewBox="0 0 24 24">
<title>link</title>
<path d="M13.719 1.766c1.075-1.013 2.528-1.635 4.126-1.635 3.326 0 6.023 2.696 6.023 6.023 0 1.598-0.622 3.051-1.638 4.129l0.003-0.003-5.306 5.312c-1.086 1.106-2.596 1.791-4.267 1.791s-3.181-0.685-4.266-1.79l-0.001-0.001c-0.234-0.239-0.379-0.568-0.379-0.93 0-0.734 0.595-1.329 1.329-1.329 0.372 0 0.709 0.153 0.95 0.4l0 0c0.604 0.618 1.445 1.001 2.376 1.001s1.772-0.383 2.375-1l0.001-0.001 5.314-5.326c0.611-0.61 0.989-1.454 0.989-2.386 0-1.862-1.509-3.371-3.371-3.371-0.93 0-1.772 0.377-2.382 0.985l-0.663 0.663c-0.24 0.24-0.573 0.389-0.939 0.389-0.734 0-1.329-0.595-1.329-1.329 0-0.367 0.149-0.699 0.389-0.939v0z"></path>
<path d="M9.022 7.088c0.684-0.295 1.48-0.467 2.316-0.467 1.672 0 3.183 0.686 4.268 1.793l0.001 0.001c0.251 0.242 0.407 0.581 0.407 0.957 0 0.734-0.595 1.328-1.328 1.328-0.385 0-0.732-0.164-0.974-0.425l-0.001-0.001c-0.604-0.618-1.445-1.001-2.376-1.001s-1.772 0.383-2.375 1l-5.325 5.325c-0.608 0.61-0.985 1.451-0.985 2.381 0 1.861 1.509 3.37 3.37 3.37 0.932 0 1.776-0.378 2.386-0.99l0.663-0.663c0.24-0.24 0.573-0.389 0.939-0.389 0.734 0 1.329 0.595 1.329 1.329 0 0.367-0.149 0.699-0.389 0.939v0l-0.663 0.663c-1.075 1.013-2.528 1.635-4.126 1.635-3.326 0-6.023-2.696-6.023-6.023 0-1.598 0.622-3.051 1.638-4.129l-0.003 0.003 5.302-5.314c0.542-0.552 1.189-0.999 1.909-1.308l0.039-0.015z"></path>
</svg>
