<!-- Generated by IcoMoon.io -->
<svg version="1.1" xmlns="http://www.w3.org/2000/svg" width="32" height="32" viewBox="0 0 32 32">
<title>link-broken</title>
<path d="M29.708 10.76c1.023 1.086 1.652 2.553 1.652 4.168 0 3.36-2.724 6.084-6.084 6.084-1.614 0-3.082-0.629-4.171-1.654l0.003 0.003-5.366-5.36c-1.117-1.097-1.809-2.622-1.809-4.31s0.692-3.213 1.808-4.309l0.001-0.001c0.242-0.237 0.573-0.383 0.939-0.383 0.742 0 1.343 0.601 1.343 1.343 0 0.376-0.155 0.716-0.404 0.96l-0 0c-0.624 0.61-1.011 1.46-1.011 2.4s0.387 1.79 1.010 2.399l0.001 0.001 5.38 5.368c0.616 0.617 1.469 0.999 2.41 0.999 1.881 0 3.405-1.525 3.405-3.405 0-0.939-0.38-1.79-0.995-2.406l-0.67-0.67c-0.243-0.243-0.393-0.578-0.393-0.949 0-0.741 0.601-1.342 1.342-1.342 0.371 0 0.706 0.15 0.949 0.393v0z"></path>
<path d="M17.086 19.374c0.298 0.691 0.472 1.495 0.472 2.34 0 1.689-0.693 3.216-1.811 4.311l-0.001 0.001c-0.244 0.253-0.587 0.411-0.966 0.411-0.741 0-1.342-0.601-1.342-1.342 0-0.389 0.165-0.739 0.43-0.984l0.001-0.001c0.624-0.61 1.011-1.46 1.011-2.4s-0.387-1.79-1.010-2.399l-0.001-0.001-5.378-5.378c-0.616-0.615-1.466-0.995-2.405-0.995-1.88 0-3.405 1.524-3.405 3.405 0 0.941 0.382 1.794 1 2.41l0.67 0.67c0.243 0.243 0.393 0.578 0.393 0.949 0 0.741-0.601 1.342-1.342 1.342-0.371 0-0.706-0.15-0.949-0.393v0l-0.67-0.67c-1.023-1.086-1.652-2.553-1.652-4.168 0-3.36 2.724-6.084 6.084-6.084 1.614 0 3.082 0.629 4.171 1.654l-0.003-0.003 5.368 5.356c0.558 0.548 1.009 1.201 1.321 1.929l0.015 0.039z"></path>
</svg>
