<!-- Generated by IcoMoon.io -->
<svg version="1.1" xmlns="http://www.w3.org/2000/svg" width="32" height="32" viewBox="0 0 32 32">
<title>list</title>
<path d="M7.857 3.048c-0.842 0-1.524 0.682-1.524 1.524v0 7.619c0 0.842 0.682 1.524 1.524 1.524v0h16.762c0.842 0 1.524-0.682 1.524-1.524v0-7.619c0-0.842-0.682-1.524-1.524-1.524v0h-16.762zM7.857 0h16.762c2.525 0 4.571 2.047 4.571 4.571v0 7.619c0 2.525-2.047 4.571-4.571 4.571v0h-16.762c-2.525 0-4.571-2.047-4.571-4.571v0-7.619c0-2.525 2.047-4.571 4.571-4.571v0z"></path>
<path d="M27.91 24.8h-23.333c-0.842 0-1.524-0.682-1.524-1.524v0c0-0.842 0.682-1.524 1.524-1.524v0h23.333c0.842 0 1.524 0.682 1.524 1.524v0c0 0.842-0.682 1.524-1.524 1.524v0z"></path>
<path d="M27.91 32.419h-23.333c-0.842 0-1.524-0.682-1.524-1.524v0c0-0.842 0.682-1.524 1.524-1.524v0h23.333c0.842 0 1.524 0.682 1.524 1.524v0c0 0.842-0.682 1.524-1.524 1.524v0z"></path>
</svg>
