<!-- Generated by IcoMoon.io -->
<svg version="1.1" xmlns="http://www.w3.org/2000/svg" width="20" height="24" viewBox="0 0 20 24">
<title>list1</title>
<path d="M3.56 2.256c-0.623 0-1.128 0.505-1.128 1.128v0 5.64c0 0.623 0.505 1.128 1.128 1.128v0h12.409c0.623 0 1.128-0.505 1.128-1.128v0-5.64c0-0.623-0.505-1.128-1.128-1.128v0h-12.409zM3.56 0h12.409c1.869 0 3.384 1.515 3.384 3.384v0 5.64c0 1.869-1.515 3.384-3.384 3.384v0h-12.409c-1.869 0-3.384-1.515-3.384-3.384v0-5.64c0-1.869 1.515-3.384 3.384-3.384v0z"></path>
<path d="M18.406 18.36h-17.273c-0.623 0-1.128-0.505-1.128-1.128v0c0-0.623 0.505-1.128 1.128-1.128v0h17.273c0.623 0 1.128 0.505 1.128 1.128v0c0 0.623-0.505 1.128-1.128 1.128v0z"></path>
<path d="M18.406 24h-17.273c-0.623 0-1.128-0.505-1.128-1.128v0c0-0.623 0.505-1.128 1.128-1.128v0h17.273c0.623 0 1.128 0.505 1.128 1.128v0c0 0.623-0.505 1.128-1.128 1.128v0z"></path>
</svg>
