<!-- Generated by IcoMoon.io -->
<svg version="1.1" xmlns="http://www.w3.org/2000/svg" width="24" height="24" viewBox="0 0 24 24">
<title>location</title>
<path d="M11.825 0c5.709 0.029 10.325 4.663 10.325 10.376 0 0.008 0 0.017-0 0.025v-0.001c0 7.052-8.080 14-10.325 14s-10.324-6.944-10.324-14c-0-0.007-0-0.016-0-0.024 0-5.712 4.616-10.346 10.321-10.376h0.003zM11.825 1.877c-4.672 0.030-8.447 3.824-8.447 8.5 0 0.008 0 0.016 0 0.024v-0.001c0 5.981 7.038 11.808 8.447 12.118 1.409-0.312 8.447-6.139 8.447-12.118 0-0.007 0-0.015 0-0.023 0-4.676-3.775-8.47-8.444-8.5l-0.003-0zM11.825 6.257c2.246 0 4.067 1.821 4.067 4.067s-1.821 4.067-4.067 4.067c-2.245 0-4.066-1.82-4.067-4.065v-0c0.002-2.246 1.822-4.067 4.068-4.069h0zM11.825 8.134c-1.209 0-2.19 0.981-2.19 2.19s0.981 2.19 2.19 2.19c1.209 0 2.189-0.98 2.19-2.189v-0c-0.002-1.208-0.981-2.188-2.189-2.19h-0z"></path>
</svg>
