<!-- Generated by IcoMoon.io -->
<svg version="1.1" xmlns="http://www.w3.org/2000/svg" width="24" height="24" viewBox="0 0 24 24">
<title>logout</title>
<path d="M4.163 3.699c0.766 0 1.388-0.621 1.388-1.388s-0.621-1.388-1.388-1.388v0h-2.778c-0.765 0-1.385 0.62-1.385 1.385v0 19.432c0 0.765 0.62 1.385 1.385 1.385v0h2.778c0.766 0 1.388-0.621 1.388-1.388s-0.621-1.388-1.388-1.388v0h-1.385v-16.65zM23.342 11.221l-3.914-5.551c-0.255-0.354-0.665-0.582-1.129-0.582-0.766 0-1.387 0.621-1.387 1.387 0 0.302 0.096 0.581 0.26 0.809l-0.003-0.004 2.387 3.358h-11.229c-0.766 0-1.388 0.621-1.388 1.388s0.621 1.388 1.388 1.388v0h11.102l-2.498 3.33c-0.173 0.229-0.276 0.518-0.276 0.831 0 0.766 0.621 1.386 1.386 1.386 0.453 0 0.854-0.217 1.107-0.552l0.003-0.004 4.163-5.551c0.176-0.23 0.282-0.521 0.282-0.838 0-0.3-0.095-0.577-0.257-0.804l0.003 0.004z"></path>
</svg>
