<!-- Generated by IcoMoon.io -->
<svg version="1.1" xmlns="http://www.w3.org/2000/svg" width="35" height="24" viewBox="0 0 35 24">
<title>lookups</title>
<path d="M17.34 24c-7.173 0-13.616-4.325-17.234-11.56-0.066-0.128-0.105-0.28-0.105-0.441s0.039-0.313 0.107-0.446l-0.003 0.006c3.618-7.233 10.061-11.552 17.234-11.558h0.010c7.174 0 13.617 4.325 17.234 11.558 0.068 0.128 0.107 0.28 0.107 0.441s-0.040 0.313-0.11 0.446l0.003-0.005c-3.616 7.235-10.061 11.552-17.234 11.56zM2.723 11.996c3.229 6.122 8.66 9.764 14.622 9.764s11.391-3.638 14.621-9.764c-1.646-3.216-4.071-5.829-7.034-7.654l-0.082-0.047c0.748 1.254 1.19 2.765 1.19 4.38 0 0.005 0 0.010 0 0.014v-0.001c0 4.802-3.893 8.695-8.695 8.695v0c-4.802 0-8.695-3.893-8.695-8.695v0c0-0.004 0-0.009 0-0.014 0-1.615 0.442-3.126 1.212-4.42l-0.022 0.040c-3.045 1.872-5.471 4.485-7.067 7.594l-0.050 0.107zM9.893 8.692c0.004 3.871 2.956 7.052 6.732 7.419l0.031 0.002v-8.643l-3.126 3.14c-0.125 0.126-0.297 0.204-0.488 0.204-0 0-0.001 0-0.001 0h0c-0.001 0-0.001 0-0.002 0-0.189 0-0.361-0.077-0.485-0.201l-0-0c-0.125-0.126-0.203-0.299-0.203-0.491 0-0.154 0.050-0.296 0.135-0.411l-0.001 0.002 0.006-0.009 0.061-0.068 4.308-4.326c0.034-0.034 0.071-0.065 0.112-0.091l0.003-0.002 0.039-0.022c0.010-0.006 0.021-0.012 0.032-0.017l0.001-0c0.014-0.008 0.031-0.015 0.048-0.021l0.003-0.001 0.041-0.016 0.050-0.014 0.037-0.007c0.016-0.003 0.035-0.006 0.054-0.007l0.002-0h0.135c0.023 0.002 0.044 0.004 0.064 0.008l-0.003-0.001 0.030 0.006c0.024 0.005 0.045 0.011 0.065 0.019l-0.004-0.001 0.030 0.011c0.024 0.009 0.044 0.018 0.063 0.029l-0.003-0.001 0.029 0.015 0.045 0.027 0.030 0.022h0.006c0.026 0.020 0.049 0.040 0.071 0.061l0.007 0.007 4.301 4.32c0.124 0.125 0.201 0.297 0.201 0.487 0 0 0 0.001 0 0.001v-0c0 0 0 0.001 0 0.001 0 0.191-0.078 0.364-0.204 0.488l-0 0c-0.125 0.124-0.297 0.201-0.487 0.201-0 0-0.001 0-0.001 0h0c-0.001 0-0.001 0-0.002 0-0.155 0-0.297-0.051-0.412-0.138l0.002 0.001-0.009-0.007-0.075-0.056-3.125-3.138v8.643c3.805-0.371 6.755-3.551 6.76-7.421v-0c0-0 0-0.001 0-0.002 0-2.232-0.983-4.235-2.54-5.598l-0.009-0.007c-1.46-0.539-3.146-0.852-4.905-0.852h-0c-1.759 0-3.444 0.313-5.005 0.884l0.101-0.032c-1.562 1.37-2.543 3.371-2.543 5.6 0 0.003 0 0.005 0 0.008v-0z"></path>
</svg>
