<!-- Generated by IcoMoon.io -->
<svg version="1.1" xmlns="http://www.w3.org/2000/svg" width="24" height="24" viewBox="0 0 24 24">
<title>maintenance</title>
<path d="M22.937 18.534c-0.548-0.547-1.293-0.896-2.119-0.933l-0.007-0-0.908-0.908c0.489-0.786 0.878-1.696 1.119-2.666l0.014-0.065h2.349v-4.54h-2.349c-0.254-1.035-0.644-1.945-1.156-2.772l0.023 0.041 1.662-1.662-3.21-3.21-1.662 1.662c-0.786-0.489-1.696-0.878-2.666-1.119l-0.065-0.014v-2.349h-4.539v2.349c-1.035 0.254-1.945 0.644-2.772 1.156l0.041-0.023-1.662-1.662-3.21 3.21 1.662 1.662c-0.489 0.786-0.878 1.696-1.119 2.666l-0.014 0.065h-2.349v4.539h2.349c0.254 1.035 0.644 1.945 1.156 2.772l-0.023-0.041-1.662 1.662 3.21 3.21 1.662-1.661c0.786 0.489 1.696 0.878 2.666 1.119l0.065 0.014v2.349h4.539v-2.349c1.035-0.254 1.945-0.644 2.772-1.156l-0.041 0.023 0.784 0.784c-0.001 0.035-0.002 0.075-0.002 0.116 0 1.766 1.432 3.198 3.198 3.198 0.436 0 0.852-0.087 1.231-0.246l-0.021 0.008 0.49-0.2-2.088-2.088 0.227-0.838 0.838-0.227 2.087 2.088 0.2-0.49c0.15-0.358 0.238-0.774 0.238-1.21 0-0.884-0.359-1.684-0.939-2.263l-0-0zM16.551 19.161c-0.862 0.571-1.872 1.004-2.955 1.238l-0.058 0.011-0.279 0.058v2.212h-3.134v-2.211l-0.279-0.058c-1.141-0.245-2.151-0.677-3.046-1.269l0.033 0.020-0.239-0.156-1.565 1.564-2.216-2.216 1.565-1.565-0.156-0.239c-0.571-0.862-1.004-1.872-1.238-2.955l-0.011-0.058-0.058-0.279h-2.213v-3.134h2.212l0.058-0.279c0.245-1.141 0.677-2.151 1.269-3.046l-0.020 0.033 0.156-0.239-1.564-1.565 2.216-2.216 1.565 1.565 0.239-0.156c0.862-0.571 1.872-1.004 2.955-1.238l0.058-0.011 0.279-0.058v-2.213h3.133v2.212l0.279 0.058c1.141 0.245 2.151 0.677 3.046 1.269l-0.033-0.020 0.239 0.156 1.565-1.565 2.216 2.216-1.565 1.565 0.156 0.239c0.571 0.862 1.004 1.872 1.238 2.955l0.011 0.058 0.058 0.279h2.212v3.135h-2.211l-0.058 0.279c-0.245 1.141-0.677 2.151-1.269 3.046l0.020-0.033-0.097 0.149-3.237-3.237c0.229-0.519 0.363-1.124 0.363-1.761 0-0.004 0-0.007-0-0.011v0.001c0-2.484-2.014-4.498-4.498-4.498s-4.498 2.014-4.498 4.498c0 2.484 2.014 4.498 4.498 4.498v0c0.003 0 0.007 0 0.012 0 0.634 0 1.237-0.133 1.783-0.371l-0.029 0.011 3.237 3.237zM14.299 9.656c-0.579-0.58-1.379-0.939-2.263-0.939-0.436 0-0.852 0.087-1.231 0.246l0.021-0.008-0.49 0.2 2.089 2.088-0.227 0.838-0.838 0.227-2.088-2.089-0.2 0.49c-0.15 0.358-0.237 0.773-0.237 1.209 0 1.768 1.433 3.201 3.201 3.201 0.229 0 0.453-0.024 0.668-0.070l-0.021 0.004 0.232 0.232c-0.364 0.128-0.783 0.201-1.219 0.201-2.094 0-3.792-1.698-3.792-3.792s1.698-3.792 3.792-3.792c2.094 0 3.792 1.698 3.792 3.792 0 0.438-0.074 0.859-0.211 1.251l0.008-0.027-0.16-0.16c0.070-0.25 0.11-0.537 0.11-0.834 0-0.886-0.357-1.688-0.936-2.27l0 0zM23.14 21.204l-1.581-1.58-1.62 0.439-0.439 1.62 1.58 1.58c-0.122 0.021-0.262 0.033-0.406 0.033-1.38 0-2.498-1.118-2.498-2.498 0-0.092 0.005-0.182 0.015-0.271l-0.001 0.011c0.003-0.029 0.006-0.057 0.010-0.086 0.002-0.015 0.004-0.029 0.006-0.043q0.010-0.062 0.022-0.123c0.002-0.010 0.004-0.020 0.007-0.030 0.009-0.044 0.020-0.086 0.032-0.128 0.002-0.007 0.004-0.015 0.006-0.021q0.017-0.061 0.038-0.121c0.193-0.397 0.43-0.738 0.711-1.037l-0.002 0.002-0.497-0.497c-0.234 0.241-0.441 0.51-0.614 0.801l-0.011 0.020-5.002-5.002-0.197 0.054c-0.199 0.057-0.427 0.090-0.663 0.090-1.38 0-2.499-1.119-2.499-2.499 0-0.143 0.012-0.284 0.035-0.42l-0.002 0.015 1.58 1.58 1.62-0.439 0.439-1.62-1.58-1.58c0.122-0.021 0.262-0.033 0.405-0.033 1.381 0 2.5 1.119 2.5 2.5 0 0.295-0.051 0.578-0.145 0.84l0.005-0.017-0.061 0.176c-0.133 0.237-0.286 0.442-0.461 0.624l0.001-0.001 0.497 0.497c0.168-0.172 0.319-0.362 0.45-0.567l0.008-0.014 4.985 4.985 0.197-0.054q0.081-0.022 0.162-0.039c0.010-0.002 0.019-0.004 0.029-0.005 0.017-0.003 0.035-0.007 0.052-0.010 0.015-0.002 0.029-0.005 0.044-0.007 0.012-0.002 0.025-0.004 0.037-0.006s0.029-0.003 0.043-0.005 0.027-0.003 0.040-0.005 0.020-0.002 0.030-0.003c0.018-0.002 0.036-0.003 0.053-0.005h0.008c0.049-0.003 0.107-0.005 0.165-0.005 1.38 0 2.498 1.118 2.498 2.498 0 0.143-0.012 0.284-0.035 0.42l0.002-0.015z"></path>
<path d="M14.852 15.138l-0.511-0.511 0.497-0.497 0.511 0.511-0.497 0.497z"></path>
<path d="M17.139 17.426l-1.675-1.675 0.497-0.497 1.675 1.675-0.497 0.497z"></path>
<path d="M13.418 17.92l0.189 0.677c0.346-0.097 0.634-0.2 0.913-0.321l-0.046 0.018-0.275-0.647c-0.21 0.093-0.47 0.186-0.737 0.262l-0.045 0.011z"></path>
<path d="M11.693 18.154c-3.544-0.004-6.415-2.877-6.415-6.422 0-0.383 0.033-0.757 0.098-1.121l-0.006 0.039-0.693-0.118c-0.065 0.361-0.102 0.777-0.102 1.201 0 3.933 3.186 7.121 7.118 7.124h0c0.231 0 0.464-0.011 0.692-0.033l-0.068-0.699c-0.206 0.020-0.417 0.030-0.625 0.030z"></path>
<path d="M7.255 7.106l-0.486-0.508c-0.199 0.191-0.385 0.391-0.559 0.601l-0.010 0.012 0.542 0.447c0.166-0.2 0.333-0.38 0.51-0.549l0.002-0.002z"></path>
<path d="M11.693 5.322c0.003 0 0.006 0 0.009 0 0.784 0 1.535 0.141 2.23 0.399l-0.044-0.014 0.24-0.66c-0.723-0.271-1.559-0.427-2.431-0.427-1.621 0-3.116 0.541-4.314 1.452l0.018-0.013 0.424 0.56c1.056-0.809 2.395-1.297 3.849-1.297 0.007 0 0.014 0 0.021 0h-0.001z"></path>
</svg>
