<!-- Generated by IcoMoon.io -->
<svg version="1.1" xmlns="http://www.w3.org/2000/svg" width="24" height="24" viewBox="0 0 24 24">
<title>mobile</title>
<path d="M17.38 24h-10.877c-0.026 0.001-0.056 0.002-0.086 0.002-1.161 0-2.108-0.915-2.159-2.063l-0-0.005v-19.869c0.052-1.153 0.999-2.067 2.159-2.067 0.030 0 0.060 0.001 0.090 0.002l-0.004-0h10.88c0.026-0.001 0.056-0.002 0.086-0.002 1.161 0 2.108 0.915 2.159 2.063l0 0.005v19.869c-0.052 1.153-0.999 2.067-2.159 2.067-0.031 0-0.062-0.001-0.093-0.002l0.004 0zM6.503 0.774c-0.024-0.001-0.053-0.002-0.081-0.002-0.735 0-1.336 0.568-1.39 1.289l-0 0.005v19.869c0.054 0.725 0.655 1.294 1.39 1.294 0.029 0 0.057-0.001 0.085-0.003l-0.004 0h10.88c0.024 0.002 0.052 0.002 0.081 0.002 0.735 0 1.336-0.568 1.39-1.289l0-0.005v-19.869c-0.054-0.725-0.655-1.294-1.39-1.294-0.029 0-0.057 0.001-0.085 0.003l0.004-0z"></path>
<path d="M14.137 2.057h-4.394c-0.214 0-0.387-0.173-0.387-0.387s0.173-0.387 0.387-0.387v0h4.394c0.214 0 0.387 0.173 0.387 0.387s-0.173 0.387-0.387 0.387v0z"></path>
<path d="M11.98 20.011c0.751 0 1.359 0.609 1.359 1.359s-0.609 1.359-1.359 1.359c-0.751 0-1.359-0.609-1.359-1.359v0c0.001-0.75 0.609-1.359 1.359-1.359h0zM11.98 21.955c0.323 0 0.585-0.262 0.585-0.585s-0.262-0.585-0.585-0.585c-0.323 0-0.585 0.262-0.585 0.585 0 0 0 0.001 0 0.001v-0c0 0.323 0.262 0.585 0.585 0.585 0 0 0 0 0 0v0z"></path>
<path d="M6.602 2.605h10.716c0.214 0 0.387 0.173 0.387 0.387v0 15.479c0 0.214-0.173 0.387-0.387 0.387v0h-10.716c-0.214 0-0.387-0.173-0.387-0.387v0-15.479c0-0.214 0.173-0.387 0.387-0.387v0zM16.931 3.379h-9.942v14.705h9.942z"></path>
</svg>
