<!-- Generated by IcoMoon.io -->
<svg version="1.1" xmlns="http://www.w3.org/2000/svg" width="24" height="24" viewBox="0 0 24 24">
<title>moon</title>
<path d="M12 21q-3.75 0-6.375-2.625t-2.625-6.375 2.625-6.375 6.375-2.625q0.25 0 0.513 0.017t0.604 0.050q-0.942 0.775-1.479 1.946t-0.537 2.487q0 2.25 1.575 3.825t3.825 1.575q1.325 0 2.492-0.513t1.942-1.404q0.033 0.308 0.050 0.546t0.017 0.471q0 3.75-2.625 6.375t-6.375 2.625zM12 19.333q2.55 0 4.483-1.529t2.533-3.696q-0.583 0.225-1.228 0.342t-1.289 0.117q-2.936 0-5.002-2.065t-2.065-5.002q0-0.567 0.108-1.192t0.367-1.375q-2.283 0.717-3.763 2.675t-1.479 4.392q0 3.050 2.142 5.192t5.192 2.142z"></path>
</svg>
