<!-- Generated by IcoMoon.io -->
<svg version="1.1" xmlns="http://www.w3.org/2000/svg" width="24" height="24" viewBox="0 0 24 24">
<title>newsletter</title>
<path d="M2.101 4.063c-0.573 0.001-1.037 0.465-1.038 1.038v13.644c0.001 0.573 0.465 1.037 1.038 1.038h19.576c0.573-0.001 1.037-0.465 1.038-1.038v-13.644c-0.001-0.573-0.465-1.037-1.038-1.038h-19.576zM2.101 3.321h19.576c0.983 0 1.779 0.797 1.779 1.779v0 13.644c0 0.983-0.797 1.779-1.779 1.779v0h-19.576c-0.983 0-1.779-0.797-1.779-1.779v0-13.644c0-0.983 0.797-1.779 1.779-1.779v0z"></path>
<path d="M2.101 3h19.576c1.16 0.001 2.099 0.941 2.101 2.101v13.644c-0.001 1.16-0.941 2.099-2.101 2.101h-19.576c-1.16-0.001-2.099-0.941-2.101-2.101v-13.644c0.001-1.16 0.941-2.099 2.101-2.101h0zM21.677 20.207c0.805 0 1.457-0.652 1.457-1.457v0-13.649c0-0.805-0.652-1.457-1.457-1.457v0h-19.576c-0.805 0-1.457 0.652-1.457 1.457v0 13.644c0 0.805 0.652 1.457 1.457 1.457v0zM2.101 3.741h19.576c0.75 0.001 1.358 0.609 1.359 1.359v13.644c-0.001 0.75-0.609 1.358-1.359 1.359h-19.576c-0.75-0.001-1.358-0.609-1.359-1.359v-13.644c0.001-0.75 0.609-1.358 1.359-1.359h0zM21.677 19.461c0.396-0 0.716-0.321 0.717-0.717v-13.644c-0-0.396-0.321-0.716-0.717-0.717h-19.576c-0.396 0-0.716 0.321-0.717 0.717v13.644c0 0.396 0.321 0.716 0.717 0.717h0z"></path>
<path d="M17.006 7.103c-0.082 0-0.148 0.066-0.148 0.148v0 3.56c0 0.082 0.066 0.148 0.148 0.148v0h2.67c0.082 0 0.148-0.066 0.148-0.148v0-3.56c0-0.082-0.066-0.148-0.148-0.148v0h-2.67zM17.006 6.362h2.67c0.491 0 0.89 0.398 0.89 0.89v0 3.56c0 0.491-0.398 0.89-0.89 0.89v0h-2.67c-0.491 0-0.89-0.398-0.89-0.89v0-3.56c0-0.491 0.398-0.89 0.89-0.89v0z"></path>
<path d="M17.006 6.040h2.67c0.669 0.001 1.21 0.543 1.211 1.211v3.56c-0.003 0.667-0.544 1.207-1.211 1.208h-2.67c-0.667-0.001-1.208-0.541-1.211-1.207v-3.56c0.001-0.669 0.543-1.21 1.211-1.211h0zM19.676 11.379c0.314-0 0.568-0.255 0.568-0.568v-3.56c-0-0.314-0.255-0.568-0.568-0.568h-2.67c-0.314 0-0.568 0.255-0.568 0.568v3.56c0 0.314 0.255 0.568 0.568 0.568h0zM17.006 6.782h2.67c0.259 0 0.469 0.21 0.47 0.47v3.56c-0 0.259-0.21 0.469-0.47 0.47h-2.67c-0.259-0-0.469-0.21-0.47-0.47v-3.56c0-0.259 0.21-0.469 0.47-0.47h0zM19.502 7.425h-2.323v3.213h2.323z"></path>
<path d="M7.403 14.778h-4.078c0 0 0 0 0 0-0.205 0-0.371-0.166-0.371-0.37v-0c0-0.205 0.166-0.371 0.371-0.371v0h4.078c0.205 0 0.371 0.166 0.371 0.371v0c-0 0.205-0.166 0.37-0.371 0.37 0 0 0 0 0 0v0z"></path>
<path d="M7.403 15.099h-4.078c-0.382 0-0.693-0.31-0.693-0.693v0c0-0.383 0.31-0.693 0.693-0.693v0h4.078c0 0 0.001 0 0.001 0 0.383 0 0.693 0.31 0.693 0.693 0 0 0 0.001 0 0.001v-0c-0 0.382-0.31 0.692-0.693 0.692-0 0-0.001 0-0.001 0h0zM3.325 14.358c-0.027 0-0.050 0.022-0.050 0.050v0c0 0.027 0.022 0.050 0.050 0.050v0h4.078c0.027 0 0.050-0.022 0.050-0.050v0c0-0.027-0.022-0.050-0.050-0.050v0z"></path>
<path d="M11.481 17.817h-8.157c0 0 0 0 0 0-0.205 0-0.371-0.166-0.371-0.37v-0c0-0.205 0.166-0.371 0.371-0.371v0h8.157c0.205 0 0.371 0.166 0.371 0.371v0c-0 0.205-0.166 0.37-0.371 0.37 0 0 0 0 0 0v0z"></path>
<path d="M11.481 18.139h-8.157c-0.382 0-0.693-0.31-0.693-0.693v0c0-0.383 0.31-0.693 0.693-0.693v0h8.157c0.383 0 0.693 0.31 0.693 0.693v0c0 0.383-0.31 0.693-0.693 0.693v0zM3.325 17.397c-0.027 0-0.050 0.022-0.050 0.050v0c0 0.027 0.022 0.050 0.050 0.050v0h8.157c0.027 0 0.050-0.022 0.050-0.050v0c0-0.027-0.022-0.050-0.050-0.050v0z"></path>
</svg>
