<!-- Generated by IcoMoon.io -->
<svg version="1.1" xmlns="http://www.w3.org/2000/svg" width="24" height="24" viewBox="0 0 24 24">
<title>notifications</title>
<path d="M9.907 21.526c0.512 0.603 1.264 0.988 2.107 1.007l0.003 0c0.849-0.018 1.604-0.404 2.114-1.004l0.003-0.004c0.155-0.172 0.38-0.28 0.629-0.28 0.467 0 0.846 0.379 0.846 0.846 0 0.218-0.082 0.416-0.217 0.566l0.001-0.001c-0.824 0.95-2.027 1.552-3.371 1.567l-0.003 0c-1.344-0.017-2.544-0.619-3.36-1.563l-0.005-0.006c-0.119-0.144-0.192-0.331-0.192-0.535 0-0.466 0.378-0.844 0.844-0.844 0.235 0 0.447 0.096 0.6 0.251l0 0zM12.074 0c5.008 0 8.368 3.9 8.368 7.543-0.004 0.084-0.007 0.183-0.007 0.282 0 1.205 0.37 2.323 1.002 3.248l-0.013-0.020c0.668 0.966 1.068 2.163 1.068 3.453 0 0.037-0 0.074-0.001 0.111l0-0.006c-0.393 4.559-5.153 4.932-10.421 4.932s-10.025-0.371-10.414-4.858c-0.001-0.049-0.002-0.108-0.002-0.166 0-1.294 0.398-2.495 1.079-3.487l-0.014 0.021 0.178-0.295c0.511-0.833 0.814-1.842 0.814-2.921 0-0.103-0.003-0.205-0.008-0.306l0.001 0.014c-0.002-3.645 3.362-7.545 8.371-7.545zM12.074 1.69c-3.938 0-6.682 3.084-6.682 5.853 0.004 0.092 0.007 0.201 0.007 0.309 0 1.517-0.46 2.927-1.248 4.097l0.017-0.026c-0.518 0.719-0.829 1.617-0.829 2.588 0 0.036 0 0.072 0.001 0.108l-0-0.005c0.188 2.125 1.591 3.242 8.731 3.242 7.102 0 8.548-1.166 8.735-3.314 0-0.013 0-0.029 0-0.045 0-0.966-0.31-1.859-0.837-2.585l0.009 0.013c-0.771-1.144-1.231-2.554-1.231-4.071 0-0.109 0.002-0.217 0.007-0.325l-0.001 0.015c0.002-2.769-2.743-5.854-6.679-5.854z"></path>
</svg>
