<!-- Generated by IcoMoon.io -->
<svg version="1.1" xmlns="http://www.w3.org/2000/svg" width="35" height="32" viewBox="0 0 35 32">
<title>operations</title>
<path d="M9.788 17.003c-2.876 0-5.208 2.332-5.208 5.208s2.332 5.208 5.208 5.208c2.876 0 5.208-2.332 5.208-5.208v0c-0.004-2.875-2.333-5.204-5.208-5.208h-0zM9.788 26.339c-2.28 0-4.128-1.848-4.128-4.128s1.848-4.128 4.128-4.128c2.28 0 4.128 1.848 4.128 4.128v0c-0.003 2.279-1.849 4.125-4.128 4.128h-0zM19.076 20.476l-1.247-0.48c-0.202-0.725-0.472-1.358-0.811-1.945l0.021 0.040 0.543-1.221c0.029-0.064 0.046-0.139 0.046-0.219 0-0.149-0.061-0.284-0.158-0.382l-1.741-1.741c-0.098-0.098-0.233-0.158-0.382-0.158-0.079 0-0.154 0.017-0.222 0.048l0.003-0.001-1.223 0.543c-0.547-0.318-1.179-0.587-1.845-0.776l-0.058-0.014-0.48-1.247c-0.080-0.204-0.275-0.345-0.503-0.345h-2.468c-0.228 0-0.423 0.142-0.502 0.342l-0.001 0.004-0.48 1.247c-0.725 0.202-1.357 0.472-1.944 0.811l0.040-0.021-1.223-0.543c-0.065-0.030-0.14-0.047-0.22-0.047-0.149 0-0.284 0.060-0.381 0.158v0l-1.734 1.742c-0.097 0.098-0.158 0.233-0.158 0.381 0 0.079 0.017 0.155 0.048 0.223l-0.001-0.003 0.543 1.223c-0.318 0.547-0.587 1.179-0.776 1.845l-0.014 0.058-1.249 0.48c-0.204 0.080-0.345 0.275-0.345 0.503v2.468c0 0.228 0.142 0.423 0.342 0.502l0.004 0.001 1.247 0.48c0.202 0.725 0.472 1.358 0.811 1.945l-0.021-0.040-0.543 1.221c-0.029 0.065-0.047 0.14-0.047 0.219 0 0.149 0.060 0.284 0.158 0.381v0l1.741 1.736c0.098 0.098 0.233 0.158 0.382 0.158 0.079 0 0.154-0.017 0.222-0.048l-0.003 0.001 1.223-0.543c0.547 0.318 1.179 0.587 1.845 0.776l0.058 0.014 0.477 1.245c0.080 0.204 0.275 0.345 0.503 0.345h2.468c0.228-0 0.423-0.142 0.502-0.342l0.001-0.004 0.474-1.246c0.725-0.202 1.358-0.471 1.945-0.811l-0.040 0.021 1.221 0.543c0.065 0.029 0.14 0.047 0.219 0.047 0.149 0 0.284-0.060 0.381-0.158v0l1.741-1.741c0.097-0.098 0.158-0.233 0.158-0.381 0-0.079-0.017-0.155-0.048-0.223l0.001 0.003-0.543-1.223c0.318-0.547 0.587-1.179 0.776-1.845l0.014-0.058 1.247-0.48c0.204-0.080 0.345-0.275 0.345-0.503v-2.468c-0.002-0.225-0.141-0.418-0.338-0.497l-0.004-0.001zM18.342 23.067l-1.161 0.447c-0.165 0.065-0.288 0.204-0.33 0.375l-0.001 0.004c-0.194 0.801-0.496 1.507-0.895 2.145l0.018-0.030c-0.050 0.080-0.080 0.178-0.080 0.283 0 0.079 0.017 0.155 0.048 0.223l-0.001-0.003 0.506 1.138-1.217 1.217-1.138-0.506c-0.065-0.029-0.14-0.047-0.219-0.047-0.105 0-0.202 0.030-0.285 0.081l0.002-0.001c-0.608 0.381-1.314 0.683-2.065 0.867l-0.049 0.010c-0.175 0.043-0.314 0.167-0.377 0.328l-0.001 0.004-0.447 1.161h-1.721l-0.447-1.161c-0.065-0.165-0.204-0.288-0.375-0.33l-0.004-0.001c-0.801-0.194-1.507-0.496-2.145-0.895l0.030 0.018c-0.080-0.050-0.178-0.080-0.283-0.080-0.079 0-0.155 0.017-0.223 0.048l0.003-0.001-1.138 0.506-1.217-1.217 0.505-1.138c0.029-0.065 0.047-0.14 0.047-0.219 0-0.105-0.030-0.202-0.081-0.285l0.001 0.002c-0.381-0.608-0.683-1.314-0.867-2.065l-0.010-0.049c-0.042-0.175-0.166-0.314-0.327-0.378l-0.004-0.001-1.161-0.444v-1.72l1.161-0.447c0.165-0.065 0.288-0.204 0.33-0.375l0.001-0.004c0.194-0.801 0.495-1.507 0.894-2.145l-0.018 0.030c0.050-0.080 0.080-0.178 0.080-0.283 0-0.079-0.017-0.155-0.048-0.223l0.001 0.003-0.506-1.138 1.217-1.217 1.138 0.506c0.065 0.029 0.14 0.047 0.22 0.047 0.105 0 0.202-0.030 0.285-0.081l-0.002 0.001c0.608-0.381 1.314-0.683 2.065-0.867l0.049-0.010c0.175-0.043 0.314-0.167 0.377-0.328l0.001-0.004 0.447-1.161h1.722l0.447 1.161c0.065 0.165 0.204 0.288 0.375 0.33l0.004 0.001c0.801 0.194 1.507 0.496 2.145 0.895l-0.030-0.018c0.080 0.050 0.178 0.080 0.283 0.080 0.079 0 0.155-0.017 0.223-0.048l-0.003 0.001 1.138-0.506 1.217 1.217-0.506 1.138c-0.029 0.065-0.047 0.14-0.047 0.219 0 0.105 0.030 0.202 0.081 0.285l-0.001-0.002c0.381 0.608 0.683 1.314 0.867 2.065l0.010 0.049c0.042 0.175 0.166 0.314 0.327 0.378l0.004 0.001 1.161 0.447v1.721zM34.359 18.35l-0.74-0.285c-0.128-0.434-0.288-0.811-0.485-1.164l0.015 0.029 0.318-0.724c0.029-0.064 0.046-0.139 0.046-0.219 0-0.149-0.061-0.284-0.158-0.382l-1.154-1.154c-0.098-0.098-0.232-0.158-0.381-0.158-0.080 0-0.155 0.017-0.223 0.048l0.003-0.001-0.727 0.323c-0.324-0.182-0.701-0.342-1.095-0.46l-0.040-0.010-0.286-0.74c-0.080-0.204-0.275-0.345-0.503-0.345h-1.629c-0.228 0-0.423 0.142-0.502 0.342l-0.001 0.004-0.286 0.74c-0.435 0.129-0.811 0.288-1.164 0.485l0.029-0.015-0.727-0.323c-0.064-0.029-0.139-0.046-0.219-0.046-0.149 0-0.284 0.061-0.382 0.158l-1.154 1.154c-0.097 0.098-0.158 0.233-0.158 0.381 0 0.079 0.017 0.155 0.048 0.223l-0.001-0.003 0.323 0.727c-0.182 0.324-0.342 0.701-0.46 1.095l-0.010 0.040-0.74 0.285c-0.204 0.080-0.345 0.275-0.345 0.503v1.632c0 0.228 0.142 0.423 0.342 0.502l0.004 0.001 0.74 0.285c0.128 0.434 0.288 0.811 0.485 1.164l-0.015-0.029-0.323 0.727c-0.029 0.065-0.047 0.14-0.047 0.219 0 0.149 0.060 0.284 0.158 0.381v0l1.154 1.154c0.098 0.098 0.232 0.158 0.381 0.158 0.080 0 0.155-0.017 0.223-0.048l-0.003 0.001 0.727-0.323c0.324 0.182 0.701 0.342 1.095 0.46l0.040 0.010 0.285 0.74c0.080 0.204 0.275 0.345 0.503 0.345h1.632c0.228-0 0.423-0.142 0.502-0.342l0.001-0.004 0.285-0.74c0.434-0.128 0.811-0.288 1.164-0.485l-0.029 0.015 0.727 0.323c0.065 0.030 0.14 0.047 0.22 0.047 0.149 0 0.284-0.060 0.381-0.158l1.154-1.154c0.097-0.098 0.158-0.233 0.158-0.381 0-0.079-0.017-0.155-0.048-0.223l0.001 0.003-0.323-0.727c0.182-0.324 0.342-0.701 0.46-1.095l0.010-0.040 0.74-0.286c0.204-0.080 0.345-0.275 0.345-0.503v-1.631c0-0 0-0 0-0 0-0.228-0.142-0.423-0.342-0.502l-0.004-0.001zM33.625 20.116l-0.653 0.247c-0.165 0.065-0.288 0.204-0.33 0.375l-0.001 0.004c-0.124 0.511-0.316 0.961-0.57 1.368l0.011-0.019c-0.050 0.080-0.080 0.178-0.080 0.283 0 0.079 0.017 0.155 0.048 0.223l-0.001-0.003 0.285 0.64-0.629 0.629-0.64-0.284c-0.065-0.029-0.14-0.047-0.22-0.047-0.105 0-0.202 0.030-0.285 0.081l0.002-0.001c-0.388 0.243-0.838 0.435-1.317 0.552l-0.032 0.006c-0.175 0.043-0.314 0.166-0.378 0.327l-0.001 0.004-0.247 0.653h-0.891l-0.247-0.653c-0.065-0.165-0.204-0.289-0.375-0.331l-0.004-0.001c-0.511-0.124-0.961-0.316-1.368-0.57l0.019 0.011c-0.080-0.050-0.178-0.080-0.283-0.080-0.079 0-0.155 0.017-0.223 0.048l0.003-0.001-0.64 0.284-0.629-0.629 0.284-0.64c0.029-0.065 0.047-0.14 0.047-0.219 0-0.105-0.030-0.202-0.081-0.285l0.001 0.002c-0.243-0.388-0.435-0.838-0.552-1.317l-0.006-0.032c-0.042-0.175-0.166-0.314-0.327-0.378l-0.004-0.001-0.653-0.247v-0.891l0.653-0.247c0.165-0.065 0.288-0.204 0.33-0.375l0.001-0.004c0.124-0.511 0.316-0.961 0.57-1.368l-0.011 0.019c0.050-0.080 0.080-0.178 0.080-0.283 0-0.079-0.017-0.155-0.048-0.223l0.001 0.003-0.284-0.64 0.629-0.629 0.64 0.284c0.065 0.029 0.14 0.047 0.219 0.047 0.105 0 0.202-0.030 0.285-0.081l-0.002 0.001c0.388-0.243 0.838-0.435 1.317-0.552l0.032-0.007c0.175-0.043 0.314-0.167 0.378-0.328l0.001-0.004 0.247-0.653h0.891l0.247 0.653c0.065 0.165 0.204 0.289 0.375 0.331l0.004 0.001c0.511 0.124 0.961 0.316 1.368 0.57l-0.019-0.011c0.080 0.050 0.178 0.080 0.283 0.080 0.079 0 0.155-0.017 0.223-0.048l-0.003 0.001 0.64-0.285 0.629 0.629-0.284 0.64c-0.029 0.065-0.047 0.14-0.047 0.219 0 0.105 0.030 0.202 0.081 0.285l-0.001-0.002c0.243 0.388 0.435 0.838 0.552 1.317l0.007 0.032c0.043 0.175 0.167 0.314 0.328 0.378l0.004 0.001 0.653 0.247v0.891zM28.137 16.287c-1.87 0-3.386 1.516-3.386 3.386s1.516 3.386 3.386 3.386c1.87 0 3.386-1.516 3.386-3.386v0c-0.002-1.869-1.517-3.383-3.385-3.386h-0zM28.137 21.98c-1.274 0-2.306-1.032-2.306-2.306s1.032-2.306 2.306-2.306c1.274 0 2.306 1.032 2.306 2.306v0c-0.001 1.273-1.033 2.305-2.306 2.306h-0zM19.949 3.337c-1.87 0-3.386 1.516-3.386 3.386s1.516 3.386 3.386 3.386c1.87 0 3.386-1.516 3.386-3.386v0c-0.002-1.869-1.517-3.383-3.385-3.386h-0zM19.949 9.030c-1.274 0-2.306-1.032-2.306-2.306s1.032-2.306 2.306-2.306c1.274 0 2.306 1.032 2.306 2.306v0c-0.002 1.272-1.033 2.303-2.306 2.305h-0zM23.416 12.058c0.065 0.029 0.14 0.047 0.219 0.047 0.149 0 0.284-0.060 0.381-0.158v0l1.154-1.154c0.097-0.098 0.158-0.233 0.158-0.381 0-0.079-0.017-0.155-0.048-0.223l0.001 0.003-0.323-0.727c0.182-0.324 0.342-0.701 0.46-1.095l0.010-0.040 0.74-0.286c0.204-0.080 0.345-0.275 0.345-0.503v-1.634c-0-0.228-0.142-0.423-0.342-0.502l-0.004-0.001-0.74-0.285c-0.128-0.434-0.288-0.811-0.485-1.164l0.015 0.029 0.323-0.727c0.029-0.064 0.046-0.139 0.046-0.219 0-0.149-0.061-0.284-0.158-0.382l-1.154-1.154c-0.098-0.098-0.233-0.158-0.382-0.158-0.079 0-0.154 0.017-0.222 0.048l0.003-0.001-0.727 0.323c-0.324-0.182-0.701-0.342-1.095-0.46l-0.040-0.010-0.285-0.74c-0.080-0.204-0.275-0.345-0.503-0.345h-1.631c-0.228 0-0.423 0.142-0.502 0.342l-0.001 0.004-0.285 0.74c-0.435 0.129-0.811 0.288-1.164 0.485l0.029-0.015-0.727-0.323c-0.064-0.029-0.139-0.046-0.219-0.046-0.149 0-0.284 0.061-0.382 0.158l-1.154 1.154c-0.097 0.098-0.158 0.233-0.158 0.381 0 0.079 0.017 0.155 0.048 0.223l-0.001-0.003 0.323 0.727c-0.182 0.324-0.342 0.701-0.46 1.095l-0.010 0.040-0.74 0.285c-0.204 0.080-0.345 0.275-0.345 0.503v1.632c0 0.228 0.142 0.423 0.342 0.502l0.004 0.001 0.74 0.285c0.128 0.434 0.288 0.811 0.485 1.164l-0.015-0.029-0.323 0.727c-0.029 0.065-0.047 0.14-0.047 0.219 0 0.149 0.060 0.284 0.158 0.381v0l1.154 1.154c0.098 0.098 0.232 0.158 0.381 0.158 0.080 0 0.155-0.017 0.223-0.048l-0.003 0.001 0.727-0.323c0.324 0.182 0.701 0.342 1.095 0.46l0.040 0.010 0.285 0.74c0.080 0.204 0.275 0.345 0.503 0.345h1.632c0.228-0 0.423-0.142 0.502-0.342l0.001-0.004 0.285-0.74c0.434-0.128 0.811-0.288 1.164-0.485l-0.029 0.015zM22.374 10.67c-0.388 0.243-0.838 0.435-1.317 0.552l-0.032 0.007c-0.175 0.043-0.314 0.166-0.378 0.327l-0.001 0.004-0.247 0.653h-0.891l-0.247-0.653c-0.065-0.165-0.204-0.289-0.375-0.331l-0.004-0.001c-0.511-0.124-0.961-0.316-1.368-0.57l0.019 0.011c-0.080-0.050-0.178-0.080-0.283-0.080-0.079 0-0.155 0.017-0.223 0.048l0.003-0.001-0.64 0.284-0.629-0.629 0.284-0.64c0.029-0.065 0.047-0.14 0.047-0.219 0-0.105-0.030-0.202-0.081-0.285l0.001 0.002c-0.243-0.388-0.435-0.838-0.552-1.317l-0.007-0.032c-0.042-0.175-0.166-0.314-0.327-0.378l-0.004-0.001-0.653-0.247v-0.891l0.653-0.247c0.165-0.065 0.288-0.204 0.33-0.375l0.001-0.004c0.124-0.511 0.316-0.961 0.57-1.368l-0.011 0.019c0.050-0.080 0.080-0.178 0.080-0.283 0-0.079-0.017-0.155-0.048-0.223l0.001 0.003-0.284-0.64 0.629-0.629 0.64 0.284c0.065 0.029 0.14 0.047 0.219 0.047 0.105 0 0.202-0.030 0.285-0.081l-0.002 0.001c0.388-0.243 0.838-0.435 1.317-0.552l0.032-0.006c0.175-0.043 0.314-0.166 0.378-0.327l0.001-0.004 0.247-0.653h0.88l0.247 0.653c0.065 0.165 0.204 0.288 0.375 0.33l0.004 0.001c0.511 0.124 0.961 0.316 1.368 0.57l-0.019-0.011c0.080 0.050 0.178 0.080 0.283 0.080 0.079 0 0.155-0.017 0.223-0.048l-0.003 0.001 0.64-0.285 0.629 0.629-0.284 0.64c-0.029 0.065-0.047 0.14-0.047 0.219 0 0.105 0.030 0.202 0.081 0.285l-0.001-0.002c0.243 0.388 0.435 0.838 0.552 1.317l0.006 0.031c0.043 0.175 0.167 0.314 0.328 0.378l0.004 0.001 0.653 0.247v0.891l-0.653 0.247c-0.165 0.065-0.288 0.204-0.33 0.375l-0.001 0.004c-0.124 0.511-0.316 0.961-0.57 1.368l0.011-0.019c-0.050 0.080-0.080 0.178-0.080 0.283 0 0.079 0.017 0.155 0.048 0.223l-0.001-0.003 0.285 0.64-0.629 0.629-0.64-0.284c-0.065-0.029-0.14-0.047-0.219-0.047-0.105 0-0.202 0.030-0.285 0.081l0.002-0.001zM0.685 12.262c-0.079-0.093-0.127-0.215-0.127-0.349 0-0.165 0.074-0.313 0.191-0.412l0.001-0.001c1.945-1.648 4.375-2.782 7.048-3.163l0.075-0.009-1.141-0.606c-0.16-0.096-0.265-0.268-0.265-0.465 0-0.298 0.242-0.54 0.54-0.54 0.084 0 0.163 0.019 0.233 0.053l-0.003-0.001 2.806 1.49c0.171 0.093 0.286 0.271 0.286 0.477 0 0.166-0.075 0.314-0.192 0.413l-0.001 0.001-2.207 1.842c-0.090 0.070-0.205 0.113-0.331 0.113-0.298 0-0.54-0.242-0.54-0.54 0-0.159 0.069-0.302 0.178-0.401l0-0 0.939-0.787c-2.596 0.335-4.899 1.393-6.753 2.964l0.019-0.016c-0.093 0.079-0.215 0.127-0.349 0.127-0.165 0-0.313-0.074-0.412-0.191l-0.001-0.001zM27.335 4.876l0.601-2.811c0.054-0.245 0.27-0.426 0.528-0.426 0.113 0 0.218 0.035 0.305 0.094l-0.002-0.001 2.627 1.787c0.134 0.1 0.22 0.257 0.22 0.435 0 0.298-0.242 0.54-0.54 0.54-0.106 0-0.205-0.031-0.289-0.083l0.002 0.001-1.119-0.761c0.299 0.917 0.471 1.972 0.471 3.068 0 1.469-0.309 2.865-0.867 4.128l0.026-0.065c-0.093 0.17-0.271 0.283-0.475 0.283-0.298 0-0.54-0.242-0.54-0.54 0-0.062 0.010-0.121 0.030-0.177l-0.001 0.004c0.475-1.070 0.751-2.318 0.751-3.63 0-0.985-0.155-1.933-0.443-2.822l0.018 0.065-0.247 1.139c-0.062 0.236-0.273 0.407-0.524 0.407-0.298 0-0.54-0.242-0.54-0.54 0-0.033 0.003-0.065 0.008-0.096l-0 0.003zM34.165 27.578c0.042 0.075 0.066 0.164 0.066 0.259 0 0.090-0.022 0.176-0.062 0.251l0.001-0.003-1.458 2.822c-0.085 0.194-0.275 0.327-0.496 0.327-0.298 0-0.54-0.242-0.54-0.54 0-0.103 0.029-0.2 0.079-0.282l-0.001 0.002 0.605-1.168c-1.236 0.589-2.687 0.932-4.217 0.932-2.016 0-3.893-0.596-5.463-1.622l0.038 0.023c-0.159-0.096-0.264-0.268-0.264-0.465 0-0.298 0.242-0.54 0.54-0.54 0.116 0 0.223 0.036 0.311 0.098l-0.002-0.001c1.369 0.892 3.044 1.423 4.843 1.423 1.396 0 2.718-0.32 3.896-0.89l-0.053 0.023-1.204-0.109c-0.284-0.017-0.509-0.252-0.509-0.539 0-0.298 0.242-0.54 0.54-0.54 0.023 0 0.046 0.001 0.068 0.004l-0.003-0 2.862 0.259c0.183 0.020 0.337 0.128 0.419 0.28l0.001 0.003z"></path>
<path d="M11.019 31.999h-2.468c-0.293-0.001-0.544-0.183-0.646-0.439l-0.002-0.005-0.453-1.175c-0.686-0.196-1.282-0.449-1.839-0.762l0.042 0.022-1.145 0.501c-0.083 0.038-0.18 0.060-0.282 0.060-0.191 0-0.365-0.078-0.49-0.203v0l-1.741-1.736c-0.125-0.126-0.202-0.3-0.202-0.491 0-0.102 0.022-0.198 0.061-0.285l-0.002 0.004 0.511-1.151c-0.292-0.515-0.544-1.111-0.725-1.737l-0.015-0.060-1.18-0.447c-0.261-0.104-0.443-0.355-0.444-0.648v-2.468c0.001-0.293 0.183-0.544 0.441-0.646l0.005-0.002 1.175-0.452c0.196-0.686 0.449-1.282 0.762-1.839l-0.022 0.042-0.511-1.151c-0.037-0.083-0.059-0.179-0.059-0.281 0-0.192 0.077-0.365 0.202-0.491l1.74-1.741c0.125-0.125 0.299-0.203 0.49-0.203 0.102 0 0.199 0.022 0.286 0.062l-0.004-0.002 1.151 0.511c0.515-0.292 1.111-0.544 1.737-0.725l0.060-0.015 0.453-1.175c0.104-0.261 0.355-0.443 0.648-0.444h2.468c0.293 0.001 0.544 0.183 0.646 0.439l0.002 0.005 0.453 1.175c0.686 0.196 1.282 0.449 1.839 0.762l-0.042-0.022 1.151-0.511c0.083-0.038 0.18-0.060 0.282-0.060 0.191 0 0.365 0.078 0.49 0.203l1.741 1.741c0.125 0.126 0.202 0.3 0.202 0.491 0 0.102-0.022 0.198-0.061 0.285l0.002-0.004-0.511 1.151c0.292 0.515 0.544 1.111 0.725 1.737l0.015 0.060 1.175 0.452c0.261 0.104 0.443 0.355 0.444 0.648v2.462c-0.001 0.293-0.183 0.544-0.439 0.646l-0.005 0.002-1.175 0.453c-0.196 0.686-0.449 1.282-0.762 1.839l0.022-0.042 0.512 1.151c0.037 0.083 0.059 0.179 0.059 0.281 0 0.192-0.077 0.365-0.202 0.491l-1.741 1.741c-0.126 0.125-0.299 0.203-0.491 0.203-0.102 0-0.199-0.022-0.286-0.061l0.004 0.002-1.151-0.511c-0.515 0.292-1.111 0.544-1.737 0.725l-0.060 0.015-0.452 1.175c-0.103 0.265-0.356 0.449-0.651 0.449h-0zM5.678 29.284l0.068 0.038c0.537 0.312 1.158 0.576 1.812 0.761l0.057 0.014 0.075 0.021 0.508 1.32c0.058 0.145 0.197 0.246 0.36 0.247h2.468c0.163-0 0.302-0.101 0.359-0.244l0.001-0.003 0.508-1.319 0.075-0.021c0.712-0.198 1.332-0.463 1.908-0.796l-0.039 0.021 0.068-0.038 1.293 0.574c0.046 0.021 0.1 0.033 0.156 0.033 0.107 0 0.203-0.043 0.273-0.113v0l1.732-1.736c0.070-0.070 0.113-0.167 0.113-0.273 0-0.056-0.012-0.11-0.034-0.158l0.001 0.002-0.575-1.298 0.038-0.068c0.312-0.537 0.576-1.158 0.761-1.812l0.014-0.057 0.021-0.075 1.32-0.508c0.145-0.058 0.246-0.197 0.247-0.36v-2.468c-0-0.163-0.101-0.302-0.244-0.359l-0.003-0.001-1.319-0.508-0.021-0.075c-0.198-0.712-0.463-1.332-0.796-1.908l0.021 0.039-0.038-0.068 0.574-1.293c0.021-0.046 0.033-0.099 0.033-0.156 0-0.107-0.043-0.203-0.113-0.273v0l-1.741-1.741c-0.070-0.070-0.166-0.113-0.273-0.113-0.057 0-0.11 0.012-0.159 0.034l0.002-0.001-1.293 0.575-0.068-0.038c-0.537-0.312-1.158-0.576-1.812-0.761l-0.057-0.014-0.075-0.021-0.505-1.305c-0.058-0.145-0.197-0.246-0.36-0.247h-2.468c-0.163 0-0.302 0.101-0.359 0.244l-0.001 0.003-0.508 1.32-0.075 0.021c-0.712 0.198-1.332 0.463-1.908 0.796l0.039-0.021-0.068 0.038-1.288-0.575c-0.046-0.021-0.1-0.033-0.156-0.033-0.107 0-0.203 0.043-0.273 0.113v0l-1.741 1.74c-0.070 0.070-0.113 0.167-0.113 0.273 0 0.056 0.012 0.11 0.034 0.158l-0.001-0.002 0.575 1.293-0.038 0.073c-0.312 0.537-0.576 1.158-0.761 1.812l-0.014 0.057-0.021 0.075-1.32 0.508c-0.145 0.058-0.246 0.197-0.247 0.36v2.468c0 0.163 0.101 0.302 0.244 0.359l0.003 0.001 1.32 0.508 0.021 0.075c0.2 0.707 0.464 1.324 0.796 1.896l-0.021-0.039 0.038 0.068-0.574 1.293c-0.021 0.046-0.033 0.099-0.033 0.156 0 0.107 0.043 0.203 0.113 0.273v0l1.741 1.741c0.070 0.070 0.166 0.113 0.273 0.113 0.057 0 0.11-0.012 0.159-0.034l-0.002 0.001zM32.233 31.36c-0.383-0-0.694-0.311-0.694-0.695 0-0.116 0.029-0.226 0.079-0.322l-0.002 0.004 0.405-0.782c-1.147 0.487-2.481 0.771-3.881 0.771-2.047 0-3.952-0.605-5.547-1.647l0.039 0.024c-0.206-0.123-0.343-0.345-0.343-0.599 0-0.384 0.311-0.695 0.695-0.695 0.15 0 0.288 0.047 0.401 0.128l-0.002-0.001c1.338 0.878 2.978 1.4 4.74 1.402h0c1.168-0.001 2.283-0.227 3.305-0.638l-0.060 0.021-0.603-0.054c-0.373-0.014-0.669-0.32-0.669-0.694 0-0.384 0.311-0.695 0.695-0.695 0.035 0 0.069 0.003 0.102 0.007l-0.004-0 2.861 0.259c0.355 0.033 0.631 0.33 0.631 0.692 0 0.116-0.029 0.226-0.079 0.323l0.002-0.004-1.453 2.822c-0.117 0.224-0.349 0.375-0.615 0.375-0.001 0-0.001 0-0.002 0h0zM32.702 28.919l-0.811 1.568c-0.034 0.057-0.055 0.125-0.055 0.198 0 0.213 0.173 0.386 0.386 0.386 0.157 0 0.292-0.093 0.352-0.228l0.001-0.002 1.458-2.822c0.027-0.051 0.043-0.112 0.043-0.177 0-0.201-0.154-0.366-0.35-0.384l-0.002-0-2.862-0.259h-0.037c-0.209 0.005-0.377 0.176-0.377 0.386 0 0.198 0.149 0.362 0.342 0.384l0.002 0 1.766 0.16-0.508 0.247c-1.144 0.558-2.489 0.885-3.911 0.885-1.829 0-3.533-0.541-4.958-1.471l0.035 0.021c-0.055-0.032-0.12-0.050-0.19-0.050-0.213 0-0.386 0.173-0.386 0.386 0 0.128 0.062 0.241 0.157 0.311l0.001 0.001c1.503 0.985 3.345 1.572 5.324 1.573h0c1.513-0.001 2.947-0.339 4.231-0.944l-0.061 0.026zM10.754 30.919h-1.931l-0.486-1.26c-0.046-0.118-0.145-0.206-0.268-0.236l-0.003-0.001c-0.818-0.198-1.538-0.506-2.19-0.914l0.031 0.018c-0.058-0.035-0.127-0.056-0.202-0.056-0.057 0-0.111 0.012-0.159 0.034l0.002-0.001-1.234 0.548-1.367-1.366 0.548-1.234c0.021-0.046 0.033-0.1 0.033-0.156 0-0.075-0.021-0.145-0.059-0.205l0.001 0.002c-0.39-0.621-0.698-1.342-0.885-2.11l-0.010-0.050c-0.030-0.125-0.119-0.224-0.234-0.269l-0.003-0.001-1.258-0.485v-1.932l1.26-0.481c0.118-0.046 0.206-0.145 0.236-0.268l0.001-0.003c0.198-0.818 0.506-1.539 0.914-2.191l-0.018 0.031c0.036-0.058 0.058-0.128 0.058-0.203 0-0.056-0.012-0.11-0.034-0.159l0.001 0.002-0.548-1.234 1.366-1.366 1.234 0.549c0.046 0.021 0.1 0.033 0.157 0.033 0.075 0 0.144-0.021 0.204-0.057l-0.002 0.001c0.621-0.39 1.342-0.698 2.11-0.885l0.050-0.010c0.125-0.030 0.224-0.119 0.269-0.234l0.001-0.003 0.485-1.26h1.931l0.485 1.26c0.046 0.118 0.145 0.206 0.268 0.236l0.003 0.001c0.818 0.198 1.538 0.506 2.19 0.914l-0.031-0.018c0.058 0.035 0.127 0.056 0.202 0.056 0.057 0 0.111-0.012 0.159-0.034l-0.002 0.001 1.234-0.548 1.366 1.366-0.548 1.234c-0.021 0.046-0.033 0.1-0.033 0.156 0 0.075 0.021 0.145 0.059 0.205l-0.001-0.002c0.39 0.621 0.698 1.342 0.885 2.11l0.010 0.050c0.030 0.125 0.119 0.224 0.234 0.269l0.003 0.001 1.26 0.485v1.826h-0.123l0.023 0.144-1.161 0.447c-0.118 0.046-0.206 0.145-0.236 0.268l-0.001 0.003c-0.198 0.818-0.506 1.538-0.914 2.19l0.018-0.031c-0.036 0.057-0.057 0.127-0.057 0.202 0 0.057 0.012 0.111 0.034 0.16l-0.001-0.002 0.548 1.234-1.366 1.366-1.234-0.548c-0.046-0.021-0.099-0.032-0.156-0.032-0.075 0-0.145 0.021-0.205 0.058l0.002-0.001c-0.621 0.39-1.342 0.698-2.11 0.885l-0.050 0.010c-0.125 0.030-0.224 0.119-0.269 0.234l-0.001 0.003zM9.038 30.611h1.505l0.408-1.062c0.083-0.212 0.262-0.371 0.483-0.425l0.005-0.001c0.784-0.191 1.475-0.488 2.1-0.881l-0.029 0.017c0.104-0.064 0.23-0.102 0.364-0.102 0.102 0 0.198 0.022 0.286 0.061l-0.004-0.002 1.041 0.463 1.066-1.066-0.463-1.041c-0.038-0.083-0.060-0.18-0.060-0.282 0-0.135 0.038-0.26 0.105-0.367l-0.002 0.003c0.375-0.595 0.672-1.285 0.854-2.021l0.010-0.048c0.055-0.225 0.213-0.404 0.421-0.486l0.005-0.002 1.062-0.408v-1.504l-1.062-0.408c-0.212-0.083-0.371-0.262-0.425-0.483l-0.001-0.005c-0.191-0.784-0.489-1.475-0.881-2.1l0.017 0.029c-0.065-0.103-0.103-0.229-0.103-0.364 0-0.102 0.022-0.199 0.061-0.286l-0.002 0.004 0.463-1.041-1.066-1.066-1.041 0.463c-0.083 0.037-0.179 0.059-0.281 0.059-0.135 0-0.26-0.038-0.367-0.104l0.003 0.002c-0.595-0.375-1.285-0.672-2.021-0.854l-0.048-0.010c-0.225-0.055-0.404-0.213-0.486-0.421l-0.002-0.005-0.408-1.062h-1.506l-0.408 1.062c-0.083 0.212-0.262 0.371-0.483 0.425l-0.005 0.001c-0.784 0.192-1.474 0.489-2.098 0.881l0.029-0.017c-0.104 0.064-0.23 0.102-0.364 0.102-0.102 0-0.198-0.022-0.286-0.061l0.004 0.002-1.041-0.463-1.066 1.066 0.463 1.041c0.038 0.083 0.060 0.18 0.060 0.282 0 0.135-0.038 0.26-0.105 0.367l0.002-0.003c-0.375 0.595-0.672 1.285-0.854 2.021l-0.010 0.048c-0.055 0.225-0.213 0.404-0.421 0.486l-0.005 0.002-1.062 0.41v1.508l1.062 0.408c0.212 0.083 0.371 0.262 0.425 0.483l0.001 0.005c0.192 0.784 0.489 1.475 0.881 2.1l-0.017-0.029c0.065 0.103 0.103 0.229 0.103 0.364 0 0.102-0.022 0.199-0.061 0.286l0.002-0.004-0.463 1.041 1.066 1.066 1.041-0.463c0.083-0.037 0.179-0.059 0.281-0.059 0.135 0 0.26 0.038 0.367 0.104l-0.003-0.002c0.595 0.375 1.285 0.672 2.021 0.854l0.048 0.010c0.225 0.055 0.404 0.213 0.486 0.421l0.002 0.005zM9.791 27.573c-2.961 0-5.362-2.401-5.362-5.362s2.401-5.362 5.362-5.362c2.961 0 5.362 2.401 5.362 5.362v0c-0.004 2.961-2.404 5.361-5.366 5.362h-0zM9.791 17.157c-2.794 0-5.059 2.265-5.059 5.059s2.265 5.059 5.059 5.059c2.794 0 5.059-2.265 5.059-5.059v0c0-2.794-2.265-5.059-5.059-5.059-0.001 0-0.003 0-0.004 0h0zM9.791 26.494c-2.365 0-4.283-1.917-4.283-4.283s1.917-4.283 4.283-4.283c2.365 0 4.283 1.917 4.283 4.283v0c-0.003 2.365-1.921 4.282-4.286 4.283h-0zM9.791 18.237c-2.195 0-3.974 1.779-3.974 3.974s1.779 3.974 3.974 3.974c2.195 0 3.974-1.779 3.974-3.974v0c-0.002-2.195-1.782-3.974-3.978-3.974v0zM28.956 26.397h-1.636c-0.293-0.001-0.544-0.183-0.646-0.439l-0.002-0.005-0.258-0.671c-0.395-0.123-0.734-0.267-1.055-0.44l0.031 0.015-0.658 0.292c-0.083 0.038-0.18 0.060-0.282 0.060-0.191 0-0.365-0.078-0.49-0.203l-1.154-1.154c-0.125-0.126-0.202-0.3-0.202-0.491 0-0.102 0.022-0.198 0.061-0.285l-0.002 0.004 0.292-0.658c-0.158-0.29-0.302-0.63-0.413-0.984l-0.011-0.041-0.671-0.258c-0.261-0.104-0.443-0.355-0.444-0.648v-1.635c0.001-0.293 0.183-0.544 0.439-0.646l0.005-0.002 0.671-0.258c0.122-0.395 0.267-0.734 0.44-1.055l-0.015 0.031-0.292-0.658c-0.037-0.083-0.059-0.179-0.059-0.281 0-0.192 0.077-0.365 0.202-0.491l1.154-1.154c0.125-0.125 0.299-0.203 0.49-0.203 0.102 0 0.199 0.022 0.286 0.062l-0.004-0.002 0.658 0.292c0.29-0.158 0.629-0.302 0.983-0.413l0.041-0.011 0.258-0.671c0.104-0.261 0.355-0.443 0.648-0.444h1.632c0.293 0.001 0.544 0.183 0.646 0.439l0.002 0.005 0.258 0.671c0.395 0.122 0.734 0.267 1.055 0.44l-0.031-0.015 0.658-0.292c0.083-0.038 0.18-0.060 0.282-0.060 0.191 0 0.365 0.078 0.49 0.203l1.154 1.154c0.125 0.126 0.202 0.3 0.202 0.491 0 0.102-0.022 0.198-0.061 0.285l0.002-0.004-0.292 0.658c0.158 0.29 0.302 0.63 0.413 0.984l0.011 0.041 0.671 0.258c0.261 0.104 0.443 0.355 0.444 0.648v1.632c-0.001 0.293-0.183 0.544-0.439 0.646l-0.005 0.002-0.671 0.259c-0.123 0.395-0.267 0.734-0.44 1.055l0.015-0.031 0.292 0.658c0.037 0.082 0.058 0.178 0.058 0.279 0 0.191-0.076 0.363-0.2 0.489l-1.154 1.153c-0.125 0.125-0.299 0.203-0.49 0.203-0.102 0-0.199-0.022-0.286-0.062l0.004 0.002-0.658-0.292c-0.29 0.158-0.63 0.302-0.984 0.413l-0.041 0.011-0.258 0.671c-0.103 0.263-0.354 0.447-0.648 0.449h-0zM25.408 24.513l0.067 0.037c0.315 0.177 0.681 0.332 1.065 0.448l0.039 0.010 0.073 0.021 0.313 0.813c0.058 0.145 0.197 0.246 0.36 0.247h1.632c0.163-0 0.302-0.101 0.359-0.244l0.001-0.003 0.313-0.813 0.073-0.021c0.423-0.125 0.789-0.281 1.132-0.472l-0.028 0.014 0.067-0.037 0.797 0.354c0.046 0.021 0.1 0.033 0.156 0.033 0.107 0 0.203-0.043 0.273-0.113v0l1.154-1.154c0.070-0.070 0.113-0.167 0.113-0.273 0-0.056-0.012-0.11-0.034-0.158l0.001 0.002-0.354-0.797 0.037-0.067c0.174-0.315 0.327-0.682 0.439-1.065l0.010-0.039 0.021-0.073 0.813-0.313c0.145-0.058 0.246-0.197 0.247-0.36v-1.632c-0-0.163-0.101-0.302-0.244-0.359l-0.003-0.001-0.813-0.313-0.021-0.072c-0.125-0.423-0.281-0.789-0.472-1.132l0.014 0.028-0.036-0.069 0.354-0.797c0.021-0.046 0.033-0.099 0.033-0.156 0-0.107-0.043-0.203-0.113-0.273v0l-1.154-1.154c-0.070-0.070-0.166-0.113-0.273-0.113-0.057 0-0.11 0.012-0.159 0.034l0.002-0.001-0.797 0.354-0.067-0.037c-0.315-0.177-0.681-0.333-1.065-0.448l-0.039-0.010-0.073-0.021-0.313-0.813c-0.058-0.145-0.197-0.246-0.36-0.247h-1.63c-0.163 0-0.302 0.101-0.359 0.244l-0.001 0.003-0.313 0.813-0.073 0.021c-0.423 0.125-0.789 0.281-1.132 0.472l0.028-0.014-0.067 0.037-0.797-0.354c-0.046-0.021-0.1-0.033-0.156-0.033-0.107 0-0.203 0.043-0.273 0.113v0l-1.154 1.154c-0.070 0.070-0.113 0.167-0.113 0.273 0 0.056 0.012 0.11 0.034 0.158l-0.001-0.002 0.354 0.797-0.037 0.067c-0.177 0.315-0.333 0.681-0.448 1.065l-0.010 0.039-0.021 0.073-0.813 0.313c-0.145 0.058-0.246 0.197-0.247 0.36v1.632c0.001 0.163 0.102 0.302 0.244 0.359l0.003 0.001 0.813 0.313 0.021 0.073c0.125 0.423 0.281 0.789 0.472 1.132l-0.014-0.028 0.037 0.067-0.354 0.797c-0.021 0.046-0.033 0.099-0.033 0.156 0 0.107 0.043 0.203 0.113 0.273v0l1.154 1.154c0.070 0.070 0.166 0.113 0.273 0.113 0.057 0 0.11-0.012 0.159-0.034l-0.002 0.001zM28.692 25.318h-1.102l-0.292-0.753c-0.046-0.118-0.145-0.206-0.268-0.236l-0.003-0.001c-0.528-0.128-0.993-0.326-1.414-0.589l0.020 0.012c-0.058-0.035-0.127-0.056-0.202-0.056-0.057 0-0.111 0.012-0.159 0.034l0.002-0.001-0.74 0.327-0.78-0.78 0.327-0.74c0.021-0.046 0.033-0.1 0.033-0.156 0-0.075-0.022-0.145-0.059-0.204l0.001 0.002c-0.251-0.401-0.45-0.866-0.571-1.362l-0.007-0.032c-0.030-0.125-0.119-0.224-0.234-0.269l-0.003-0.001-0.751-0.29v-1.098l0.751-0.29c0.118-0.046 0.206-0.145 0.236-0.268l0.001-0.003c0.128-0.528 0.326-0.993 0.589-1.414l-0.012 0.020c0.036-0.058 0.058-0.128 0.058-0.203 0-0.056-0.012-0.11-0.034-0.159l0.001 0.002-0.327-0.74 0.78-0.78 0.74 0.327c0.046 0.021 0.099 0.032 0.156 0.032 0.075 0 0.145-0.021 0.205-0.058l-0.002 0.001c0.401-0.251 0.866-0.45 1.362-0.571l0.032-0.007c0.124-0.030 0.223-0.116 0.269-0.229l0.001-0.003 0.29-0.753h1.102l0.29 0.753c0.046 0.118 0.145 0.206 0.268 0.236l0.003 0.001c0.528 0.127 0.993 0.326 1.414 0.589l-0.020-0.012c0.058 0.036 0.128 0.057 0.203 0.057 0.056 0 0.11-0.012 0.158-0.033l-0.002 0.001 0.74-0.327 0.78 0.78-0.327 0.74c-0.021 0.046-0.033 0.1-0.033 0.156 0 0.075 0.022 0.145 0.059 0.204l-0.001-0.002c0.251 0.401 0.45 0.866 0.571 1.362l0.007 0.032c0.031 0.125 0.119 0.224 0.234 0.269l0.003 0.001 0.751 0.29v1.103l-0.753 0.29c-0.118 0.046-0.206 0.145-0.236 0.268l-0.001 0.003c-0.128 0.528-0.326 0.993-0.589 1.414l0.012-0.020c-0.036 0.058-0.058 0.128-0.058 0.203 0 0.057 0.012 0.11 0.034 0.159l-0.001-0.002 0.327 0.74-0.78 0.78-0.743-0.339c-0.046-0.021-0.099-0.032-0.156-0.032-0.075 0-0.145 0.021-0.205 0.058l0.002-0.001c-0.401 0.251-0.866 0.45-1.362 0.571l-0.032 0.007c-0.125 0.030-0.224 0.119-0.269 0.234l-0.001 0.003zM27.801 25.009h0.679l0.213-0.554c0.083-0.212 0.262-0.371 0.483-0.425l0.005-0.001c0.494-0.119 0.929-0.305 1.323-0.551l-0.019 0.011c0.104-0.064 0.23-0.102 0.364-0.102 0.102 0 0.198 0.022 0.286 0.061l-0.004-0.002 0.543 0.247 0.48-0.48-0.247-0.544c-0.038-0.083-0.060-0.18-0.060-0.282 0-0.135 0.038-0.26 0.105-0.367l-0.002 0.003c0.235-0.375 0.421-0.809 0.534-1.272l0.006-0.030c0.055-0.225 0.213-0.404 0.421-0.486l0.005-0.002 0.551-0.22v-0.679l-0.554-0.213c-0.212-0.083-0.371-0.262-0.425-0.483l-0.001-0.005c-0.119-0.494-0.305-0.929-0.551-1.323l0.011 0.019c-0.065-0.103-0.103-0.229-0.103-0.364 0-0.102 0.022-0.199 0.062-0.286l-0.002 0.004 0.247-0.543-0.48-0.48-0.544 0.247c-0.083 0.037-0.179 0.059-0.281 0.059-0.135 0-0.26-0.038-0.367-0.104l0.003 0.002c-0.375-0.235-0.809-0.421-1.272-0.534l-0.030-0.006c-0.225-0.055-0.404-0.213-0.486-0.421l-0.002-0.005-0.213-0.554h-0.686l-0.213 0.554c-0.083 0.212-0.262 0.371-0.483 0.425l-0.005 0.001c-0.494 0.119-0.929 0.305-1.323 0.551l0.019-0.011c-0.104 0.064-0.23 0.102-0.364 0.102-0.102 0-0.198-0.022-0.286-0.061l0.004 0.002-0.544-0.247-0.48 0.48 0.247 0.544c0.038 0.083 0.060 0.18 0.060 0.282 0 0.135-0.038 0.26-0.105 0.367l0.002-0.003c-0.235 0.375-0.421 0.81-0.534 1.274l-0.006 0.030c-0.055 0.225-0.213 0.404-0.421 0.486l-0.005 0.002-0.554 0.213v0.679l0.554 0.213c0.212 0.083 0.371 0.262 0.425 0.483l0.001 0.005c0.119 0.494 0.305 0.929 0.551 1.323l-0.011-0.019c0.065 0.103 0.103 0.229 0.103 0.364 0 0.102-0.022 0.199-0.062 0.286l0.002-0.004-0.247 0.543 0.48 0.48 0.544-0.247c0.083-0.037 0.179-0.059 0.281-0.059 0.135 0 0.26 0.038 0.367 0.104l-0.003-0.002c0.375 0.235 0.809 0.421 1.272 0.534l0.030 0.006c0.225 0.055 0.404 0.213 0.486 0.421l0.002 0.005zM28.141 23.214c-1.955 0-3.54-1.585-3.54-3.54s1.585-3.54 3.54-3.54c1.955 0 3.54 1.585 3.54 3.54v0c-0.003 1.955-1.588 3.539-3.543 3.54h-0zM28.141 16.442c-0.001 0-0.002 0-0.002 0-1.785 0-3.231 1.447-3.231 3.231s1.447 3.231 3.231 3.231c1.784 0 3.231-1.446 3.231-3.23v-0c-0.003-1.783-1.449-3.227-3.232-3.229h-0zM28.141 22.134c-1.359 0-2.46-1.101-2.46-2.46s1.101-2.46 2.46-2.46c1.359 0 2.46 1.101 2.46 2.46v0c-0.004 1.358-1.105 2.458-2.464 2.46h-0zM28.141 17.523c-1.188 0-2.152 0.963-2.152 2.152s0.963 2.152 2.152 2.152c1.188 0 2.152-0.963 2.152-2.152v0c-0.001-1.189-0.965-2.153-2.154-2.153-0 0-0.001 0-0.001 0h0zM20.77 13.451h-1.636c-0.293-0.001-0.544-0.183-0.646-0.439l-0.002-0.005-0.258-0.671c-0.395-0.123-0.734-0.267-1.055-0.44l0.031 0.015-0.658 0.292c-0.083 0.038-0.18 0.060-0.282 0.060-0.191 0-0.365-0.078-0.49-0.203l-1.154-1.154c-0.125-0.126-0.202-0.3-0.202-0.491 0-0.102 0.022-0.198 0.061-0.285l-0.002 0.004 0.292-0.658c-0.158-0.29-0.302-0.63-0.413-0.984l-0.011-0.041-0.671-0.258c-0.261-0.104-0.443-0.355-0.444-0.648v-1.639c0.001-0.293 0.183-0.544 0.439-0.646l0.005-0.002 0.671-0.258c0.123-0.395 0.267-0.734 0.44-1.055l-0.015 0.031-0.292-0.658c-0.037-0.083-0.059-0.179-0.059-0.281 0-0.192 0.077-0.365 0.202-0.491l1.154-1.154c0.125-0.125 0.299-0.203 0.49-0.203 0.102 0 0.199 0.022 0.286 0.062l-0.004-0.002 0.658 0.292c0.29-0.158 0.629-0.302 0.983-0.413l0.041-0.011 0.258-0.671c0.104-0.261 0.355-0.443 0.648-0.444h1.632c0.293 0.001 0.544 0.183 0.646 0.439l0.002 0.005 0.258 0.671c0.395 0.123 0.734 0.266 1.055 0.44l-0.031-0.015 0.658-0.292c0.083-0.038 0.18-0.060 0.282-0.060 0.191 0 0.365 0.078 0.49 0.203l1.154 1.154c0.125 0.126 0.202 0.3 0.202 0.491 0 0.102-0.022 0.198-0.061 0.285l0.002-0.004-0.292 0.658c0.158 0.29 0.302 0.63 0.413 0.984l0.011 0.041 0.671 0.258c0.262 0.104 0.444 0.354 0.445 0.648v1.632c-0.001 0.293-0.183 0.544-0.439 0.646l-0.005 0.002-0.671 0.258c-0.123 0.395-0.267 0.734-0.44 1.055l0.015-0.031 0.292 0.658c0.037 0.083 0.059 0.179 0.059 0.281 0 0.192-0.077 0.365-0.202 0.491l-1.154 1.154c-0.125 0.126-0.298 0.204-0.489 0.204-0.002 0-0.003 0-0.004 0h0c-0 0-0.001 0-0.002 0-0.101 0-0.197-0.022-0.284-0.061l0.004 0.002-0.658-0.292c-0.29 0.158-0.63 0.302-0.984 0.413l-0.041 0.011-0.258 0.671c-0.104 0.262-0.354 0.444-0.646 0.445h-0zM17.221 11.567l0.067 0.037c0.315 0.177 0.681 0.332 1.065 0.448l0.039 0.010 0.073 0.021 0.313 0.813c0.058 0.145 0.197 0.246 0.36 0.247h1.632c0.163-0 0.302-0.101 0.359-0.244l0.001-0.003 0.313-0.813 0.073-0.021c0.423-0.125 0.789-0.281 1.132-0.472l-0.028 0.014 0.067-0.037 0.797 0.354c0.046 0.021 0.1 0.033 0.156 0.033 0 0 0 0 0.001 0h-0c0 0 0 0 0 0 0.107 0 0.203-0.043 0.272-0.114l1.154-1.154c0.070-0.070 0.113-0.167 0.113-0.273 0-0.056-0.012-0.11-0.034-0.158l0.001 0.002-0.354-0.797 0.037-0.067c0.177-0.315 0.332-0.681 0.448-1.065l0.010-0.039 0.021-0.073 0.813-0.313c0.145-0.058 0.246-0.197 0.247-0.36v-1.636c-0-0.163-0.101-0.302-0.244-0.359l-0.003-0.001-0.813-0.313-0.021-0.073c-0.126-0.423-0.282-0.789-0.473-1.132l0.014 0.028-0.037-0.067 0.354-0.797c0.021-0.046 0.033-0.099 0.033-0.156 0-0.107-0.043-0.203-0.113-0.273v0l-1.154-1.154c-0.070-0.070-0.166-0.113-0.273-0.113-0.057 0-0.11 0.012-0.159 0.034l0.002-0.001-0.797 0.354-0.067-0.037c-0.315-0.177-0.681-0.333-1.065-0.448l-0.039-0.010-0.073-0.021-0.315-0.813c-0.058-0.145-0.197-0.246-0.36-0.247h-1.635c-0.163 0-0.302 0.101-0.359 0.244l-0.001 0.003-0.313 0.813-0.073 0.021c-0.423 0.125-0.789 0.281-1.132 0.472l0.028-0.014-0.067 0.037-0.797-0.354c-0.046-0.021-0.1-0.033-0.156-0.033-0.107 0-0.203 0.043-0.273 0.113v0l-1.154 1.154c-0.070 0.070-0.113 0.167-0.113 0.273 0 0.056 0.012 0.11 0.034 0.158l-0.001-0.002 0.354 0.797-0.037 0.067c-0.177 0.315-0.333 0.681-0.448 1.065l-0.010 0.039-0.021 0.073-0.813 0.313c-0.145 0.058-0.246 0.197-0.247 0.36v1.632c0 0.163 0.101 0.302 0.244 0.359l0.003 0.001 0.813 0.313 0.021 0.073c0.125 0.423 0.281 0.789 0.472 1.132l-0.014-0.028 0.037 0.067-0.354 0.797c-0.021 0.046-0.033 0.1-0.033 0.156 0 0.107 0.043 0.203 0.113 0.273v0l1.154 1.154c0.070 0.070 0.166 0.113 0.273 0.113 0.057 0 0.11-0.012 0.159-0.034l-0.002 0.001zM1.097 12.607v0c-0.381-0.003-0.69-0.313-0.69-0.695 0-0.21 0.093-0.398 0.24-0.525l0.001-0.001c1.85-1.57 4.138-2.679 6.655-3.123l0.085-0.012-0.732-0.389c-0.231-0.116-0.387-0.351-0.387-0.623 0-0.384 0.311-0.695 0.695-0.695 0.126 0 0.245 0.034 0.347 0.093l-0.003-0.002 2.806 1.49c0.222 0.119 0.371 0.349 0.371 0.615 0 0.213-0.096 0.403-0.246 0.531l-0.001 0.001-2.21 1.837c-0.122 0.11-0.285 0.177-0.463 0.177-0.384 0-0.695-0.311-0.695-0.695 0-0.222 0.104-0.42 0.267-0.547l0.002-0.001 0.523-0.437c-2.362 0.407-4.439 1.412-6.134 2.853l0.018-0.015c-0.119 0.101-0.275 0.162-0.445 0.162-0.001 0-0.002 0-0.003 0h0zM6.983 6.86c-0.213 0-0.385 0.173-0.385 0.386 0 0.147 0.082 0.274 0.202 0.34l0.002 0.001 1.562 0.829-0.473 0.065c-2.718 0.383-5.121 1.505-7.064 3.154l0.020-0.017c-0.084 0.071-0.138 0.177-0.138 0.295 0 0.212 0.172 0.385 0.384 0.385h0c0.094-0.001 0.181-0.035 0.247-0.092l-0.001 0c1.856-1.577 4.186-2.649 6.749-2.978l0.065-0.007 0.522-0.065-1.342 1.119c-0.075 0.071-0.121 0.17-0.121 0.281 0 0.213 0.173 0.386 0.386 0.386 0.086 0 0.165-0.028 0.23-0.076l-0.001 0.001 2.206-1.842c0.085-0.071 0.138-0.177 0.138-0.296 0-0.147-0.082-0.274-0.203-0.34l-0.002-0.001-2.804-1.484c-0.052-0.029-0.114-0.045-0.18-0.046h-0zM20.5 12.366h-1.098l-0.29-0.753c-0.046-0.118-0.145-0.206-0.268-0.236l-0.003-0.001c-0.528-0.127-0.993-0.326-1.414-0.589l0.020 0.012c-0.058-0.035-0.127-0.056-0.202-0.056-0.057 0-0.111 0.012-0.159 0.034l0.002-0.001-0.74 0.327-0.78-0.78 0.327-0.74c0.021-0.046 0.033-0.1 0.033-0.156 0-0.075-0.022-0.145-0.059-0.204l0.001 0.002c-0.251-0.401-0.45-0.866-0.571-1.362l-0.007-0.032c-0.030-0.125-0.119-0.224-0.234-0.269l-0.003-0.001-0.751-0.29v-1.102l0.751-0.29c0.118-0.046 0.206-0.145 0.236-0.268l0.001-0.003c0.128-0.528 0.326-0.993 0.589-1.414l-0.012 0.020c0.036-0.057 0.057-0.127 0.057-0.202 0-0.057-0.012-0.111-0.035-0.16l0.001 0.002-0.327-0.74 0.78-0.78 0.74 0.327c0.046 0.021 0.099 0.032 0.156 0.032 0.075 0 0.145-0.021 0.205-0.058l-0.002 0.001c0.401-0.251 0.866-0.45 1.362-0.571l0.032-0.007c0.125-0.030 0.224-0.119 0.269-0.234l0.001-0.003 0.29-0.753h1.102l0.29 0.751c0.046 0.118 0.145 0.206 0.268 0.236l0.003 0.001c0.528 0.127 0.993 0.326 1.414 0.589l-0.020-0.012c0.058 0.035 0.127 0.056 0.202 0.056 0.057 0 0.111-0.012 0.159-0.034l-0.002 0.001 0.74-0.327 0.78 0.78-0.327 0.74c-0.021 0.046-0.033 0.1-0.033 0.156 0 0.075 0.021 0.145 0.059 0.205l-0.001-0.002c0.251 0.401 0.45 0.866 0.571 1.362l0.007 0.032c0.030 0.125 0.119 0.224 0.234 0.269l0.003 0.001 0.751 0.29v1.102l-0.753 0.29c-0.118 0.046-0.206 0.145-0.236 0.268l-0.001 0.003c-0.128 0.528-0.326 0.993-0.589 1.414l0.012-0.020c-0.036 0.057-0.057 0.127-0.057 0.202 0 0.057 0.012 0.111 0.035 0.16l-0.001-0.002 0.327 0.74-0.78 0.78-0.74-0.327c-0.046-0.021-0.099-0.032-0.156-0.032-0.075 0-0.145 0.021-0.205 0.058l0.002-0.001c-0.401 0.251-0.866 0.45-1.362 0.571l-0.032 0.007c-0.125 0.030-0.224 0.119-0.269 0.234l-0.001 0.003zM19.609 12.058h0.679l0.213-0.554c0.083-0.212 0.262-0.371 0.483-0.425l0.005-0.001c0.494-0.119 0.929-0.305 1.323-0.551l-0.019 0.011c0.104-0.064 0.23-0.102 0.364-0.102 0.102 0 0.198 0.022 0.285 0.060l-0.004-0.002 0.543 0.247 0.48-0.48-0.247-0.544c-0.038-0.083-0.060-0.18-0.060-0.282 0-0.135 0.038-0.26 0.105-0.367l-0.002 0.003c0.235-0.375 0.421-0.809 0.534-1.272l0.006-0.030c0.055-0.225 0.213-0.404 0.421-0.486l0.005-0.002 0.554-0.213v-0.679l-0.554-0.213c-0.212-0.083-0.371-0.262-0.425-0.483l-0.001-0.005c-0.119-0.494-0.305-0.929-0.551-1.323l0.011 0.019c-0.063-0.102-0.1-0.226-0.1-0.359 0-0.105 0.023-0.204 0.065-0.293l-0.002 0.004 0.247-0.543-0.48-0.48-0.544 0.247c-0.083 0.037-0.179 0.059-0.281 0.059-0.135 0-0.26-0.038-0.367-0.104l0.003 0.002c-0.375-0.235-0.81-0.421-1.274-0.534l-0.030-0.006c-0.225-0.055-0.404-0.213-0.486-0.421l-0.002-0.005-0.213-0.554h-0.679l-0.213 0.554c-0.083 0.212-0.262 0.371-0.483 0.425l-0.005 0.001c-0.494 0.12-0.928 0.305-1.322 0.551l0.019-0.011c-0.104 0.064-0.23 0.102-0.364 0.102-0.102 0-0.198-0.022-0.285-0.060l0.004 0.002-0.544-0.247-0.48 0.48 0.247 0.544c0.038 0.083 0.060 0.18 0.060 0.282 0 0.135-0.038 0.26-0.105 0.367l0.002-0.003c-0.235 0.375-0.421 0.81-0.534 1.274l-0.006 0.030c-0.055 0.225-0.213 0.404-0.421 0.486l-0.005 0.002-0.554 0.213v0.679l0.554 0.213c0.212 0.083 0.371 0.262 0.425 0.483l0.001 0.005c0.119 0.494 0.305 0.929 0.551 1.323l-0.011-0.019c0.065 0.103 0.103 0.229 0.103 0.364 0 0.102-0.022 0.199-0.062 0.286l0.002-0.004-0.247 0.543 0.48 0.48 0.544-0.247c0.083-0.037 0.179-0.059 0.281-0.059 0.135 0 0.26 0.038 0.367 0.104l-0.003-0.002c0.375 0.235 0.809 0.421 1.272 0.534l0.030 0.006c0.225 0.055 0.404 0.213 0.486 0.421l0.002 0.005zM28.799 11.26v0c-0.383-0-0.694-0.311-0.694-0.695 0-0.1 0.021-0.195 0.059-0.281l-0.002 0.004c0.468-1.046 0.74-2.267 0.74-3.552 0-0.005 0-0.010 0-0.015v0.001c0-0.007 0-0.016 0-0.025 0-0.742-0.090-1.463-0.26-2.153l0.013 0.062-0.112 0.527c-0.069 0.316-0.346 0.549-0.678 0.549-0.052 0-0.102-0.006-0.151-0.016l0.005 0.001c-0.318-0.068-0.552-0.347-0.552-0.68 0-0.049 0.005-0.098 0.015-0.144l-0.001 0.005 0.601-2.811c0.052-0.226 0.209-0.408 0.416-0.492l0.005-0.002c0.076-0.031 0.165-0.049 0.258-0.049 0.146 0 0.282 0.045 0.394 0.121l-0.002-0.002 2.627 1.787c0.198 0.125 0.329 0.342 0.329 0.59 0 0.384-0.311 0.695-0.695 0.695-0.156 0-0.301-0.052-0.417-0.139l0.002 0.001-0.762-0.518c0.227 0.811 0.357 1.741 0.357 2.702 0 1.489-0.313 2.905-0.877 4.186l0.026-0.067c-0.111 0.245-0.353 0.412-0.635 0.412-0.002 0-0.005 0-0.007-0h0zM28.601 3.363l0.176 0.554c0.274 0.838 0.432 1.802 0.432 2.803 0 1.335-0.281 2.605-0.788 3.752l0.023-0.060c-0.027 0.051-0.042 0.112-0.042 0.176 0 0.213 0.173 0.386 0.386 0.386 0.166 0 0.308-0.105 0.362-0.252l0.001-0.003c0.525-1.181 0.831-2.559 0.831-4.009 0-1.076-0.169-2.113-0.481-3.086l0.020 0.071-0.134-0.424 1.487 1.012c0.064 0.048 0.144 0.076 0.23 0.076 0.213 0 0.386-0.173 0.386-0.386 0-0.138-0.072-0.259-0.181-0.327l-0.002-0.001-2.627-1.787c-0.061-0.042-0.137-0.066-0.218-0.066-0.051 0-0.1 0.010-0.145 0.028l0.003-0.001c-0.118 0.048-0.206 0.15-0.233 0.275l-0 0.003-0.606 2.811c-0.005 0.024-0.008 0.052-0.008 0.080 0 0.184 0.129 0.339 0.302 0.377l0.003 0c0.024 0.005 0.052 0.009 0.081 0.009 0.184 0 0.338-0.129 0.376-0.302l0-0.003zM19.949 10.264c-1.955 0-3.54-1.585-3.54-3.54s1.585-3.54 3.54-3.54c1.955 0 3.54 1.585 3.54 3.54v0c-0.003 1.954-1.586 3.537-3.54 3.54h-0zM19.949 3.492c-1.785 0-3.231 1.447-3.231 3.231s1.447 3.231 3.231 3.231c1.785 0 3.231-1.447 3.231-3.231v0c-0.001-1.784-1.447-3.23-3.231-3.233h-0zM19.949 9.184c-1.359 0-2.46-1.101-2.46-2.46s1.101-2.46 2.46-2.46c1.359 0 2.46 1.101 2.46 2.46v0c-0.005 1.357-1.104 2.455-2.46 2.459h-0zM19.949 4.572c-1.188 0-2.152 0.963-2.152 2.152s0.963 2.152 2.152 2.152c1.188 0 2.152-0.963 2.152-2.152v0c-0.001-1.188-0.963-2.152-2.152-2.153h-0z"></path>
</svg>
