<!-- Generated by IcoMoon.io -->
<svg version="1.1" xmlns="http://www.w3.org/2000/svg" width="24" height="24" viewBox="0 0 24 24">
<title>operations1</title>
<path d="M6.8 12.669c-1.998 0-3.618 1.62-3.618 3.618s1.62 3.618 3.618 3.618c1.998 0 3.618-1.62 3.618-3.618v0c-0.002-1.997-1.621-3.616-3.618-3.618h-0zM6.8 19.155c-1.584 0-2.868-1.284-2.868-2.868s1.284-2.868 2.868-2.868c1.584 0 2.868 1.284 2.868 2.868v0c-0.002 1.583-1.285 2.866-2.868 2.868h-0zM13.252 15.082l-0.867-0.333c-0.14-0.504-0.328-0.943-0.563-1.351l0.015 0.028 0.377-0.849c0.020-0.045 0.032-0.097 0.032-0.152 0-0.104-0.042-0.198-0.11-0.266l-1.209-1.209c-0.068-0.068-0.162-0.11-0.266-0.11-0.055 0-0.107 0.012-0.154 0.033l0.002-0.001-0.849 0.377c-0.38-0.221-0.819-0.408-1.282-0.539l-0.041-0.010-0.333-0.867c-0.056-0.141-0.191-0.24-0.35-0.24h-1.714c-0.158 0-0.294 0.099-0.349 0.237l-0.001 0.003-0.333 0.867c-0.503 0.14-0.943 0.328-1.35 0.563l0.028-0.015-0.849-0.377c-0.045-0.021-0.097-0.033-0.153-0.033-0.103 0-0.197 0.042-0.265 0.11v0l-1.204 1.21c-0.068 0.068-0.109 0.162-0.109 0.265 0 0.055 0.012 0.108 0.033 0.155l-0.001-0.002 0.377 0.849c-0.221 0.38-0.408 0.819-0.539 1.282l-0.010 0.041-0.867 0.333c-0.141 0.056-0.24 0.191-0.24 0.35v1.714c0 0.158 0.099 0.294 0.237 0.349l0.003 0.001 0.867 0.333c0.14 0.504 0.328 0.943 0.563 1.351l-0.015-0.028-0.377 0.849c-0.020 0.045-0.032 0.097-0.032 0.152 0 0.103 0.042 0.197 0.11 0.265v0l1.209 1.206c0.068 0.068 0.162 0.11 0.266 0.11 0.055 0 0.107-0.012 0.154-0.033l-0.002 0.001 0.849-0.377c0.38 0.221 0.819 0.408 1.282 0.539l0.041 0.010 0.332 0.865c0.056 0.141 0.191 0.24 0.35 0.24h1.714c0.158-0 0.294-0.099 0.349-0.237l0.001-0.003 0.329-0.866c0.504-0.14 0.943-0.328 1.351-0.563l-0.028 0.015 0.849 0.377c0.045 0.020 0.097 0.032 0.152 0.032 0.103 0 0.197-0.042 0.265-0.11v0l1.209-1.209c0.068-0.068 0.109-0.162 0.109-0.265 0-0.055-0.012-0.108-0.033-0.155l0.001 0.002-0.377-0.849c0.221-0.38 0.408-0.819 0.539-1.282l0.010-0.041 0.867-0.333c0.141-0.056 0.24-0.191 0.24-0.35v-1.714c-0.001-0.157-0.098-0.29-0.235-0.345l-0.003-0.001zM12.742 16.882l-0.807 0.31c-0.115 0.045-0.2 0.142-0.229 0.261l-0.001 0.003c-0.135 0.557-0.345 1.047-0.622 1.49l0.012-0.021c-0.035 0.056-0.055 0.124-0.055 0.196 0 0.055 0.012 0.108 0.033 0.155l-0.001-0.002 0.351 0.79-0.845 0.845-0.79-0.351c-0.045-0.020-0.097-0.032-0.152-0.032-0.073 0-0.141 0.021-0.198 0.056l0.002-0.001c-0.423 0.265-0.913 0.475-1.435 0.602l-0.034 0.007c-0.122 0.030-0.218 0.116-0.262 0.228l-0.001 0.003-0.31 0.807h-1.196l-0.31-0.807c-0.045-0.115-0.142-0.2-0.261-0.229l-0.003-0.001c-0.557-0.135-1.047-0.345-1.49-0.622l0.021 0.012c-0.056-0.035-0.124-0.055-0.196-0.055-0.055 0-0.108 0.012-0.155 0.033l0.002-0.001-0.79 0.351-0.845-0.845 0.351-0.79c0.020-0.045 0.032-0.097 0.032-0.152 0-0.073-0.021-0.141-0.056-0.198l0.001 0.002c-0.265-0.423-0.474-0.913-0.602-1.435l-0.007-0.034c-0.029-0.121-0.115-0.218-0.227-0.262l-0.003-0.001-0.807-0.309v-1.195l0.807-0.31c0.115-0.045 0.2-0.142 0.229-0.261l0.001-0.003c0.135-0.557 0.344-1.047 0.621-1.49l-0.012 0.021c0.035-0.056 0.055-0.124 0.055-0.196 0-0.055-0.012-0.108-0.033-0.155l0.001 0.002-0.351-0.79 0.845-0.845 0.79 0.351c0.045 0.021 0.097 0.032 0.153 0.032 0.073 0 0.141-0.021 0.198-0.057l-0.002 0.001c0.423-0.265 0.913-0.475 1.435-0.602l0.034-0.007c0.122-0.030 0.218-0.116 0.262-0.228l0.001-0.003 0.31-0.807h1.197l0.31 0.807c0.045 0.115 0.142 0.2 0.261 0.229l0.003 0.001c0.557 0.135 1.047 0.345 1.49 0.622l-0.021-0.012c0.056 0.035 0.124 0.055 0.196 0.055 0.055 0 0.108-0.012 0.155-0.033l-0.002 0.001 0.79-0.351 0.845 0.845-0.351 0.79c-0.020 0.045-0.032 0.097-0.032 0.152 0 0.073 0.021 0.141 0.056 0.198l-0.001-0.002c0.265 0.423 0.474 0.913 0.602 1.435l0.007 0.034c0.029 0.121 0.115 0.218 0.227 0.262l0.003 0.001 0.807 0.31v1.196zM23.87 13.605l-0.514-0.198c-0.089-0.302-0.2-0.563-0.337-0.809l0.010 0.020 0.221-0.503c0.020-0.045 0.032-0.097 0.032-0.152 0-0.104-0.042-0.198-0.11-0.266l-0.801-0.801c-0.068-0.068-0.161-0.11-0.265-0.11-0.055 0-0.108 0.012-0.155 0.033l0.002-0.001-0.505 0.225c-0.225-0.126-0.487-0.237-0.761-0.319l-0.028-0.007-0.199-0.514c-0.056-0.141-0.191-0.24-0.35-0.24h-1.131c-0.158 0-0.294 0.099-0.349 0.237l-0.001 0.003-0.199 0.514c-0.302 0.089-0.563 0.2-0.809 0.337l0.020-0.010-0.505-0.225c-0.045-0.020-0.097-0.032-0.152-0.032-0.104 0-0.198 0.042-0.266 0.11l-0.801 0.801c-0.068 0.068-0.109 0.162-0.109 0.265 0 0.055 0.012 0.108 0.033 0.155l-0.001-0.002 0.225 0.505c-0.126 0.225-0.237 0.487-0.319 0.761l-0.007 0.028-0.514 0.198c-0.141 0.056-0.24 0.191-0.24 0.35v1.134c0 0.158 0.099 0.294 0.237 0.349l0.003 0.001 0.514 0.198c0.089 0.302 0.2 0.563 0.337 0.809l-0.010-0.020-0.225 0.505c-0.020 0.045-0.032 0.097-0.032 0.152 0 0.103 0.042 0.197 0.11 0.265v0l0.801 0.801c0.068 0.068 0.161 0.11 0.265 0.11 0.055 0 0.108-0.012 0.155-0.033l-0.002 0.001 0.505-0.225c0.225 0.126 0.487 0.237 0.761 0.319l0.028 0.007 0.198 0.514c0.056 0.141 0.191 0.24 0.35 0.24h1.134c0.158-0 0.294-0.099 0.349-0.237l0.001-0.003 0.198-0.514c0.302-0.089 0.563-0.2 0.809-0.337l-0.020 0.010 0.505 0.225c0.045 0.021 0.097 0.033 0.153 0.033 0.103 0 0.197-0.042 0.265-0.11l0.801-0.801c0.068-0.068 0.109-0.162 0.109-0.265 0-0.055-0.012-0.108-0.033-0.155l0.001 0.002-0.225-0.505c0.126-0.225 0.237-0.487 0.319-0.761l0.007-0.028 0.514-0.199c0.141-0.056 0.24-0.191 0.24-0.35v-1.133c0-0 0-0 0-0 0-0.158-0.098-0.294-0.237-0.349l-0.003-0.001zM23.36 14.832l-0.453 0.171c-0.115 0.045-0.2 0.142-0.229 0.261l-0.001 0.003c-0.086 0.355-0.22 0.667-0.396 0.95l0.008-0.013c-0.035 0.056-0.055 0.124-0.055 0.196 0 0.055 0.012 0.108 0.033 0.155l-0.001-0.002 0.198 0.445-0.437 0.437-0.445-0.197c-0.045-0.021-0.097-0.032-0.153-0.032-0.073 0-0.141 0.021-0.198 0.057l0.002-0.001c-0.269 0.169-0.582 0.302-0.915 0.384l-0.022 0.005c-0.121 0.030-0.218 0.115-0.262 0.227l-0.001 0.003-0.171 0.453h-0.619l-0.171-0.453c-0.045-0.115-0.142-0.201-0.261-0.23l-0.003-0.001c-0.355-0.086-0.667-0.219-0.95-0.396l0.013 0.008c-0.056-0.035-0.124-0.056-0.196-0.056-0.055 0-0.108 0.012-0.155 0.033l0.002-0.001-0.445 0.197-0.437-0.437 0.197-0.445c0.020-0.045 0.032-0.097 0.032-0.152 0-0.073-0.021-0.141-0.056-0.198l0.001 0.002c-0.169-0.269-0.302-0.582-0.384-0.915l-0.005-0.022c-0.029-0.121-0.115-0.218-0.227-0.262l-0.003-0.001-0.453-0.171v-0.619l0.453-0.171c0.115-0.045 0.2-0.142 0.229-0.261l0.001-0.003c0.086-0.355 0.22-0.667 0.396-0.95l-0.008 0.013c0.035-0.056 0.055-0.124 0.055-0.196 0-0.055-0.012-0.108-0.033-0.155l0.001 0.002-0.197-0.445 0.437-0.437 0.445 0.197c0.045 0.020 0.097 0.032 0.152 0.032 0.073 0 0.141-0.021 0.198-0.056l-0.002 0.001c0.269-0.169 0.582-0.302 0.915-0.384l0.022-0.005c0.122-0.030 0.218-0.116 0.262-0.228l0.001-0.003 0.171-0.453h0.619l0.171 0.453c0.045 0.115 0.142 0.201 0.261 0.23l0.003 0.001c0.355 0.086 0.667 0.219 0.95 0.396l-0.013-0.008c0.056 0.035 0.124 0.055 0.196 0.055 0.055 0 0.108-0.012 0.155-0.033l-0.002 0.001 0.445-0.198 0.437 0.437-0.197 0.445c-0.020 0.045-0.032 0.097-0.032 0.152 0 0.073 0.021 0.141 0.056 0.198l-0.001-0.002c0.169 0.269 0.302 0.582 0.384 0.915l0.005 0.022c0.030 0.122 0.116 0.218 0.228 0.262l0.003 0.001 0.453 0.171v0.619zM19.547 12.172c-1.299 0-2.352 1.053-2.352 2.352s1.053 2.352 2.352 2.352c1.299 0 2.352-1.053 2.352-2.352v0c-0.001-1.298-1.054-2.351-2.352-2.352h-0zM19.547 16.127c-0.885 0-1.602-0.717-1.602-1.602s0.717-1.602 1.602-1.602c0.885 0 1.602 0.717 1.602 1.602v0c-0.001 0.884-0.718 1.601-1.602 1.602h-0zM13.859 3.176c-1.299 0-2.352 1.053-2.352 2.352s1.053 2.352 2.352 2.352c1.299 0 2.352-1.053 2.352-2.352v0c-0.001-1.298-1.054-2.351-2.352-2.352h-0zM13.859 7.131c-0.885 0-1.602-0.717-1.602-1.602s0.717-1.602 1.602-1.602c0.885 0 1.602 0.717 1.602 1.602v0c-0.001 0.884-0.718 1.6-1.602 1.601h-0zM16.268 9.234c0.045 0.020 0.097 0.032 0.152 0.032 0.103 0 0.197-0.042 0.265-0.11v0l0.801-0.801c0.068-0.068 0.109-0.162 0.109-0.265 0-0.055-0.012-0.108-0.033-0.155l0.001 0.002-0.225-0.505c0.126-0.225 0.237-0.487 0.319-0.761l0.007-0.028 0.514-0.199c0.141-0.056 0.24-0.191 0.24-0.35v-1.135c-0-0.158-0.099-0.294-0.237-0.349l-0.003-0.001-0.514-0.198c-0.089-0.302-0.2-0.563-0.337-0.809l0.010 0.020 0.225-0.505c0.020-0.045 0.032-0.097 0.032-0.152 0-0.104-0.042-0.198-0.11-0.266l-0.801-0.801c-0.068-0.068-0.162-0.11-0.266-0.11-0.055 0-0.107 0.012-0.154 0.033l0.002-0.001-0.505 0.225c-0.225-0.126-0.487-0.237-0.761-0.319l-0.028-0.007-0.198-0.514c-0.056-0.141-0.191-0.24-0.35-0.24h-1.133c-0.158 0-0.294 0.099-0.349 0.237l-0.001 0.003-0.198 0.514c-0.302 0.089-0.563 0.2-0.809 0.337l0.020-0.010-0.505-0.225c-0.045-0.020-0.097-0.032-0.152-0.032-0.104 0-0.198 0.042-0.266 0.11l-0.801 0.801c-0.068 0.068-0.109 0.162-0.109 0.265 0 0.055 0.012 0.108 0.033 0.155l-0.001-0.002 0.225 0.505c-0.126 0.225-0.237 0.487-0.319 0.761l-0.007 0.028-0.514 0.198c-0.141 0.056-0.24 0.191-0.24 0.35v1.134c0 0.158 0.099 0.294 0.237 0.349l0.003 0.001 0.514 0.198c0.089 0.302 0.2 0.563 0.337 0.809l-0.010-0.020-0.225 0.505c-0.020 0.045-0.032 0.097-0.032 0.152 0 0.103 0.042 0.197 0.11 0.265v0l0.801 0.801c0.068 0.068 0.161 0.11 0.265 0.11 0.055 0 0.108-0.012 0.155-0.033l-0.002 0.001 0.505-0.225c0.225 0.126 0.487 0.237 0.761 0.319l0.028 0.007 0.198 0.514c0.056 0.141 0.191 0.24 0.35 0.24h1.134c0.158-0 0.294-0.099 0.349-0.237l0.001-0.003 0.198-0.514c0.302-0.089 0.563-0.2 0.809-0.337l-0.020 0.010zM15.543 8.27c-0.269 0.169-0.582 0.302-0.915 0.384l-0.022 0.005c-0.121 0.030-0.218 0.115-0.262 0.227l-0.001 0.003-0.171 0.453h-0.619l-0.171-0.453c-0.045-0.115-0.142-0.201-0.261-0.23l-0.003-0.001c-0.355-0.086-0.667-0.219-0.95-0.396l0.013 0.008c-0.056-0.035-0.124-0.055-0.196-0.055-0.055 0-0.108 0.012-0.155 0.033l0.002-0.001-0.445 0.197-0.437-0.437 0.197-0.445c0.020-0.045 0.032-0.097 0.032-0.152 0-0.073-0.021-0.141-0.056-0.198l0.001 0.002c-0.169-0.269-0.302-0.582-0.384-0.915l-0.005-0.022c-0.029-0.121-0.115-0.218-0.227-0.262l-0.003-0.001-0.453-0.171v-0.619l0.453-0.171c0.115-0.045 0.2-0.142 0.229-0.261l0.001-0.003c0.086-0.355 0.22-0.667 0.396-0.95l-0.008 0.013c0.035-0.056 0.055-0.124 0.055-0.196 0-0.055-0.012-0.108-0.033-0.155l0.001 0.002-0.197-0.445 0.437-0.437 0.445 0.197c0.045 0.020 0.097 0.032 0.152 0.032 0.073 0 0.141-0.021 0.198-0.056l-0.002 0.001c0.269-0.169 0.582-0.302 0.915-0.384l0.022-0.005c0.121-0.030 0.218-0.115 0.262-0.227l0.001-0.003 0.171-0.453h0.611l0.171 0.453c0.045 0.115 0.142 0.2 0.261 0.229l0.003 0.001c0.355 0.086 0.667 0.219 0.95 0.396l-0.013-0.008c0.056 0.035 0.124 0.055 0.196 0.055 0.055 0 0.108-0.012 0.155-0.033l-0.002 0.001 0.445-0.198 0.437 0.437-0.197 0.445c-0.020 0.045-0.032 0.097-0.032 0.152 0 0.073 0.021 0.141 0.056 0.198l-0.001-0.002c0.169 0.269 0.302 0.582 0.384 0.915l0.005 0.022c0.030 0.122 0.116 0.218 0.228 0.262l0.003 0.001 0.453 0.171v0.619l-0.453 0.171c-0.115 0.045-0.2 0.142-0.229 0.261l-0.001 0.003c-0.086 0.355-0.22 0.667-0.396 0.95l0.008-0.013c-0.035 0.056-0.055 0.124-0.055 0.196 0 0.055 0.012 0.108 0.033 0.155l-0.001-0.002 0.198 0.445-0.437 0.437-0.445-0.197c-0.045-0.020-0.097-0.032-0.152-0.032-0.073 0-0.141 0.021-0.198 0.056l0.002-0.001zM0.476 9.375c-0.055-0.065-0.089-0.15-0.089-0.242 0-0.115 0.051-0.217 0.133-0.286l0.001-0c1.351-1.145 3.040-1.933 4.896-2.198l0.052-0.006-0.793-0.421c-0.111-0.067-0.184-0.186-0.184-0.323 0-0.207 0.168-0.375 0.375-0.375 0.058 0 0.113 0.013 0.162 0.037l-0.002-0.001 1.949 1.035c0.119 0.065 0.199 0.189 0.199 0.331 0 0.115-0.052 0.218-0.134 0.287l-0.001 0-1.533 1.28c-0.063 0.049-0.143 0.078-0.23 0.078-0.207 0-0.375-0.168-0.375-0.375 0-0.111 0.048-0.21 0.124-0.279l0-0 0.652-0.547c-1.804 0.233-3.403 0.968-4.691 2.059l0.013-0.011c-0.065 0.055-0.15 0.088-0.242 0.088-0.115 0-0.217-0.051-0.286-0.133l-0-0.001zM18.99 4.245l0.417-1.953c0.038-0.171 0.188-0.296 0.367-0.296 0.079 0 0.152 0.024 0.212 0.066l-0.001-0.001 1.825 1.241c0.093 0.069 0.153 0.179 0.153 0.302 0 0.207-0.168 0.375-0.375 0.375-0.074 0-0.142-0.021-0.2-0.058l0.002 0.001-0.777-0.529c0.207 0.637 0.327 1.37 0.327 2.131 0 1.020-0.215 1.99-0.602 2.868l0.018-0.045c-0.065 0.118-0.188 0.197-0.33 0.197-0.207 0-0.375-0.168-0.375-0.375 0-0.043 0.007-0.084 0.021-0.123l-0.001 0.003c0.33-0.743 0.522-1.61 0.522-2.522 0-0.684-0.108-1.343-0.308-1.96l0.013 0.045-0.171 0.791c-0.043 0.164-0.189 0.283-0.364 0.283-0.207 0-0.375-0.168-0.375-0.375 0-0.023 0.002-0.045 0.006-0.066l-0 0.002zM23.735 20.016c0.029 0.052 0.046 0.114 0.046 0.18 0 0.063-0.015 0.122-0.043 0.174l0.001-0.002-1.013 1.96c-0.059 0.135-0.191 0.227-0.345 0.227-0.207 0-0.375-0.168-0.375-0.375 0-0.072 0.020-0.139 0.055-0.196l-0.001 0.002 0.42-0.812c-0.859 0.409-1.866 0.648-2.93 0.648-1.401 0-2.704-0.414-3.795-1.127l0.027 0.016c-0.111-0.067-0.184-0.186-0.184-0.323 0-0.207 0.168-0.375 0.375-0.375 0.080 0 0.155 0.025 0.216 0.068l-0.001-0.001c0.951 0.62 2.114 0.988 3.364 0.988 0.97 0 1.888-0.222 2.706-0.618l-0.037 0.016-0.837-0.075c-0.198-0.012-0.353-0.175-0.353-0.375 0-0.207 0.168-0.375 0.375-0.375 0.016 0 0.032 0.001 0.047 0.003l-0.002-0 1.989 0.18c0.127 0.014 0.234 0.089 0.291 0.194l0.001 0.002z"></path>
<path d="M7.655 23.087h-1.714c-0.204-0.001-0.378-0.127-0.449-0.305l-0.001-0.003-0.315-0.816c-0.476-0.136-0.891-0.312-1.277-0.529l0.029 0.015-0.795 0.348c-0.058 0.026-0.125 0.042-0.196 0.042-0.133 0-0.253-0.054-0.341-0.141v0l-1.209-1.206c-0.087-0.088-0.14-0.208-0.14-0.341 0-0.071 0.015-0.138 0.042-0.198l-0.001 0.003 0.355-0.8c-0.203-0.357-0.378-0.772-0.504-1.207l-0.010-0.041-0.819-0.31c-0.182-0.072-0.308-0.246-0.309-0.45v-1.714c0.001-0.204 0.127-0.378 0.306-0.449l0.003-0.001 0.816-0.314c0.136-0.476 0.312-0.89 0.529-1.277l-0.015 0.029-0.355-0.8c-0.026-0.057-0.041-0.125-0.041-0.195 0-0.133 0.054-0.254 0.14-0.341l1.209-1.209c0.087-0.087 0.208-0.141 0.341-0.141 0.071 0 0.138 0.015 0.199 0.043l-0.003-0.001 0.8 0.355c0.357-0.203 0.772-0.378 1.207-0.504l0.041-0.010 0.315-0.816c0.072-0.182 0.246-0.308 0.45-0.309h1.714c0.204 0.001 0.378 0.127 0.449 0.305l0.001 0.003 0.315 0.816c0.476 0.136 0.891 0.312 1.277 0.53l-0.029-0.015 0.8-0.355c0.058-0.026 0.125-0.042 0.196-0.042 0.133 0 0.253 0.054 0.341 0.141l1.209 1.209c0.087 0.088 0.14 0.208 0.14 0.341 0 0.071-0.015 0.138-0.042 0.198l0.001-0.003-0.355 0.8c0.203 0.357 0.378 0.772 0.504 1.207l0.010 0.041 0.816 0.314c0.182 0.072 0.308 0.246 0.309 0.45v1.71c-0.001 0.204-0.127 0.378-0.305 0.449l-0.003 0.001-0.816 0.315c-0.136 0.476-0.312 0.891-0.53 1.277l0.015-0.029 0.356 0.8c0.026 0.057 0.041 0.125 0.041 0.195 0 0.133-0.054 0.254-0.14 0.341l-1.209 1.209c-0.087 0.087-0.208 0.141-0.341 0.141-0.071 0-0.138-0.015-0.199-0.043l0.003 0.001-0.8-0.355c-0.358 0.203-0.772 0.378-1.207 0.504l-0.041 0.010-0.314 0.816c-0.072 0.184-0.247 0.312-0.453 0.312h-0zM3.945 21.201l0.047 0.027c0.373 0.217 0.804 0.4 1.259 0.529l0.040 0.010 0.052 0.015 0.353 0.917c0.040 0.101 0.137 0.171 0.25 0.171h1.714c0.113-0 0.21-0.070 0.25-0.17l0.001-0.002 0.353-0.916 0.052-0.015c0.494-0.138 0.926-0.321 1.326-0.553l-0.027 0.015 0.047-0.027 0.898 0.399c0.032 0.015 0.069 0.023 0.109 0.023 0.074 0 0.141-0.030 0.19-0.079v0l1.203-1.206c0.048-0.049 0.078-0.116 0.078-0.19 0-0.039-0.008-0.076-0.023-0.11l0.001 0.002-0.399-0.902 0.027-0.047c0.217-0.373 0.4-0.804 0.529-1.259l0.010-0.040 0.015-0.052 0.917-0.353c0.101-0.040 0.171-0.137 0.171-0.25v-1.714c-0-0.113-0.070-0.21-0.17-0.25l-0.002-0.001-0.916-0.353-0.015-0.052c-0.138-0.494-0.322-0.926-0.553-1.326l0.015 0.027-0.027-0.047 0.399-0.898c0.014-0.032 0.023-0.069 0.023-0.108 0-0.074-0.030-0.141-0.078-0.19v0l-1.209-1.209c-0.048-0.049-0.116-0.079-0.19-0.079-0.039 0-0.077 0.009-0.11 0.024l0.002-0.001-0.898 0.399-0.047-0.027c-0.373-0.217-0.804-0.4-1.259-0.529l-0.040-0.010-0.052-0.015-0.351-0.907c-0.040-0.101-0.137-0.171-0.25-0.171h-1.714c-0.113 0-0.21 0.070-0.25 0.17l-0.001 0.002-0.353 0.917-0.052 0.015c-0.494 0.138-0.926 0.321-1.326 0.553l0.027-0.015-0.047 0.027-0.895-0.399c-0.032-0.015-0.069-0.023-0.109-0.023-0.074 0-0.141 0.030-0.19 0.079v0l-1.209 1.209c-0.048 0.049-0.078 0.116-0.078 0.19 0 0.039 0.008 0.076 0.023 0.11l-0.001-0.002 0.399 0.898-0.027 0.051c-0.217 0.373-0.4 0.804-0.529 1.259l-0.010 0.040-0.015 0.052-0.917 0.353c-0.101 0.040-0.171 0.137-0.171 0.25v1.714c0 0.113 0.070 0.21 0.17 0.25l0.002 0.001 0.917 0.353 0.015 0.052c0.139 0.491 0.322 0.92 0.553 1.317l-0.015-0.027 0.027 0.047-0.399 0.898c-0.014 0.032-0.023 0.069-0.023 0.108 0 0.074 0.030 0.141 0.078 0.19v0l1.209 1.209c0.048 0.049 0.115 0.079 0.19 0.079 0.039 0 0.077-0.009 0.11-0.024l-0.002 0.001zM22.393 22.643c-0.266-0-0.482-0.216-0.482-0.483 0-0.081 0.020-0.157 0.055-0.224l-0.001 0.003 0.281-0.543c-0.797 0.339-1.724 0.535-2.696 0.535-1.422 0-2.746-0.421-3.854-1.144l0.027 0.017c-0.143-0.085-0.238-0.24-0.238-0.416 0-0.267 0.216-0.483 0.483-0.483 0.104 0 0.2 0.033 0.279 0.089l-0.002-0.001c0.93 0.61 2.069 0.973 3.293 0.974h0c0.812-0.001 1.586-0.158 2.296-0.443l-0.042 0.015-0.419-0.038c-0.259-0.010-0.465-0.222-0.465-0.482 0-0.267 0.216-0.483 0.483-0.483 0.024 0 0.048 0.002 0.071 0.005l-0.003-0 1.988 0.18c0.247 0.023 0.439 0.23 0.439 0.481 0 0.081-0.020 0.157-0.055 0.224l0.001-0.003-1.010 1.96c-0.082 0.156-0.242 0.261-0.427 0.261-0 0-0.001 0-0.001 0h0zM22.719 20.948l-0.563 1.089c-0.024 0.039-0.038 0.087-0.038 0.138 0 0.148 0.12 0.268 0.268 0.268 0.109 0 0.203-0.065 0.245-0.158l0.001-0.002 1.013-1.96c0.019-0.036 0.030-0.078 0.030-0.123 0-0.14-0.107-0.254-0.243-0.267l-0.001-0-1.989-0.18h-0.026c-0.145 0.004-0.262 0.122-0.262 0.268 0 0.138 0.104 0.251 0.237 0.267l0.001 0 1.227 0.111-0.353 0.171c-0.795 0.388-1.729 0.615-2.717 0.615-1.271 0-2.454-0.376-3.445-1.022l0.024 0.015c-0.038-0.022-0.084-0.035-0.132-0.035-0.148 0-0.268 0.12-0.268 0.268 0 0.089 0.043 0.167 0.109 0.216l0.001 0.001c1.044 0.685 2.324 1.092 3.698 1.093h0c1.051-0.001 2.047-0.236 2.939-0.656l-0.042 0.018zM7.471 22.337h-1.341l-0.338-0.875c-0.032-0.082-0.101-0.143-0.186-0.164l-0.002-0c-0.568-0.138-1.069-0.352-1.521-0.635l0.021 0.013c-0.040-0.025-0.088-0.039-0.14-0.039-0.039 0-0.077 0.008-0.111 0.024l0.002-0.001-0.857 0.381-0.95-0.949 0.381-0.857c0.014-0.032 0.023-0.069 0.023-0.108 0-0.052-0.015-0.101-0.041-0.142l0.001 0.001c-0.271-0.432-0.485-0.932-0.615-1.466l-0.007-0.035c-0.021-0.087-0.083-0.156-0.163-0.187l-0.002-0.001-0.874-0.337v-1.342l0.875-0.334c0.082-0.032 0.143-0.101 0.164-0.186l0-0.002c0.138-0.569 0.352-1.069 0.635-1.522l-0.013 0.021c0.025-0.040 0.040-0.089 0.040-0.141 0-0.039-0.008-0.077-0.024-0.11l0.001 0.002-0.381-0.857 0.949-0.949 0.857 0.381c0.032 0.014 0.070 0.023 0.109 0.023 0.052 0 0.1-0.015 0.142-0.040l-0.001 0.001c0.432-0.271 0.932-0.485 1.466-0.615l0.035-0.007c0.087-0.021 0.156-0.083 0.187-0.163l0.001-0.002 0.337-0.875h1.341l0.337 0.875c0.032 0.082 0.101 0.143 0.186 0.164l0.002 0c0.568 0.138 1.069 0.352 1.521 0.635l-0.021-0.013c0.040 0.025 0.088 0.039 0.14 0.039 0.039 0 0.077-0.008 0.111-0.024l-0.002 0.001 0.857-0.381 0.949 0.949-0.381 0.857c-0.014 0.032-0.023 0.069-0.023 0.108 0 0.052 0.015 0.101 0.041 0.142l-0.001-0.001c0.271 0.432 0.485 0.932 0.615 1.466l0.007 0.035c0.021 0.087 0.083 0.156 0.163 0.187l0.002 0.001 0.875 0.337v1.269h-0.086l0.016 0.1-0.807 0.31c-0.082 0.032-0.143 0.101-0.164 0.186l-0 0.002c-0.138 0.568-0.352 1.069-0.635 1.521l0.013-0.021c-0.025 0.040-0.040 0.088-0.040 0.14 0 0.040 0.009 0.077 0.024 0.111l-0.001-0.002 0.381 0.857-0.949 0.949-0.857-0.381c-0.032-0.014-0.069-0.023-0.108-0.023-0.052 0-0.101 0.015-0.142 0.040l0.001-0.001c-0.432 0.271-0.932 0.485-1.466 0.615l-0.035 0.007c-0.087 0.021-0.156 0.083-0.187 0.163l-0.001 0.002zM6.279 22.123h1.046l0.284-0.738c0.058-0.148 0.182-0.258 0.335-0.295l0.003-0.001c0.545-0.133 1.025-0.339 1.459-0.612l-0.020 0.012c0.072-0.045 0.159-0.071 0.253-0.071 0.071 0 0.138 0.015 0.198 0.042l-0.003-0.001 0.723 0.321 0.741-0.741-0.321-0.723c-0.026-0.058-0.041-0.125-0.041-0.196 0-0.093 0.027-0.181 0.073-0.255l-0.001 0.002c0.261-0.413 0.467-0.893 0.593-1.404l0.007-0.034c0.038-0.156 0.148-0.281 0.292-0.337l0.003-0.001 0.738-0.284v-1.045l-0.738-0.284c-0.148-0.058-0.258-0.182-0.295-0.335l-0.001-0.003c-0.133-0.545-0.339-1.025-0.612-1.459l0.012 0.020c-0.045-0.072-0.071-0.159-0.071-0.253 0-0.071 0.015-0.138 0.043-0.199l-0.001 0.003 0.321-0.723-0.741-0.741-0.723 0.321c-0.058 0.026-0.125 0.041-0.195 0.041-0.094 0-0.181-0.026-0.255-0.072l0.002 0.001c-0.413-0.261-0.893-0.467-1.404-0.593l-0.034-0.007c-0.156-0.038-0.281-0.148-0.337-0.292l-0.001-0.003-0.284-0.738h-1.047l-0.284 0.738c-0.058 0.148-0.182 0.258-0.335 0.295l-0.003 0.001c-0.545 0.133-1.024 0.339-1.458 0.612l0.020-0.012c-0.072 0.045-0.159 0.071-0.253 0.071-0.071 0-0.138-0.015-0.198-0.042l0.003 0.001-0.723-0.321-0.741 0.741 0.321 0.723c0.026 0.058 0.042 0.125 0.042 0.196 0 0.093-0.027 0.181-0.073 0.255l0.001-0.002c-0.261 0.413-0.467 0.893-0.593 1.404l-0.007 0.034c-0.038 0.156-0.148 0.281-0.292 0.337l-0.003 0.001-0.738 0.285v1.047l0.738 0.284c0.148 0.058 0.258 0.182 0.295 0.335l0.001 0.003c0.133 0.545 0.339 1.025 0.612 1.459l-0.012-0.020c0.045 0.072 0.071 0.159 0.071 0.253 0 0.071-0.015 0.138-0.043 0.199l0.001-0.003-0.321 0.723 0.741 0.741 0.723-0.321c0.058-0.026 0.125-0.041 0.195-0.041 0.094 0 0.181 0.026 0.255 0.072l-0.002-0.001c0.413 0.261 0.893 0.467 1.404 0.593l0.034 0.007c0.156 0.038 0.281 0.148 0.337 0.292l0.001 0.003zM6.802 20.013c-2.057 0-3.725-1.668-3.725-3.725s1.668-3.725 3.725-3.725c2.057 0 3.725 1.668 3.725 3.725v0c-0.002 2.057-1.67 3.724-3.728 3.725h-0zM6.802 12.777c-1.941 0-3.514 1.573-3.514 3.514s1.573 3.514 3.514 3.514c1.941 0 3.514-1.573 3.514-3.514v0c0-1.941-1.573-3.514-3.514-3.514-0.001 0-0.002 0-0.003 0h0zM6.802 19.263c-1.643 0-2.975-1.332-2.975-2.975s1.332-2.975 2.975-2.975c1.643 0 2.975 1.332 2.975 2.975v0c-0.002 1.643-1.334 2.975-2.978 2.975h-0zM6.802 13.527c-1.525 0-2.761 1.236-2.761 2.761s1.236 2.761 2.761 2.761c1.525 0 2.761-1.236 2.761-2.761v0c-0.001-1.525-1.238-2.761-2.763-2.761v0zM20.116 19.196h-1.137c-0.204-0.001-0.378-0.127-0.449-0.305l-0.001-0.003-0.179-0.466c-0.274-0.085-0.51-0.185-0.733-0.305l0.022 0.011-0.457 0.203c-0.058 0.026-0.125 0.042-0.196 0.042-0.133 0-0.253-0.054-0.341-0.141l-0.801-0.801c-0.087-0.088-0.14-0.208-0.14-0.341 0-0.071 0.015-0.138 0.042-0.198l-0.001 0.003 0.203-0.457c-0.11-0.202-0.21-0.438-0.287-0.684l-0.008-0.029-0.466-0.179c-0.182-0.072-0.308-0.246-0.309-0.45v-1.136c0.001-0.204 0.127-0.378 0.305-0.449l0.003-0.001 0.466-0.179c0.085-0.274 0.185-0.51 0.305-0.733l-0.011 0.022-0.203-0.457c-0.026-0.057-0.041-0.125-0.041-0.195 0-0.133 0.054-0.254 0.14-0.341l0.801-0.801c0.087-0.087 0.208-0.141 0.341-0.141 0.071 0 0.138 0.015 0.199 0.043l-0.003-0.001 0.457 0.203c0.201-0.11 0.437-0.21 0.683-0.287l0.029-0.008 0.179-0.466c0.072-0.182 0.246-0.308 0.45-0.309h1.134c0.204 0.001 0.378 0.127 0.449 0.305l0.001 0.003 0.179 0.466c0.274 0.085 0.51 0.185 0.733 0.305l-0.022-0.011 0.457-0.203c0.058-0.026 0.125-0.042 0.196-0.042 0.133 0 0.253 0.054 0.341 0.141l0.801 0.801c0.087 0.088 0.14 0.208 0.14 0.341 0 0.071-0.015 0.138-0.042 0.198l0.001-0.003-0.203 0.457c0.11 0.202 0.21 0.438 0.287 0.684l0.008 0.029 0.466 0.179c0.182 0.072 0.308 0.246 0.309 0.45v1.134c-0.001 0.204-0.127 0.378-0.305 0.449l-0.003 0.001-0.466 0.18c-0.085 0.274-0.185 0.51-0.305 0.733l0.011-0.022 0.203 0.457c0.026 0.057 0.040 0.124 0.040 0.194 0 0.132-0.053 0.253-0.139 0.34l-0.801 0.801c-0.087 0.087-0.208 0.141-0.341 0.141-0.071 0-0.138-0.015-0.199-0.043l0.003 0.001-0.457-0.203c-0.202 0.11-0.438 0.21-0.684 0.287l-0.029 0.008-0.179 0.466c-0.071 0.183-0.246 0.311-0.45 0.312h-0zM17.651 17.887l0.046 0.026c0.219 0.123 0.473 0.231 0.74 0.311l0.027 0.007 0.051 0.015 0.218 0.565c0.040 0.101 0.137 0.171 0.25 0.171h1.134c0.113-0 0.21-0.070 0.25-0.17l0.001-0.002 0.218-0.565 0.051-0.015c0.294-0.087 0.548-0.195 0.787-0.328l-0.020 0.010 0.046-0.026 0.554 0.246c0.032 0.015 0.069 0.023 0.109 0.023 0.074 0 0.141-0.030 0.19-0.079v0l0.801-0.801c0.048-0.049 0.078-0.116 0.078-0.19 0-0.039-0.008-0.076-0.023-0.11l0.001 0.002-0.246-0.554 0.026-0.046c0.121-0.219 0.227-0.473 0.305-0.74l0.007-0.027 0.015-0.051 0.565-0.218c0.101-0.040 0.171-0.137 0.171-0.25v-1.134c-0-0.113-0.070-0.21-0.17-0.25l-0.002-0.001-0.565-0.218-0.015-0.050c-0.087-0.294-0.195-0.548-0.328-0.787l0.010 0.020-0.025-0.048 0.246-0.554c0.014-0.032 0.023-0.069 0.023-0.108 0-0.074-0.030-0.141-0.078-0.19v0l-0.801-0.801c-0.048-0.049-0.116-0.079-0.19-0.079-0.039 0-0.077 0.009-0.11 0.024l0.002-0.001-0.554 0.246-0.046-0.026c-0.219-0.123-0.473-0.231-0.74-0.311l-0.027-0.007-0.051-0.015-0.218-0.565c-0.040-0.101-0.137-0.171-0.25-0.171h-1.132c-0.113 0-0.21 0.070-0.25 0.17l-0.001 0.002-0.218 0.565-0.051 0.015c-0.294 0.087-0.548 0.195-0.787 0.328l0.020-0.010-0.046 0.026-0.554-0.246c-0.032-0.015-0.069-0.023-0.109-0.023-0.074 0-0.141 0.030-0.19 0.079v0l-0.801 0.801c-0.048 0.049-0.078 0.116-0.078 0.19 0 0.039 0.008 0.076 0.023 0.11l-0.001-0.002 0.246 0.554-0.026 0.046c-0.123 0.219-0.231 0.473-0.311 0.74l-0.007 0.027-0.015 0.051-0.565 0.218c-0.101 0.040-0.171 0.137-0.171 0.25v1.134c0 0.113 0.071 0.21 0.17 0.25l0.002 0.001 0.565 0.218 0.015 0.051c0.087 0.294 0.195 0.548 0.328 0.787l-0.010-0.020 0.026 0.046-0.246 0.554c-0.014 0.032-0.023 0.069-0.023 0.108 0 0.074 0.030 0.141 0.078 0.19v0l0.801 0.801c0.048 0.049 0.116 0.079 0.19 0.079 0.039 0 0.077-0.009 0.11-0.024l-0.002 0.001zM19.933 18.446h-0.765l-0.203-0.523c-0.032-0.082-0.101-0.143-0.186-0.164l-0.002-0c-0.367-0.089-0.69-0.227-0.982-0.409l0.014 0.008c-0.040-0.025-0.088-0.039-0.14-0.039-0.039 0-0.077 0.008-0.111 0.024l0.002-0.001-0.514 0.227-0.542-0.542 0.227-0.514c0.015-0.032 0.023-0.069 0.023-0.109 0-0.052-0.015-0.101-0.041-0.142l0.001 0.001c-0.175-0.279-0.313-0.602-0.396-0.946l-0.005-0.023c-0.021-0.087-0.083-0.156-0.163-0.187l-0.002-0.001-0.522-0.201v-0.763l0.522-0.201c0.082-0.032 0.143-0.101 0.164-0.186l0-0.002c0.089-0.367 0.227-0.69 0.409-0.982l-0.008 0.014c0.025-0.040 0.040-0.089 0.040-0.141 0-0.039-0.008-0.077-0.024-0.11l0.001 0.002-0.227-0.514 0.542-0.542 0.514 0.227c0.032 0.014 0.069 0.023 0.108 0.023 0.052 0 0.101-0.015 0.142-0.040l-0.001 0.001c0.279-0.174 0.602-0.313 0.946-0.396l0.023-0.005c0.086-0.021 0.155-0.081 0.187-0.159l0.001-0.002 0.201-0.523h0.765l0.201 0.523c0.032 0.082 0.101 0.143 0.186 0.164l0.002 0c0.367 0.089 0.69 0.227 0.982 0.409l-0.014-0.008c0.040 0.025 0.089 0.040 0.141 0.040 0.039 0 0.076-0.008 0.11-0.023l-0.002 0.001 0.514-0.227 0.542 0.542-0.227 0.514c-0.015 0.032-0.023 0.069-0.023 0.109 0 0.052 0.015 0.101 0.041 0.142l-0.001-0.001c0.175 0.279 0.313 0.602 0.396 0.946l0.005 0.023c0.021 0.087 0.083 0.156 0.163 0.187l0.002 0.001 0.522 0.201v0.766l-0.523 0.201c-0.082 0.032-0.143 0.101-0.164 0.186l-0 0.002c-0.089 0.367-0.227 0.69-0.409 0.982l0.008-0.014c-0.025 0.040-0.040 0.089-0.040 0.141 0 0.039 0.008 0.077 0.024 0.11l-0.001-0.002 0.227 0.514-0.542 0.542-0.516-0.236c-0.032-0.014-0.069-0.023-0.108-0.023-0.052 0-0.101 0.015-0.142 0.040l0.001-0.001c-0.279 0.174-0.602 0.313-0.946 0.396l-0.023 0.005c-0.087 0.021-0.156 0.083-0.187 0.163l-0.001 0.002zM19.314 18.231h0.471l0.148-0.385c0.058-0.148 0.182-0.258 0.335-0.295l0.003-0.001c0.343-0.083 0.645-0.212 0.919-0.383l-0.013 0.008c0.072-0.045 0.159-0.071 0.253-0.071 0.071 0 0.138 0.015 0.198 0.042l-0.003-0.001 0.377 0.171 0.333-0.333-0.171-0.378c-0.026-0.058-0.042-0.125-0.042-0.196 0-0.093 0.027-0.181 0.073-0.255l-0.001 0.002c0.163-0.26 0.292-0.562 0.371-0.884l0.004-0.021c0.038-0.156 0.148-0.281 0.292-0.337l0.003-0.001 0.383-0.153v-0.471l-0.385-0.148c-0.148-0.058-0.258-0.182-0.295-0.335l-0.001-0.003c-0.083-0.343-0.212-0.645-0.383-0.919l0.008 0.013c-0.045-0.072-0.072-0.159-0.072-0.253 0-0.071 0.015-0.138 0.043-0.199l-0.001 0.003 0.171-0.377-0.333-0.333-0.378 0.171c-0.058 0.026-0.125 0.041-0.195 0.041-0.094 0-0.181-0.026-0.255-0.072l0.002 0.001c-0.26-0.163-0.562-0.292-0.884-0.371l-0.021-0.004c-0.156-0.038-0.281-0.148-0.337-0.292l-0.001-0.003-0.148-0.385h-0.477l-0.148 0.385c-0.058 0.148-0.182 0.258-0.335 0.295l-0.003 0.001c-0.343 0.083-0.645 0.212-0.919 0.383l0.013-0.008c-0.072 0.045-0.159 0.071-0.253 0.071-0.071 0-0.138-0.015-0.198-0.042l0.003 0.001-0.378-0.171-0.333 0.333 0.171 0.378c0.026 0.058 0.042 0.125 0.042 0.196 0 0.093-0.027 0.181-0.073 0.255l0.001-0.002c-0.163 0.261-0.292 0.563-0.371 0.885l-0.004 0.021c-0.038 0.156-0.148 0.281-0.292 0.337l-0.003 0.001-0.385 0.148v0.471l0.385 0.148c0.148 0.058 0.258 0.182 0.295 0.335l0.001 0.003c0.083 0.343 0.212 0.645 0.383 0.919l-0.008-0.013c0.045 0.072 0.072 0.159 0.072 0.253 0 0.071-0.015 0.138-0.043 0.199l0.001-0.003-0.171 0.377 0.333 0.333 0.378-0.171c0.058-0.026 0.125-0.041 0.195-0.041 0.094 0 0.181 0.026 0.255 0.072l-0.002-0.001c0.26 0.163 0.562 0.292 0.884 0.371l0.021 0.004c0.156 0.038 0.281 0.148 0.337 0.292l0.001 0.003zM19.55 16.984c-1.358 0-2.459-1.101-2.459-2.459s1.101-2.459 2.459-2.459c1.358 0 2.459 1.101 2.459 2.459v0c-0.002 1.358-1.103 2.459-2.462 2.459h-0zM19.55 12.279c-0.001 0-0.001 0-0.002 0-1.24 0-2.245 1.005-2.245 2.245s1.005 2.245 2.245 2.245c1.239 0 2.244-1.005 2.245-2.244v-0c-0.002-1.239-1.007-2.242-2.246-2.243h-0zM19.55 16.234c-0.944 0-1.709-0.765-1.709-1.709s0.765-1.709 1.709-1.709c0.944 0 1.709 0.765 1.709 1.709v0c-0.003 0.944-0.768 1.708-1.712 1.709h-0zM19.55 13.030c-0.826 0-1.495 0.669-1.495 1.495s0.669 1.495 1.495 1.495c0.826 0 1.495-0.669 1.495-1.495v0c-0-0.826-0.67-1.496-1.497-1.496-0 0-0.001 0-0.001 0h0zM14.429 10.202h-1.137c-0.204-0.001-0.378-0.127-0.449-0.305l-0.001-0.003-0.179-0.466c-0.274-0.085-0.51-0.185-0.733-0.305l0.022 0.011-0.457 0.203c-0.058 0.026-0.125 0.042-0.196 0.042-0.133 0-0.253-0.054-0.341-0.141l-0.801-0.801c-0.087-0.088-0.14-0.208-0.14-0.341 0-0.071 0.015-0.138 0.042-0.198l-0.001 0.003 0.203-0.457c-0.11-0.202-0.21-0.438-0.287-0.684l-0.008-0.029-0.466-0.179c-0.182-0.072-0.308-0.246-0.309-0.45v-1.138c0.001-0.204 0.127-0.378 0.305-0.449l0.003-0.001 0.466-0.179c0.085-0.274 0.185-0.51 0.305-0.733l-0.011 0.022-0.203-0.457c-0.026-0.057-0.041-0.125-0.041-0.195 0-0.133 0.054-0.254 0.14-0.341l0.801-0.801c0.087-0.087 0.208-0.141 0.341-0.141 0.071 0 0.138 0.015 0.199 0.043l-0.003-0.001 0.457 0.203c0.201-0.11 0.437-0.21 0.683-0.287l0.029-0.008 0.179-0.466c0.072-0.182 0.246-0.308 0.45-0.309h1.134c0.204 0.001 0.378 0.127 0.449 0.305l0.001 0.003 0.179 0.466c0.274 0.085 0.51 0.185 0.733 0.305l-0.022-0.011 0.457-0.203c0.058-0.026 0.125-0.042 0.196-0.042 0.133 0 0.253 0.054 0.341 0.141l0.801 0.801c0.087 0.088 0.14 0.208 0.14 0.341 0 0.071-0.015 0.138-0.042 0.198l0.001-0.003-0.203 0.457c0.11 0.202 0.21 0.438 0.287 0.684l0.008 0.029 0.466 0.179c0.182 0.072 0.308 0.246 0.309 0.45v1.134c-0.001 0.204-0.127 0.378-0.305 0.449l-0.003 0.001-0.466 0.179c-0.085 0.274-0.185 0.51-0.305 0.733l0.011-0.022 0.203 0.457c0.026 0.057 0.041 0.125 0.041 0.195 0 0.133-0.054 0.254-0.14 0.341l-0.801 0.801c-0.087 0.087-0.207 0.141-0.34 0.141-0.001 0-0.002 0-0.003 0h0c-0 0-0.001 0-0.001 0-0.070 0-0.137-0.015-0.197-0.042l0.003 0.001-0.457-0.203c-0.202 0.11-0.438 0.21-0.684 0.287l-0.029 0.008-0.179 0.466c-0.072 0.182-0.246 0.308-0.449 0.309h-0zM11.964 8.893l0.046 0.026c0.219 0.123 0.473 0.231 0.74 0.311l0.027 0.007 0.051 0.015 0.218 0.565c0.040 0.101 0.137 0.171 0.25 0.171h1.134c0.113-0 0.21-0.070 0.25-0.17l0.001-0.002 0.218-0.565 0.051-0.015c0.294-0.087 0.548-0.195 0.787-0.328l-0.020 0.010 0.046-0.026 0.554 0.246c0.032 0.015 0.069 0.023 0.108 0.023 0 0 0 0 0 0h-0c0 0 0 0 0 0 0.074 0 0.141-0.030 0.189-0.079l0.801-0.801c0.048-0.049 0.078-0.116 0.078-0.19 0-0.039-0.008-0.076-0.023-0.11l0.001 0.002-0.246-0.554 0.026-0.046c0.123-0.219 0.231-0.473 0.311-0.74l0.007-0.027 0.015-0.051 0.565-0.218c0.101-0.040 0.171-0.137 0.171-0.25v-1.137c-0-0.113-0.070-0.21-0.17-0.25l-0.002-0.001-0.565-0.218-0.015-0.051c-0.087-0.294-0.196-0.548-0.329-0.787l0.010 0.019-0.026-0.046 0.246-0.554c0.014-0.032 0.023-0.069 0.023-0.108 0-0.074-0.030-0.141-0.078-0.19v0l-0.801-0.801c-0.048-0.049-0.116-0.079-0.19-0.079-0.039 0-0.077 0.009-0.11 0.024l0.002-0.001-0.554 0.246-0.046-0.026c-0.219-0.123-0.473-0.231-0.74-0.311l-0.027-0.007-0.051-0.015-0.219-0.565c-0.040-0.101-0.137-0.171-0.25-0.171h-1.136c-0.113 0-0.21 0.070-0.25 0.17l-0.001 0.002-0.218 0.565-0.051 0.015c-0.294 0.087-0.548 0.195-0.787 0.328l0.020-0.010-0.046 0.026-0.554-0.246c-0.032-0.015-0.069-0.023-0.109-0.023-0.074 0-0.141 0.030-0.19 0.079v0l-0.801 0.801c-0.048 0.049-0.078 0.116-0.078 0.19 0 0.039 0.008 0.076 0.023 0.11l-0.001-0.002 0.246 0.554-0.026 0.046c-0.123 0.219-0.231 0.473-0.311 0.74l-0.007 0.027-0.015 0.051-0.565 0.218c-0.101 0.040-0.171 0.137-0.171 0.25v1.134c0 0.113 0.070 0.21 0.17 0.25l0.002 0.001 0.565 0.218 0.015 0.051c0.087 0.294 0.195 0.548 0.328 0.787l-0.010-0.020 0.026 0.046-0.246 0.554c-0.014 0.032-0.023 0.069-0.023 0.108 0 0.074 0.030 0.141 0.078 0.19v0l0.801 0.801c0.048 0.049 0.115 0.079 0.19 0.079 0.039 0 0.077-0.009 0.11-0.024l-0.002 0.001zM0.762 9.615v0c-0.265-0.002-0.479-0.217-0.479-0.483 0-0.146 0.064-0.276 0.166-0.365l0.001-0.001c1.285-1.091 2.874-1.861 4.624-2.169l0.059-0.009-0.508-0.27c-0.16-0.081-0.269-0.244-0.269-0.433 0-0.267 0.216-0.483 0.483-0.483 0.088 0 0.17 0.023 0.241 0.064l-0.002-0.001 1.949 1.035c0.154 0.083 0.258 0.243 0.258 0.427 0 0.148-0.067 0.28-0.171 0.369l-0.001 0.001-1.535 1.276c-0.085 0.076-0.198 0.123-0.322 0.123-0.267 0-0.483-0.216-0.483-0.483 0-0.154 0.073-0.292 0.185-0.38l0.001-0.001 0.363-0.303c-1.641 0.283-3.084 0.981-4.261 1.982l0.013-0.010c-0.083 0.070-0.191 0.112-0.309 0.112-0.001 0-0.001 0-0.002 0h0zM4.851 5.623c-0.148 0-0.268 0.12-0.268 0.268 0 0.102 0.057 0.19 0.14 0.236l0.001 0.001 1.085 0.576-0.328 0.045c-1.888 0.266-3.558 1.046-4.907 2.191l0.014-0.011c-0.059 0.049-0.096 0.123-0.096 0.205 0 0.148 0.119 0.267 0.267 0.267h0c0.066-0 0.126-0.024 0.172-0.064l-0 0c1.289-1.095 2.908-1.84 4.689-2.069l0.045-0.005 0.363-0.045-0.933 0.777c-0.052 0.049-0.084 0.118-0.084 0.195 0 0.148 0.12 0.268 0.268 0.268 0.060 0 0.115-0.020 0.16-0.053l-0.001 0.001 1.533-1.28c0.059-0.050 0.096-0.123 0.096-0.206 0-0.102-0.057-0.191-0.141-0.236l-0.001-0.001-1.948-1.031c-0.036-0.020-0.079-0.032-0.125-0.032h-0zM14.241 9.448h-0.763l-0.201-0.523c-0.032-0.082-0.101-0.143-0.186-0.164l-0.002-0c-0.367-0.089-0.69-0.227-0.982-0.409l0.014 0.008c-0.040-0.025-0.088-0.039-0.14-0.039-0.039 0-0.077 0.008-0.111 0.024l0.002-0.001-0.514 0.227-0.542-0.542 0.227-0.514c0.015-0.032 0.023-0.069 0.023-0.109 0-0.052-0.015-0.101-0.041-0.142l0.001 0.001c-0.175-0.279-0.313-0.602-0.396-0.946l-0.005-0.023c-0.021-0.087-0.083-0.156-0.163-0.187l-0.002-0.001-0.522-0.201v-0.765l0.522-0.201c0.082-0.032 0.143-0.101 0.164-0.186l0-0.002c0.089-0.367 0.227-0.69 0.409-0.982l-0.008 0.014c0.025-0.040 0.040-0.088 0.040-0.14 0-0.040-0.009-0.077-0.024-0.111l0.001 0.002-0.227-0.514 0.542-0.542 0.514 0.227c0.032 0.014 0.069 0.023 0.108 0.023 0.052 0 0.101-0.015 0.142-0.040l-0.001 0.001c0.279-0.175 0.602-0.313 0.946-0.396l0.023-0.005c0.087-0.021 0.156-0.083 0.187-0.163l0.001-0.002 0.201-0.523h0.765l0.201 0.522c0.032 0.082 0.101 0.143 0.186 0.164l0.002 0c0.367 0.089 0.69 0.227 0.982 0.409l-0.014-0.008c0.040 0.025 0.088 0.039 0.14 0.039 0.039 0 0.077-0.008 0.111-0.024l-0.002 0.001 0.514-0.227 0.542 0.542-0.227 0.514c-0.014 0.032-0.023 0.069-0.023 0.108 0 0.052 0.015 0.101 0.041 0.142l-0.001-0.001c0.175 0.279 0.313 0.602 0.396 0.946l0.005 0.023c0.021 0.087 0.083 0.156 0.163 0.187l0.002 0.001 0.522 0.201v0.765l-0.523 0.201c-0.082 0.032-0.143 0.101-0.164 0.186l-0 0.002c-0.089 0.367-0.227 0.69-0.409 0.982l0.008-0.014c-0.025 0.040-0.040 0.088-0.040 0.14 0 0.040 0.009 0.077 0.024 0.111l-0.001-0.002 0.227 0.514-0.542 0.542-0.514-0.227c-0.032-0.014-0.069-0.023-0.108-0.023-0.052 0-0.101 0.015-0.142 0.040l0.001-0.001c-0.279 0.175-0.602 0.313-0.946 0.396l-0.023 0.005c-0.087 0.021-0.156 0.083-0.187 0.163l-0.001 0.002zM13.623 9.234h0.471l0.148-0.385c0.058-0.148 0.182-0.258 0.335-0.295l0.003-0.001c0.343-0.083 0.645-0.212 0.919-0.383l-0.013 0.008c0.072-0.044 0.16-0.071 0.253-0.071 0.071 0 0.138 0.015 0.198 0.042l-0.003-0.001 0.377 0.171 0.333-0.333-0.171-0.378c-0.026-0.058-0.042-0.125-0.042-0.196 0-0.093 0.027-0.181 0.073-0.255l-0.001 0.002c0.163-0.26 0.292-0.562 0.371-0.884l0.004-0.021c0.038-0.156 0.148-0.281 0.292-0.337l0.003-0.001 0.385-0.148v-0.471l-0.385-0.148c-0.148-0.058-0.258-0.182-0.295-0.335l-0.001-0.003c-0.083-0.343-0.212-0.645-0.383-0.919l0.008 0.013c-0.044-0.071-0.069-0.157-0.069-0.249 0-0.073 0.016-0.142 0.045-0.204l-0.001 0.003 0.171-0.377-0.333-0.333-0.378 0.171c-0.058 0.026-0.125 0.041-0.195 0.041-0.094 0-0.181-0.026-0.255-0.072l0.002 0.001c-0.261-0.163-0.563-0.292-0.885-0.371l-0.021-0.004c-0.156-0.038-0.281-0.148-0.337-0.292l-0.001-0.003-0.148-0.385h-0.471l-0.148 0.385c-0.058 0.148-0.182 0.258-0.335 0.295l-0.003 0.001c-0.343 0.083-0.645 0.212-0.918 0.383l0.013-0.008c-0.072 0.044-0.16 0.071-0.253 0.071-0.071 0-0.138-0.015-0.198-0.042l0.003 0.001-0.378-0.171-0.333 0.333 0.171 0.378c0.026 0.058 0.042 0.125 0.042 0.196 0 0.093-0.027 0.181-0.073 0.255l0.001-0.002c-0.163 0.261-0.292 0.563-0.371 0.885l-0.004 0.021c-0.038 0.156-0.148 0.281-0.292 0.337l-0.003 0.001-0.385 0.148v0.471l0.385 0.148c0.148 0.058 0.258 0.182 0.295 0.335l0.001 0.003c0.083 0.343 0.212 0.645 0.383 0.919l-0.008-0.013c0.045 0.072 0.072 0.159 0.072 0.253 0 0.071-0.015 0.138-0.043 0.199l0.001-0.003-0.171 0.377 0.333 0.333 0.378-0.171c0.058-0.026 0.125-0.041 0.195-0.041 0.094 0 0.181 0.026 0.255 0.072l-0.002-0.001c0.26 0.163 0.562 0.292 0.884 0.371l0.021 0.004c0.156 0.038 0.281 0.148 0.337 0.292l0.001 0.003zM20.007 8.679v0c-0.266-0-0.482-0.216-0.482-0.483 0-0.069 0.015-0.135 0.041-0.195l-0.001 0.003c0.325-0.727 0.514-1.575 0.514-2.468 0-0.003 0-0.007 0-0.010v0.001c0-0.005 0-0.011 0-0.017 0-0.515-0.063-1.016-0.18-1.495l0.009 0.043-0.078 0.366c-0.048 0.219-0.241 0.381-0.471 0.381-0.036 0-0.071-0.004-0.105-0.011l0.003 0.001c-0.221-0.047-0.384-0.241-0.384-0.472 0-0.034 0.004-0.068 0.010-0.1l-0.001 0.003 0.417-1.953c0.036-0.157 0.145-0.283 0.289-0.342l0.003-0.001c0.053-0.022 0.115-0.034 0.179-0.034 0.101 0 0.196 0.031 0.274 0.084l-0.002-0.001 1.825 1.241c0.138 0.087 0.228 0.238 0.228 0.41 0 0.267-0.216 0.483-0.483 0.483-0.109 0-0.209-0.036-0.289-0.096l0.001 0.001-0.53-0.36c0.158 0.563 0.248 1.21 0.248 1.877 0 1.035-0.218 2.018-0.609 2.908l0.018-0.046c-0.077 0.17-0.245 0.286-0.441 0.286-0.002 0-0.003 0-0.005-0h0zM19.869 3.194l0.123 0.385c0.19 0.582 0.3 1.252 0.3 1.947 0 0.928-0.195 1.809-0.547 2.607l0.016-0.041c-0.019 0.036-0.029 0.078-0.029 0.122 0 0.148 0.12 0.268 0.268 0.268 0.115 0 0.214-0.073 0.252-0.175l0.001-0.002c0.365-0.82 0.578-1.778 0.578-2.785 0-0.748-0.117-1.468-0.334-2.144l0.014 0.050-0.093-0.295 1.033 0.703c0.044 0.033 0.1 0.053 0.16 0.053 0.148 0 0.268-0.12 0.268-0.268 0-0.096-0.050-0.18-0.126-0.227l-0.001-0.001-1.825-1.241c-0.042-0.029-0.095-0.046-0.151-0.046-0.036 0-0.070 0.007-0.101 0.019l0.002-0.001c-0.082 0.034-0.143 0.105-0.162 0.191l-0 0.002-0.421 1.953c-0.004 0.017-0.006 0.036-0.006 0.056 0 0.128 0.090 0.235 0.21 0.262l0.002 0c0.017 0.004 0.036 0.006 0.056 0.006 0.128 0 0.235-0.090 0.261-0.21l0-0.002zM13.859 7.988c-1.358 0-2.459-1.101-2.459-2.459s1.101-2.459 2.459-2.459c1.358 0 2.459 1.101 2.459 2.459v0c-0.002 1.357-1.102 2.457-2.459 2.459h-0zM13.859 3.283c-1.24 0-2.245 1.005-2.245 2.245s1.005 2.245 2.245 2.245c1.24 0 2.245-1.005 2.245-2.245v0c-0.001-1.24-1.005-2.244-2.245-2.246h-0zM13.859 7.238c-0.944 0-1.709-0.765-1.709-1.709s0.765-1.709 1.709-1.709c0.944 0 1.709 0.765 1.709 1.709v0c-0.003 0.942-0.767 1.705-1.709 1.708h-0zM13.859 4.034c-0.826 0-1.495 0.669-1.495 1.495s0.669 1.495 1.495 1.495c0.826 0 1.495-0.669 1.495-1.495v0c-0-0.826-0.669-1.495-1.495-1.496h-0z"></path>
</svg>
