<!-- Generated by IcoMoon.io -->
<svg version="1.1" xmlns="http://www.w3.org/2000/svg" width="24" height="24" viewBox="0 0 24 24">
<title>passport-3</title>
<path d="M3 22.875h12.75c0.703 0 1.375-0.336 1.799-0.899 0.125-0.166 0.091-0.4-0.074-0.525s-0.401-0.091-0.525 0.074c-0.283 0.376-0.732 0.601-1.201 0.601h-12.75c-0.827 0-1.5-0.673-1.5-1.5v-17.25c0-0.827 0.673-1.5 1.5-1.5h0.75v1.125c0 0.207 0.168 0.375 0.375 0.375s0.375-0.168 0.375-0.375v-1.125h11.25c0.827 0 1.5 0.673 1.5 1.5v6.375c0 0.207 0.168 0.375 0.375 0.375s0.375-0.168 0.375-0.375v-6.375c0-1.24-1.010-2.25-2.25-2.25h-12.75c-1.24 0-2.25 1.010-2.25 2.25v17.25c0 1.241 1.010 2.25 2.25 2.25z"></path>
<path d="M12.832 10.115c0.241 0.059 0.451-0.128 0.469-0.365h1.295c0 0.143 0.080 0.279 0.218 0.341 0.731 0.325 0.939-1.749 0.935-2.216-0.268-6.466-9.483-6.466-9.75 0 0.003 1.964 1.216 3.865 3.093 4.511 0.397 0.007 0.52-0.565 0.149-0.719-0.902-0.39-1.612-1.077-2.040-1.917h1.246c0.14 0.641 0.35 1.226 0.623 1.702 0.070 0.121 0.196 0.188 0.326 0.188 0.278 0.007 0.473-0.321 0.325-0.562-0.214-0.373-0.383-0.827-0.505-1.328h3.333c0 0.17 0.11 0.324 0.281 0.365zM15 7.875c0 0.386-0.057 0.761-0.16 1.125h-1.41c0.093-0.718 0.092-1.534 0-2.25h1.41c0.102 0.358 0.16 0.734 0.16 1.125zM14.545 6h-1.24c-0.162-0.741-0.418-1.385-0.742-1.885 0.855 0.386 1.555 1.053 1.982 1.885zM10.138 4.125h1.474c0.375 0.38 0.713 1.030 0.92 1.875h-3.314c0.208-0.845 0.544-1.495 0.92-1.875zM6.908 9c-0.209-0.715-0.209-1.538 0.002-2.25h1.41c-0.092 0.719-0.093 1.525 0.002 2.25zM8.446 6h-1.24c0.427-0.832 1.127-1.499 1.981-1.885-0.324 0.5-0.58 1.145-0.742 1.885zM9.078 9c-0.103-0.714-0.102-1.546-0.002-2.25h3.597c0.101 0.701 0.101 1.543-0.001 2.25h-3.595z"></path>
<path d="M9 15h-1.5v-0.75h1.5c0.492-0.008 0.493-0.742 0-0.75h-1.5c-0.413 0-0.75 0.337-0.75 0.75v0.75c0 0.413 0.337 0.75 0.75 0.75h1.5c0.493-0.008 0.493-0.742 0-0.75z"></path>
<path d="M9 17.25c0.492-0.008 0.493-0.742 0-0.75h-1.5c-0.413 0-0.75 0.337-0.75 0.75v0.75c0 0.413 0.337 0.75 0.75 0.75h1.5c0.493-0.008 0.493-0.742 0-0.75h-1.5v-0.75z"></path>
<path d="M4.5 10.5c-0.008-0.493-0.742-0.493-0.75 0v1.5c0.008 0.493 0.742 0.494 0.75 0z"></path>
<path d="M4.5 13.5c-0.008-0.493-0.742-0.494-0.75 0v1.5c0.008 0.493 0.742 0.494 0.75 0z"></path>
<path d="M4.5 4.5c-0.008-0.493-0.742-0.494-0.75 0v1.5c0.008 0.493 0.742 0.493 0.75 0z"></path>
<path d="M4.5 16.5c-0.008-0.493-0.742-0.494-0.75 0v1.5c0.008 0.493 0.742 0.494 0.75 0z"></path>
<path d="M3.75 19.5v1.5c0.008 0.493 0.742 0.494 0.75 0v-1.5c-0.008-0.493-0.742-0.494-0.75 0z"></path>
<path d="M4.5 7.5c-0.008-0.493-0.742-0.493-0.75 0v1.5c0.008 0.493 0.742 0.493 0.75 0z"></path>
<path d="M21 10.5h-9c-1.241 0-2.25 1.009-2.25 2.25v6c0 1.241 1.009 2.25 2.25 2.25h9c1.241 0 2.25-1.009 2.25-2.25v-6c0-1.241-1.009-2.25-2.25-2.25zM13.691 20.25c0.271-0.602 0.922-0.956 1.591-0.9 0.537 0.724 1.842 0.724 2.378 0 0.668-0.055 1.319 0.298 1.591 0.9h-5.56zM14.403 15.851c0.021-0.034 0.069-0.067 0.152-0.072 1.105 0.262 2.323-0.352 2.787-1.384 0.355 0.24 0.6 0.621 0.662 1.060 0.026 0.185 0.203 0.322 0.39 0.322 0.23 0.001 0.23 0.347 0 0.349-0.207 0-0.375 0.168-0.375 0.375 0 0.854-0.694 1.549-1.549 1.549s-1.549-0.694-1.549-1.549c0-0.207-0.168-0.375-0.375-0.375-0.136 0.002-0.228-0.158-0.143-0.274zM14.159 15.118c-0.193-0.34 0.080-0.874 0.398-0.918 0.158-0.026 0.28-0.149 0.308-0.307 0.094-0.551 0.552-1.023 1.090-1.123 0.531-0.095 1.127 0.174 1.421 0.646 0.103 0.167 0.317 0.226 0.492 0.134 0.845-0.31 1.216 0.849 0.814 1.492-0.185-0.654-0.651-1.189-1.277-1.466-0.197-0.22-0.54-0.099-0.626 0.163-0.212 0.942-1.222 1.543-2.143 1.292-0.165-0.018-0.327 0.023-0.476 0.085zM16.47 18.799c0.28 0 0.549-0.053 0.797-0.146-0.056 0.034-0.104 0.083-0.137 0.142-0.118 0.215-0.376 0.355-0.661 0.355s-0.544-0.14-0.661-0.355c-0.032-0.060-0.080-0.108-0.136-0.142 0.249 0.092 0.517 0.146 0.797 0.146zM22.5 18.75c0 0.827-0.673 1.5-1.5 1.5h-0.957c-0.328-1.153-1.508-1.807-2.682-1.636 0.736-0.311 1.279-0.991 1.387-1.809 0.458-0.176 0.711-0.766 0.491-1.226 0.821-1.161 0.135-3.079-1.408-2.804-1.072-1.304-3.198-0.866-3.655 0.761-0.811 0.326-1.102 1.51-0.525 2.196-0.127 0.437 0.138 0.914 0.539 1.073 0.109 0.818 0.652 1.498 1.388 1.809-1.174-0.169-2.353 0.484-2.681 1.636h-0.898c-0.827 0-1.5-0.673-1.5-1.5v-6c0-0.827 0.673-1.5 1.5-1.5h9c0.827 0 1.5 0.673 1.5 1.5v6z"></path>
</svg>
