<!-- Generated by IcoMoon.io -->
<svg version="1.1" xmlns="http://www.w3.org/2000/svg" width="24" height="24" viewBox="0 0 24 24">
<title>pharmacy</title>
<path d="M23.819 2.661c-0.114-0.089-0.263-0.12-0.403-0.084l-2.23 0.567c-0.358 0.091-0.727 0.137-1.096 0.137h-3.273c-1.062 0-1.949 0.762-2.109 1.811-0.090 0.588-0.587 1.015-1.182 1.015h-0.12v-0.979c0.808-0.481 1.351-1.364 1.351-2.371 0-1.521-1.237-2.758-2.758-2.758s-2.758 1.237-2.758 2.758c0 1.007 0.543 1.89 1.352 2.371v0.979h-0.12c-0.595 0-1.092-0.427-1.182-1.015-0.16-1.050-1.047-1.811-2.109-1.811h-3.273c-0.369 0-0.738-0.046-1.096-0.137l-2.23-0.567c-0.14-0.036-0.289-0.005-0.403 0.084s-0.181 0.225-0.181 0.37c0 0.989 0.382 1.891 1.005 2.567 0.014 1.138 0.553 2.15 1.385 2.808l0.441 0.589c1.005 1.344 2.608 2.146 4.286 2.146 1.287 0 2.508-0.453 3.476-1.282v1.672h-0.42c-1.671 0-3.031 1.36-3.031 3.031 0 0.511 0.13 1.016 0.375 1.461 0.085 0.155 0.246 0.243 0.411 0.243 0.077 0 0.154-0.019 0.226-0.058 0.227-0.125 0.309-0.41 0.184-0.637-0.169-0.307-0.258-0.655-0.258-1.008 0-1.155 0.939-2.094 2.094-2.094h0.42v4.187h-1.102c-1.236 0-2.242 1.006-2.242 2.242s1.006 2.242 2.242 2.242h1.303c0.163 0.88 0.422 1.741 0.78 2.575 0.074 0.172 0.243 0.284 0.431 0.284h0.001c0.188-0 0.357-0.113 0.431-0.286l0.009-0.022c0.35-0.827 0.604-1.68 0.763-2.552h0.533c0.53 0 0.961 0.431 0.961 0.961s-0.431 0.961-0.961 0.961h-0.032c-0.259 0-0.469 0.21-0.469 0.469s0.21 0.469 0.469 0.469h0.032c1.047 0 1.898-0.852 1.898-1.898s-0.852-1.898-1.898-1.898h-0.399c0.042-0.411 0.063-0.826 0.063-1.244v-1.366h0.313c1.671 0 3.031-1.36 3.031-3.031s-1.36-3.031-3.031-3.031h-0.313v-1.672c0.969 0.829 2.189 1.282 3.476 1.282 1.678 0 3.281-0.802 4.286-2.146l0.441-0.589c0.833-0.657 1.372-1.67 1.385-2.808 0.623-0.676 1.005-1.577 1.005-2.567 0-0.145-0.067-0.281-0.181-0.37zM10.223 8.928c-0.832 0.823-1.935 1.276-3.105 1.276-1.043 0-2.050-0.375-2.837-1.034 0.118 0.012 0.237 0.018 0.358 0.018h0.785c0.259 0 0.469-0.21 0.469-0.469s-0.21-0.469-0.469-0.469h-0.785c-1.186 0-2.196-0.771-2.555-1.837 0.513 0.26 1.092 0.408 1.706 0.408l0.97 0c0.259 0 0.469-0.21 0.469-0.469s-0.21-0.469-0.469-0.469l-0.97-0c-1.359-0-2.499-0.956-2.783-2.231l1.578 0.401c0.433 0.11 0.88 0.166 1.327 0.166h3.273c0.595 0 1.092 0.427 1.182 1.015 0.16 1.050 1.047 1.811 2.109 1.811h0.12v1.515l-0.371 0.367zM9.492 20.203c-0.719 0-1.305-0.585-1.305-1.305s0.585-1.305 1.305-1.305h1.102v1.338c0 0.427 0.022 0.851 0.066 1.272h-1.168zM12.469 18.959c0 1.091-0.156 2.163-0.465 3.197-0.314-1.043-0.473-2.124-0.473-3.225v-1.338h0.938v1.366zM12.469 16.656h-0.938v-11.181c0.152 0.026 0.309 0.041 0.469 0.041s0.316-0.014 0.469-0.041v11.181zM13.719 12.469c1.154 0 2.094 0.939 2.094 2.094s-0.939 2.094-2.094 2.094h-0.313v-4.187h0.313zM12 4.578c-1.004 0-1.82-0.817-1.82-1.82s0.817-1.82 1.82-1.82 1.82 0.817 1.82 1.82c0 1.004-0.817 1.82-1.82 1.82zM20.212 5.883l-0.969 0c-0.259 0-0.469 0.21-0.469 0.469s0.21 0.469 0.469 0.469l0.97-0c0.613-0 1.193-0.148 1.706-0.408-0.359 1.067-1.369 1.837-2.555 1.837h-0.785c-0.259 0-0.469 0.21-0.469 0.469s0.21 0.469 0.469 0.469h0.785c0.121 0 0.24-0.006 0.357-0.018-0.788 0.659-1.795 1.034-2.837 1.034-1.17 0-2.273-0.453-3.105-1.276l-0.371-0.367v-1.515h0.12c1.062 0 1.948-0.762 2.109-1.811 0.090-0.588 0.587-1.015 1.182-1.015h3.273c0.447 0 0.894-0.056 1.327-0.166l1.578-0.401c-0.284 1.275-1.424 2.231-2.783 2.231z"></path>
<path d="M10.456 23.2c-0.087-0.087-0.208-0.137-0.331-0.137s-0.244 0.050-0.331 0.137c-0.087 0.087-0.137 0.208-0.137 0.331s0.050 0.244 0.137 0.331c0.087 0.087 0.208 0.137 0.331 0.137s0.244-0.050 0.331-0.137c0.087-0.087 0.137-0.208 0.137-0.331s-0.050-0.244-0.137-0.331z"></path>
</svg>
