<!-- Generated by IcoMoon.io -->
<svg version="1.1" xmlns="http://www.w3.org/2000/svg" width="24" height="24" viewBox="0 0 24 24">
<title>phone</title>
<path d="M2.762 3.584s-0.056 0.061-0.13 0.134c-0.538 0.484-0.874 1.183-0.874 1.96 0 0.029 0 0.058 0.001 0.087l-0-0.004c-0.010 1.675 1.092 4.786 6.4 10.089 5.28 5.28 8.386 6.392 10.065 6.392h0.015c0.024 0.001 0.052 0.001 0.080 0.001 0.779 0 1.48-0.338 1.963-0.875l0.002-0.002c0.063-0.066 0.128-0.128 0.196-0.187l0.004-0.003c1.166-1.173 1.76-2.046 1.76-2.606s-0.72-1.246-1.701-2.181c-0.313-0.298-0.652-0.621-1.010-0.978-0.928-0.926-1.389-0.768-2.4-0.412-1.399 0.49-3.319 1.158-6.302-1.826s-2.32-4.903-1.83-6.302c0.354-1.011 0.515-1.473-0.414-2.4-0.364-0.363-0.69-0.707-0.991-1.023-0.928-0.976-1.6-1.68-2.166-1.69h-0.011c-0.56 0-1.432 0.599-2.665 1.832 0 0 0.005-0.005 0.006-0.005zM18.219 24.001c-2.918 0-6.72-2.32-11.306-6.906-4.604-4.603-6.93-8.418-6.913-11.342-0.001-0.026-0.001-0.056-0.001-0.086 0-1.266 0.54-2.407 1.402-3.203l0.003-0.003c0.020-0.025 0.088-0.091 0.111-0.114 1.679-1.68 2.811-2.359 3.938-2.346 1.308 0.018 2.24 0.997 3.416 2.24 0.291 0.306 0.607 0.64 0.96 0.991 1.71 1.71 1.222 3.103 0.831 4.222-0.426 1.221-0.795 2.274 1.413 4.48s3.264 1.84 4.48 1.41c1.12-0.391 2.511-0.88 4.222 0.829 0.346 0.346 0.675 0.659 0.978 0.948 1.246 1.183 2.229 2.119 2.246 3.43 0.014 1.12-0.665 2.257-2.342 3.934l-0.742-0.503 0.627 0.614c-0.799 0.865-1.939 1.406-3.205 1.406-0.030 0-0.060-0-0.089-0.001l0.004 0z"></path>
</svg>
