<!-- Generated by IcoMoon.io -->
<svg version="1.1" xmlns="http://www.w3.org/2000/svg" width="24" height="24" viewBox="0 0 24 24">
<title>portfolio</title>
<path d="M16.051 0.157c-0.091-0.095-0.221-0.155-0.363-0.157h-10.764c-1.4 0.004-2.535 1.136-2.542 2.536v19.012c0.007 1.4 1.141 2.533 2.541 2.537h14.144c1.4-0.004 2.535-1.136 2.542-2.536v-15.47c-0.002-0.138-0.058-0.263-0.148-0.354v0zM16.195 1.76l3.7 3.806h-3.195c-0.002 0-0.003 0-0.005 0-0.274 0-0.497-0.221-0.5-0.494v0zM19.067 23.070h-14.143c-0.841-0.003-1.523-0.682-1.529-1.523v-19.011c0.006-0.841 0.688-1.521 1.529-1.524h10.259v4.054c0.001 0.835 0.678 1.511 1.513 1.511 0.001 0 0.001 0 0.002 0h3.899v14.97c-0.006 0.841-0.688 1.521-1.529 1.524v0z"></path>
<path d="M17.663 19.327h-11.647c-0.28 0-0.506 0.227-0.506 0.506s0.226 0.506 0.506 0.506v0h11.647c0.28 0 0.506-0.227 0.506-0.506s-0.227-0.506-0.506-0.506v0z"></path>
<path d="M6.017 17.607h6.973c0.28 0 0.506-0.227 0.506-0.506s-0.227-0.506-0.506-0.506v0h-6.973c-0.28 0-0.506 0.227-0.506 0.506s0.226 0.506 0.506 0.506v0z"></path>
<path d="M6.38 14.369h7.009c0.287-0.002 0.519-0.23 0.53-0.514v-0.64c-0.007-1.935-1.577-3.5-3.512-3.5-0.005 0-0.008 0-0.013 0h-1.021c-0.002 0-0.005 0-0.008 0-1.925 0-3.487 1.559-3.491 3.482v0.658c0 0.001 0 0.001 0 0.002 0 0.28 0.225 0.508 0.505 0.512h0.001zM6.886 13.214c0.002-1.373 1.114-2.486 2.487-2.489h1.021c0 0 0 0 0.001 0 1.379 0 2.499 1.111 2.513 2.487v0.144h-6.021z"></path>
<path d="M9.89 9.502c0 0 0 0 0 0 1.392 0 2.52-1.128 2.52-2.52s-1.128-2.52-2.52-2.52c-1.392 0-2.52 1.128-2.52 2.52v0c0 1.392 1.128 2.52 2.52 2.52v0zM9.89 5.473c0 0 0 0 0 0 0.833 0 1.508 0.675 1.508 1.508s-0.675 1.508-1.508 1.508c-0.833 0-1.508-0.675-1.508-1.508 0 0 0 0 0 0v0c0-0.832 0.675-1.508 1.508-1.508v0z"></path>
</svg>
