<!-- Generated by IcoMoon.io -->
<svg version="1.1" xmlns="http://www.w3.org/2000/svg" width="24" height="24" viewBox="0 0 24 24">
<title>profile</title>
<path d="M21.318 19.34c0 3.936-5.398 4.391-9.458 4.391h-0.288c-2.589-0.007-9.172-0.17-9.172-4.415 0-3.856 5.184-4.372 9.21-4.391h0.54c2.586 0.006 9.167 0.169 9.167 4.415zM11.86 16.716c-5.088 0-7.668 0.875-7.668 2.6 0 1.741 2.58 2.624 7.668 2.624s7.667-0.875 7.667-2.6c0-1.74-2.579-2.624-7.667-2.624zM11.86 0c3.502 0 6.341 2.839 6.341 6.341s-2.839 6.341-6.341 6.341v0h-0.038c-3.494-0.011-6.322-2.846-6.322-6.341 0-3.502 2.839-6.341 6.341-6.341 0.007 0 0.014 0 0.020 0h-0.001zM11.86 1.706c-2.54 0.027-4.59 2.092-4.59 4.637 0 2.532 2.030 4.59 4.551 4.636l0.004 0 0.035 0.852v-0.852c2.532-0.038 4.57-2.099 4.57-4.636s-2.038-4.599-4.567-4.636l-0.004-0z"></path>
</svg>
