<!-- Generated by IcoMoon.io -->
<svg version="1.1" xmlns="http://www.w3.org/2000/svg" width="24" height="24" viewBox="0 0 24 24">
<title>quote</title>
<path d="M7.705 10.998c-0.527-0.159-1.133-0.251-1.76-0.253h-0.001c-0.005-0-0.011-0-0.017-0-0.792 0-1.545 0.166-2.227 0.466l0.035-0.014c0.555-2.032 1.895-5.539 4.547-5.937 0.248-0.038 0.447-0.216 0.514-0.449l0.001-0.004 0.581-2.077c0.014-0.050 0.023-0.108 0.023-0.168 0-0.324-0.244-0.591-0.558-0.627l-0.003-0c-0.178-0.026-0.384-0.040-0.594-0.040h-0c-3.188 0-6.346 3.328-7.679 8.093-0.782 2.795-1.011 6.999 0.916 9.644 1.059 1.432 2.741 2.35 4.638 2.35 0.013 0 0.025-0 0.038-0h0.028c0.005 0 0.012 0 0.018 0 3.090 0 5.596-2.505 5.596-5.596 0-2.56-1.719-4.719-4.066-5.384l-0.039-0.010z"></path>
<path d="M23.333 13.642c-0.73-1.277-1.913-2.225-3.325-2.633l-0.040-0.010c-0.527-0.159-1.133-0.251-1.76-0.253h-0.001c-0.005-0-0.011-0-0.016-0-0.792 0-1.546 0.166-2.227 0.466l0.036-0.014c0.555-2.032 1.895-5.539 4.547-5.937 0.248-0.038 0.447-0.216 0.514-0.449l0.001-0.004 0.581-2.077c0.015-0.051 0.023-0.109 0.023-0.169 0-0.318-0.235-0.581-0.541-0.625l-0.003-0c-0.178-0.026-0.384-0.040-0.594-0.040h-0c-3.188 0-6.346 3.328-7.679 8.093-0.782 2.795-1.011 6.999 0.916 9.645 1.059 1.432 2.741 2.35 4.637 2.35 0.013 0 0.026-0 0.038-0h0.023c3.088-0.003 5.591-2.507 5.591-5.596 0-1.007-0.266-1.952-0.732-2.769l0.014 0.028z"></path>
</svg>
