<!-- Generated by IcoMoon.io -->
<svg version="1.1" xmlns="http://www.w3.org/2000/svg" width="57" height="32" viewBox="0 0 57 32">
<title>rating-stars</title>
<path d="M37.799 21.053c-0.011-0.054-0.017-0.116-0.017-0.18 0-0.261 0.106-0.497 0.277-0.668v0l5.347-5.316c0.514-0.518 0.831-1.232 0.831-2.020 0-0.305-0.048-0.6-0.136-0.876l0.006 0.020c-0.282-0.996-1.115-1.739-2.14-1.887l-0.014-0.002-7.259-0.949c-0.308-0.047-0.561-0.248-0.682-0.52l-0.002-0.006-3.087-7.056c-0.384-0.942-1.292-1.594-2.353-1.594s-1.97 0.652-2.347 1.577l-0.006 0.017-3.089 7.054c-0.119 0.277-0.368 0.477-0.669 0.525l-7.264 0.95c-1.040 0.153-1.872 0.898-2.15 1.875l-0.005 0.018c-0.084 0.257-0.133 0.553-0.133 0.861 0 0.787 0.319 1.499 0.834 2.014l-0-0 5.355 5.316c0.171 0.172 0.276 0.409 0.276 0.671 0 0.063-0.006 0.124-0.018 0.183l0.001-0.006-1.392 7.644c-0.034 0.165-0.054 0.355-0.054 0.549 0 0.896 0.418 1.694 1.069 2.211l0.006 0.004c0.414 0.333 0.946 0.535 1.525 0.535 0.466 0 0.901-0.13 1.271-0.357l-0.011 0.006 6.4-3.778c0.12-0.074 0.265-0.118 0.421-0.118s0.301 0.044 0.425 0.12l-0.003-0.002 6.4 3.778c0.36 0.221 0.795 0.352 1.261 0.352 0.579 0 1.111-0.202 1.529-0.54l-0.005 0.004c0.657-0.521 1.075-1.319 1.075-2.215 0-0.194-0.020-0.384-0.057-0.567l0.003 0.018-1.391-7.647zM37.161 29.971c-0.136 0.11-0.311 0.177-0.502 0.177-0.157 0-0.304-0.045-0.427-0.124l-6.397-3.777c-0.36-0.217-0.794-0.346-1.259-0.346s-0.899 0.128-1.27 0.352l0.011-0.006-6.4 3.778c-0.119 0.074-0.263 0.118-0.418 0.118-0.194 0-0.372-0.069-0.51-0.184l0.001 0.001c-0.218-0.171-0.357-0.435-0.357-0.73 0-0.068 0.007-0.133 0.021-0.197l-0.001 0.006 1.393-7.647c0.032-0.161 0.050-0.346 0.050-0.535 0-0.787-0.317-1.499-0.83-2.018l0 0-5.355-5.316c-0.173-0.172-0.279-0.41-0.279-0.672 0-0.101 0.016-0.199 0.045-0.291l-0.002 0.007c0.096-0.33 0.373-0.576 0.714-0.626l0.005-0.001 7.259-0.949c0.922-0.138 1.677-0.741 2.026-1.559l0.006-0.017 3.089-7.058c0.128-0.316 0.432-0.535 0.787-0.535s0.66 0.219 0.785 0.529l0.002 0.006 3.089 7.067c0.355 0.833 1.107 1.436 2.012 1.574l0.014 0.002 7.259 0.949c0.345 0.050 0.622 0.297 0.717 0.62l0.002 0.006c0.028 0.086 0.045 0.185 0.045 0.288 0 0.26-0.105 0.496-0.275 0.668l0-0-5.347 5.316c-0.513 0.517-0.83 1.229-0.83 2.016 0 0.19 0.018 0.375 0.054 0.555l-0.003-0.018 1.393 7.647c0.012 0.055 0.018 0.119 0.018 0.184 0 0.297-0.138 0.563-0.353 0.735l-0.002 0.001z"></path>
<path d="M55.405 14.49l-6.131-1.859c-0.167-0.051-0.296-0.178-0.349-0.339l-0.001-0.004-1.501-5.677c-0.266-0.894-1.015-1.561-1.937-1.704l-0.013-0.002c-0.159-0.034-0.341-0.053-0.528-0.053-0.804 0-1.524 0.359-2.010 0.925l-0.003 0.004-1.617 1.968c-0.123 0.145-0.198 0.335-0.198 0.542 0 0.304 0.162 0.571 0.404 0.719l0.004 0.002c0.167 0.113 0.372 0.18 0.593 0.18 0.322 0 0.611-0.143 0.806-0.368l0.001-0.001 1.617-1.967c0.101-0.118 0.251-0.192 0.417-0.192 0.040 0 0.079 0.004 0.116 0.012l-0.004-0.001c0.198 0.029 0.357 0.171 0.409 0.358l0.001 0.003 1.502 5.676c0.233 0.796 0.851 1.408 1.634 1.63l0.017 0.004 6.131 1.859c0.19 0.046 0.333 0.202 0.36 0.395l0 0.003c0.001 0.013 0.002 0.029 0.002 0.045 0 0.18-0.102 0.337-0.252 0.415l-0.003 0.001-5.517 3.039c-0.707 0.369-1.186 1.087-1.21 1.919l-0 0.003-0.067 5.833c-0.006 0.198-0.131 0.365-0.307 0.432l-0.003 0.001c-0.065 0.028-0.14 0.045-0.219 0.045-0.129 0-0.248-0.044-0.342-0.118l0.001 0.001-4.911-3.8c-0.452-0.341-1.023-0.546-1.642-0.546-0.292 0-0.574 0.046-0.838 0.131l0.019-0.005 0.29 0.867 0.37 0.842c0.047-0.014 0.102-0.022 0.158-0.022 0.129 0 0.248 0.042 0.344 0.113l-0.002-0.001 4.911 3.8c0.448 0.344 1.016 0.551 1.632 0.551 0.003 0 0.006 0 0.008 0h-0c0.379-0.003 0.739-0.078 1.069-0.214l-0.019 0.007c0.851-0.32 1.451-1.115 1.48-2.054l0-0.003 0.070-5.83c0.008-0.175 0.107-0.325 0.25-0.405l0.002-0.001 5.517-3.052c0.725-0.369 1.213-1.11 1.213-1.965 0-0.083-0.005-0.166-0.014-0.247l0.001 0.010c-0.141-0.928-0.816-1.666-1.697-1.9l-0.016-0.004z"></path>
<path d="M17.24 23.975c-0.227-0.068-0.488-0.107-0.758-0.107-0.62 0-1.191 0.206-1.65 0.554l0.007-0.005-4.911 3.8c-0.093 0.073-0.212 0.117-0.341 0.117-0.079 0-0.154-0.017-0.222-0.046l0.004 0.001c-0.18-0.065-0.307-0.234-0.31-0.433v-0l-0.070-5.83c-0.019-0.837-0.5-1.557-1.198-1.918l-0.012-0.006-5.521-3.041c-0.153-0.074-0.256-0.228-0.256-0.406 0-0.019 0.001-0.038 0.004-0.057l-0 0.002c0.025-0.197 0.169-0.354 0.357-0.397l0.003-0.001 6.131-1.859c0.799-0.225 1.417-0.838 1.646-1.617l0.004-0.017 1.501-5.677c0.053-0.19 0.212-0.332 0.407-0.361l0.003-0c0.034-0.007 0.073-0.012 0.113-0.012 0.167 0 0.316 0.074 0.417 0.191l0.001 0.001 1.62 1.967c0.198 0.225 0.487 0.367 0.809 0.367 0.22 0 0.425-0.066 0.595-0.18l-0.004 0.002c0.244-0.152 0.403-0.419 0.403-0.723 0-0.206-0.073-0.394-0.195-0.542l0.001 0.001-1.62-1.967c-0.487-0.57-1.206-0.929-2.010-0.929-0.188 0-0.371 0.020-0.548 0.057l0.017-0.003c-0.936 0.144-1.684 0.811-1.946 1.688l-0.004 0.017-1.499 5.678c-0.048 0.169-0.18 0.298-0.347 0.342l-0.003 0.001-6.131 1.859c-0.893 0.243-1.564 0.979-1.709 1.891l-0.002 0.013c-0.008 0.071-0.013 0.153-0.013 0.236 0 0.855 0.488 1.596 1.2 1.959l0.012 0.006 5.521 3.041c0.15 0.076 0.251 0.229 0.253 0.406v0l0.070 5.83c0.032 0.941 0.631 1.735 1.465 2.052l0.016 0.005c0.311 0.129 0.671 0.205 1.049 0.207h0.001c0.002 0 0.005 0 0.008 0 0.617 0 1.185-0.207 1.639-0.555l-0.006 0.005 4.911-3.8c0.098-0.071 0.22-0.113 0.352-0.113 0.078 0 0.153 0.015 0.222 0.042l-0.004-0.001c0.086 0.027 0.185 0.043 0.288 0.043 0.425 0 0.787-0.266 0.93-0.64l0.002-0.007c0.021-0.073 0.033-0.156 0.033-0.243 0-0.437-0.307-0.803-0.717-0.893l-0.006-0.001z"></path>
</svg>
