<!-- Generated by IcoMoon.io -->
<svg version="1.1" xmlns="http://www.w3.org/2000/svg" width="24" height="24" viewBox="0 0 24 24">
<title>reviews</title>
<path d="M15.218 20.93h-0.757c-0.267-0.009-0.479-0.227-0.479-0.495s0.213-0.486 0.478-0.495l0.001-0h0.757c0.267 0.009 0.479 0.227 0.479 0.495s-0.213 0.486-0.478 0.495l-0.001 0zM20.332 20.93h-3.399c-0.005 0-0.011 0-0.016 0-0.274 0-0.495-0.222-0.495-0.495s0.222-0.495 0.495-0.495c0.006 0 0.011 0 0.017 0l-0.001-0h3.398c0.002 0 0.005 0 0.008 0 0.573 0 1.12-0.109 1.622-0.308l-0.030 0.010c0.053-0.021 0.114-0.033 0.179-0.033 0.274 0 0.495 0.222 0.495 0.495 0 0.209-0.13 0.388-0.313 0.461l-0.003 0.001c-0.578 0.23-1.248 0.364-1.949 0.364-0.004 0-0.007 0-0.011 0h0.001z"></path>
<path d="M5.155 22.598c-0.274 0-0.495-0.222-0.495-0.495v0-3.154h-1.193c-1.914-0.002-3.464-1.553-3.467-3.466v-10.416c0.002-1.914 1.553-3.464 3.466-3.467h16.868c1.914 0.002 3.464 1.553 3.467 3.466v10.416c-0.002 1.914-1.553 3.464-3.466 3.467h-10.657l-4.205 3.532c-0.085 0.073-0.197 0.117-0.318 0.118h-0zM3.467 2.59c-1.367 0.002-2.474 1.109-2.476 2.476v10.416c0.002 1.367 1.109 2.474 2.476 2.476h1.688c0.274 0 0.495 0.222 0.495 0.495v0 2.585l3.529-2.965c0.085-0.072 0.197-0.116 0.318-0.116 0.001 0 0.001 0 0.002 0h10.836c1.367-0.002 2.474-1.109 2.476-2.476v-10.416c-0.002-1.367-1.109-2.474-2.476-2.476h-0z"></path>
<path d="M13.335 11.47c-0.001 0-0.002 0-0.003 0-0.082 0-0.159-0.020-0.226-0.055l0.003 0.001-1.21-0.619-1.208 0.618c-0.066 0.034-0.143 0.055-0.226 0.055-0.274 0-0.495-0.222-0.495-0.495 0-0.028 0.002-0.055 0.007-0.081l-0 0.003 0.213-1.337-0.96-0.96c-0.091-0.090-0.147-0.215-0.147-0.352 0-0.247 0.181-0.452 0.417-0.489l0.003-0 1.342-0.209 0.613-1.211c0.092-0.15 0.256-0.249 0.442-0.249s0.35 0.099 0.441 0.247l0.001 0.002 0.613 1.212 1.342 0.209c0.239 0.038 0.42 0.243 0.42 0.49 0 0.138-0.056 0.263-0.147 0.352l-0 0-0.96 0.957 0.213 1.337c0.004 0.024 0.006 0.051 0.006 0.079 0 0.274-0.222 0.495-0.495 0.495v0zM11.899 9.744c0.001 0 0.001 0 0.002 0 0.082 0 0.159 0.020 0.226 0.055l-0.003-0.001 0.564 0.289-0.099-0.625c-0.004-0.024-0.006-0.051-0.006-0.079 0-0.137 0.056-0.261 0.146-0.351l0.449-0.446-0.626-0.099c-0.161-0.026-0.294-0.126-0.364-0.264l-0.001-0.003-0.287-0.564-0.286 0.565c-0.072 0.14-0.205 0.241-0.362 0.266l-0.003 0-0.626 0.099 0.449 0.446c0.090 0.090 0.146 0.214 0.146 0.351 0 0.028-0.002 0.055-0.007 0.082l0-0.003-0.099 0.625 0.564-0.289c0.065-0.034 0.142-0.053 0.224-0.053 0 0 0.001 0 0.001 0h-0z"></path>
<path d="M19.028 11.47c-0.001 0-0.002 0-0.003 0-0.082 0-0.159-0.020-0.226-0.055l0.003 0.001-1.207-0.619-1.208 0.618c-0.066 0.034-0.143 0.055-0.226 0.055-0.274 0-0.495-0.222-0.495-0.495 0-0.028 0.002-0.055 0.007-0.081l-0 0.003 0.213-1.337-0.96-0.957c-0.090-0.090-0.145-0.214-0.145-0.351 0-0.246 0.18-0.451 0.416-0.489l0.003-0 1.342-0.209 0.613-1.211c0.092-0.15 0.256-0.249 0.442-0.249s0.35 0.099 0.441 0.247l0.001 0.002 0.613 1.211 1.341 0.209c0.239 0.038 0.42 0.243 0.42 0.49 0 0.138-0.056 0.263-0.147 0.352l-0 0-0.963 0.957 0.213 1.337c0.004 0.024 0.006 0.051 0.006 0.079 0 0.274-0.222 0.495-0.495 0.495v0zM16.317 8.586l0.449 0.446c0.090 0.090 0.146 0.214 0.146 0.351 0 0.028-0.002 0.055-0.007 0.082l0-0.003-0.099 0.625 0.564-0.289c0.066-0.034 0.143-0.054 0.226-0.054s0.16 0.020 0.229 0.056l-0.003-0.001 0.564 0.289-0.099-0.625c-0.004-0.024-0.006-0.051-0.006-0.079 0-0.137 0.056-0.261 0.146-0.351l0.449-0.446-0.626-0.099c-0.161-0.026-0.294-0.126-0.364-0.264l-0.001-0.003-0.288-0.563-0.286 0.565c-0.072 0.14-0.205 0.241-0.362 0.266l-0.003 0zM4.771 11.47c-0.274-0-0.495-0.222-0.495-0.495 0-0.028 0.002-0.055 0.007-0.082l-0 0.003 0.213-1.337-0.96-0.957c-0.090-0.090-0.145-0.214-0.145-0.351 0-0.246 0.179-0.45 0.415-0.489l0.003-0 1.342-0.209 0.613-1.211c0.092-0.15 0.256-0.249 0.442-0.249s0.35 0.099 0.441 0.247l0.001 0.002 0.613 1.211 1.342 0.209c0.239 0.038 0.42 0.243 0.42 0.49 0 0.138-0.056 0.263-0.147 0.352l-0 0-0.96 0.957 0.213 1.337c0.004 0.024 0.006 0.051 0.006 0.079 0 0.274-0.222 0.495-0.495 0.495-0.082 0-0.16-0.020-0.229-0.056l0.003 0.001-1.209-0.619-1.207 0.617c-0.065 0.034-0.141 0.053-0.222 0.053-0.001 0-0.002 0-0.003 0h0zM6.204 9.744c0 0 0.001 0 0.001 0 0.082 0 0.159 0.020 0.227 0.055l-0.003-0.001 0.564 0.289-0.099-0.625c-0.004-0.024-0.006-0.051-0.006-0.079 0-0.137 0.056-0.261 0.146-0.351l0.449-0.446-0.626-0.099c-0.161-0.026-0.294-0.126-0.364-0.264l-0.001-0.003-0.287-0.564-0.286 0.565c-0.072 0.14-0.205 0.241-0.362 0.266l-0.003 0-0.625 0.101 0.449 0.446c0.090 0.090 0.146 0.214 0.146 0.351 0 0.028-0.002 0.055-0.007 0.082l0-0.003-0.099 0.625 0.564-0.289c0.065-0.034 0.142-0.053 0.224-0.053 0 0 0.001 0 0.001 0h-0zM10.35 13.245h-6.077c-0.267-0.009-0.479-0.227-0.479-0.495s0.213-0.486 0.478-0.495l0.001-0h6.077c0.005-0 0.011-0 0.016-0 0.274 0 0.495 0.222 0.495 0.495s-0.222 0.495-0.495 0.495c-0.006 0-0.011-0-0.017-0l0.001 0zM15.302 15.022h-11.030c-0.005 0-0.011 0-0.016 0-0.274 0-0.495-0.222-0.495-0.495s0.222-0.495 0.495-0.495c0.006 0 0.011 0 0.017 0l-0.001-0h11.030c0.267 0.009 0.479 0.227 0.479 0.495s-0.213 0.486-0.478 0.495l-0.001 0z"></path>
</svg>
