<!-- Generated by IcoMoon.io -->
<svg version="1.1" xmlns="http://www.w3.org/2000/svg" width="24" height="24" viewBox="0 0 24 24">
<title>save</title>
<path d="M20.485 24h-16.97c-1.94-0.002-3.512-1.575-3.515-3.515v-16.97c0.002-1.94 1.575-3.512 3.515-3.515h13.334c0 0 0 0 0 0 0.301 0 0.574 0.122 0.771 0.319l6.060 6.060c0.197 0.197 0.319 0.47 0.319 0.771 0 0 0 0 0 0.001v-0 13.334c-0.002 1.94-1.575 3.512-3.515 3.515h-0zM3.515 2.182c-0.736 0.001-1.332 0.597-1.333 1.333v16.97c0.001 0.736 0.597 1.332 1.333 1.333h16.97c0.736-0.001 1.332-0.597 1.333-1.333v-12.882l-5.422-5.422z"></path>
<path d="M18.545 24c-0.602 0-1.091-0.488-1.091-1.091v0-7.636h-10.909v7.636c0 0.602-0.488 1.091-1.091 1.091s-1.091-0.488-1.091-1.091v0-8.727c0-0.602 0.488-1.091 1.091-1.091v0h13.091c0.602 0 1.091 0.488 1.091 1.091v0 8.727c0 0.602-0.488 1.091-1.091 1.091v0z"></path>
<path d="M15.055 7.636h-8.727c-0.602 0-1.091-0.488-1.091-1.091v0-5.455c0-0.602 0.488-1.091 1.091-1.091s1.091 0.488 1.091 1.091v0 4.364h7.636c0.602 0 1.091 0.488 1.091 1.091s-0.488 1.091-1.091 1.091v0z"></path>
</svg>
