<!-- Generated by IcoMoon.io -->
<svg version="1.1" xmlns="http://www.w3.org/2000/svg" width="32" height="32" viewBox="0 0 32 32">
<title>schedule</title>
<path d="M13.768 29.294h-6.883c-1.371-0.001-2.482-1.112-2.483-2.483v-18.747c0.001-1.371 1.112-2.482 2.483-2.483h3.903v0.621c0 2.057 1.667 3.724 3.724 3.724s3.724-1.667 3.724-3.724v0-0.616h3.908c1.371 0.001 2.482 1.112 2.483 2.483v5.523c0 0.686 0.556 1.242 1.242 1.242s1.242-0.556 1.242-1.242v0-5.528c-0.005-2.74-2.226-4.959-4.966-4.961h-3.908v-1.861c0-0.686-0.556-1.242-1.242-1.242h-4.963c-0.686 0-1.242 0.556-1.242 1.242v0 1.861h-3.905c-2.74 0.003-4.96 2.222-4.965 4.961v18.749c0.003 2.741 2.224 4.962 4.965 4.965h6.883c0.686 0 1.242-0.556 1.242-1.242s-0.556-1.242-1.242-1.242v0zM13.271 2.483h2.483v3.724c0 0.686-0.556 1.242-1.242 1.242s-1.242-0.556-1.242-1.242v0zM22.892 16.758c-4.148 0-7.51 3.362-7.51 7.51s3.362 7.51 7.51 7.51c4.148 0 7.51-3.362 7.51-7.51v0c-0.005-4.146-3.365-7.505-7.511-7.51h-0zM22.892 29.295c-2.777 0-5.028-2.251-5.028-5.028s2.251-5.028 5.028-5.028c2.777 0 5.028 2.251 5.028 5.028v0c-0.004 2.776-2.253 5.024-5.029 5.027h-0zM25.933 24.268c0 0.686-0.556 1.242-1.242 1.242v0h-1.801c-0.686 0-1.242-0.556-1.242-1.242v0-2.545c0-0.686 0.556-1.242 1.242-1.242s1.242 0.556 1.242 1.242v0 1.303h0.558c0.686 0 1.242 0.556 1.242 1.242v0z"></path>
</svg>
