<!-- Generated by IcoMoon.io -->
<svg version="1.1" xmlns="http://www.w3.org/2000/svg" width="24" height="24" viewBox="0 0 24 24">
<title>settings</title>
<path d="M14.323 24h-4.59c-0.010 0-0.022 0-0.034 0-0.64 0-1.175-0.455-1.297-1.059l-0.001-0.008-0.007-0.038-0.394-2.554c-0.526-0.248-0.974-0.509-1.397-0.805l0.030 0.020-2.452 0.96c-0.147 0.065-0.318 0.103-0.497 0.103-0.003 0-0.006 0-0.009-0h0c-0.005 0-0.010 0-0.015 0-0.488 0-0.913-0.264-1.143-0.657l-0.003-0.006-2.284-3.853c-0.136-0.2-0.216-0.447-0.216-0.712 0-0.423 0.206-0.799 0.523-1.032l0.004-0.002 2.089-1.603c0-0.043-0.006-0.087-0.010-0.132-0.015-0.194-0.031-0.395-0.031-0.619s0.015-0.427 0.031-0.619q0-0.064 0.009-0.126l-2.183-1.642-0.036-0.040c-0.252-0.26-0.407-0.615-0.407-1.006 0-0.229 0.053-0.445 0.148-0.638l-0.004 0.008 0.024-0.043 2.284-3.852c0.223-0.398 0.642-0.663 1.123-0.663 0.005 0 0.009 0 0.014 0h-0.001c0.183 0 0.357 0.036 0.517 0.1l-0.009-0.003 2.488 0.972c0.386-0.27 0.83-0.532 1.292-0.76l0.061-0.027 0.401-2.593 0.009-0.036c0.16-0.594 0.691-1.025 1.324-1.032h4.593c0.633 0.007 1.164 0.438 1.322 1.023l0.002 0.010 0.011 0.043 0.35 2.588c0.523 0.247 0.968 0.507 1.388 0.8l-0.030-0.020 2.457-0.961c0.147-0.065 0.318-0.103 0.498-0.103 0.003 0 0.006 0 0.009 0h-0c0.005-0 0.010-0 0.015-0 0.488 0 0.913 0.264 1.143 0.657l0.003 0.006 2.286 3.853c0.136 0.2 0.216 0.447 0.216 0.712 0 0.423-0.206 0.799-0.523 1.032l-0.004 0.002-2.091 1.603q0 0.065 0.010 0.132c0.015 0.194 0.031 0.395 0.031 0.619 0 0.252 0 0.509-0.014 0.761l2.211 1.622 0.039 0.038c0.252 0.26 0.407 0.614 0.407 1.005 0 0.229-0.053 0.446-0.149 0.639l0.004-0.008-0.023 0.041-2.283 3.861c-0.223 0.399-0.642 0.664-1.123 0.664-0.004 0-0.009-0-0.013-0h0.001c-0.183-0-0.357-0.036-0.517-0.1l0.009 0.003-2.488-0.972c-0.386 0.27-0.83 0.532-1.293 0.76l-0.061 0.027-0.401 2.593-0.009 0.036c-0.161 0.596-0.695 1.028-1.331 1.032h-0zM9.884 22.452h4.275l0.494-3.2 0.406-0.165c0.685-0.297 1.276-0.642 1.818-1.049l-0.023 0.017 0.341-0.243 3.097 1.212 2.107-3.554-2.727-1.999 0.081-0.472c0.031-0.239 0.049-0.516 0.049-0.797 0-0.069-0.001-0.137-0.003-0.206l0 0.010c0-0.166-0.012-0.328-0.026-0.501-0.015-0.194-0.031-0.395-0.031-0.619v-0.382l2.555-1.961-2.11-3.56-3.119 1.22-0.348-0.271c-0.51-0.396-1.092-0.737-1.717-0.997l-0.050-0.019-0.413-0.169-0.433-3.2h-4.273l-0.494 3.2-0.406 0.165c-0.686 0.297-1.277 0.642-1.819 1.049l0.023-0.017-0.341 0.243-3.097-1.212-2.11 3.569 2.601 1.952v0.387c0 0.227-0.015 0.427-0.031 0.619-0.013 0.172-0.026 0.334-0.026 0.501s0.012 0.328 0.026 0.501c0.015 0.194 0.031 0.395 0.031 0.619v0.382l-2.545 1.955 2.11 3.558 3.121-1.22 0.348 0.271c0.51 0.396 1.092 0.737 1.716 0.997l0.050 0.019 0.406 0.165zM11.964 16.703c-0.009 0-0.020 0-0.032 0-1.307 0-2.492-0.521-3.359-1.366l0.001 0.001c-0.866-0.849-1.402-2.031-1.402-3.339s0.537-2.49 1.401-3.338l0.001-0.001c0.878-0.844 2.074-1.364 3.39-1.364s2.512 0.52 3.392 1.366l-0.002-0.002c0.866 0.849 1.402 2.031 1.402 3.339s-0.537 2.49-1.401 3.338l-0.001 0.001c-0.866 0.844-2.052 1.365-3.358 1.365-0.009 0-0.018-0-0.027-0h0.001zM11.964 8.845c-0.024-0.001-0.052-0.001-0.081-0.001-1.743 0-3.156 1.413-3.156 3.156s1.413 3.156 3.156 3.156c0.028 0 0.057-0 0.085-0.001l-0.004 0c0.024 0.001 0.052 0.001 0.081 0.001 1.743 0 3.156-1.413 3.156-3.156s-1.413-3.156-3.156-3.156c-0.028 0-0.057 0-0.085 0.001l0.004-0z"></path>
</svg>
