<svg version="1.1" xmlns="http://www.w3.org/2000/svg" width="24" height="24" viewBox="0 0 24 24">
<title>star</title>
<path d="M24.311 9.172c-0.2-0.601-0.715-1.045-1.345-1.139l-0.009-0.001-6.403-0.93-2.862-5.782c-0.309-0.517-0.866-0.858-1.503-0.858s-1.193 0.341-1.498 0.85l-0.004 0.008-2.862 5.782-6.389 0.93c-0.818 0.12-1.438 0.817-1.438 1.658 0 0.472 0.195 0.898 0.509 1.203l0 0 4.634 4.517-1.093 6.369c-0.015 0.085-0.024 0.184-0.024 0.284 0 0.926 0.751 1.676 1.676 1.676 0.286 0 0.555-0.072 0.791-0.198l-0.009 0.004 5.706-3.009 5.723 3.009c0.226 0.121 0.494 0.193 0.779 0.193h0c0.371-0.001 0.714-0.12 0.993-0.322l-0.005 0.003c0.421-0.309 0.691-0.803 0.691-1.359 0-0.1-0.009-0.197-0.025-0.292l0.001 0.010-1.091-6.369 4.634-4.517c0.312-0.304 0.506-0.729 0.506-1.199 0-0.187-0.031-0.367-0.087-0.535l0.003 0.012z"></path>
</svg>
