<!-- Generated by IcoMoon.io -->
<svg version="1.1" xmlns="http://www.w3.org/2000/svg" width="24" height="24" viewBox="0 0 24 24">
<title>subscriptions</title>
<path d="M22.902 3.645h-6.007v-0.375c-0-0.622-0.504-1.126-1.126-1.126h-7.509c-0.622 0-1.126 0.504-1.126 1.126v0.375h-6.007c-0.622 0-1.126 0.504-1.126 1.126v15.771c0 0.622 0.504 1.126 1.126 1.126h7.512c0.622-0 1.126-0.504 1.126-1.126v-0.379h4.505v0.375c0 0.622 0.504 1.126 1.126 1.126h7.509c0.622-0 1.126-0.504 1.126-1.126v-15.771c-0.002-0.621-0.506-1.124-1.127-1.124-0.001 0-0.002 0-0.003 0h0zM23.277 20.54c0 0.207-0.168 0.375-0.375 0.375v0h-7.509c-0.207-0-0.375-0.168-0.375-0.375v-0.375h0.751c0 0 0 0 0 0 0.621 0 1.125-0.502 1.127-1.123v-14.646h6.007c0.207 0 0.375 0.168 0.375 0.375v0zM9.010 20.54c0 0.207-0.168 0.375-0.375 0.375v0h-7.509c-0.207-0-0.375-0.168-0.375-0.375v-15.771c0-0.207 0.168-0.375 0.375-0.375h6.007v14.649c0 0.622 0.504 1.126 1.126 1.126h0.751zM9.010 19.413h-0.751c-0.207-0-0.375-0.168-0.375-0.375v-15.768c0-0.207 0.168-0.375 0.375-0.375v0h7.509c0.207 0 0.375 0.168 0.375 0.375v15.771c-0 0.207-0.168 0.375-0.375 0.375h-6.759zM18.772 9.652h-0.943v-0.751h1.502c0.207 0 0.375-0.168 0.375-0.375s-0.168-0.375-0.375-0.375v0h-0.375c-0.001 0-0.001 0-0.002 0-0.622 0-1.125-0.504-1.125-1.125 0-0.556 0.403-1.018 0.933-1.109l0.007-0.001v-0.393h0.756v0.375h0.943v0.751h-1.507c-0.207 0-0.375 0.168-0.375 0.375s0.168 0.375 0.375 0.375v0h0.375c0.001 0 0.001 0 0.002 0 0.622 0 1.125 0.504 1.125 1.125 0 0.556-0.403 1.018-0.933 1.109l-0.007 0.001v0.393h-0.751v-0.375zM4.505 9.652h-0.943v-0.751h1.502c0.207 0 0.375-0.168 0.375-0.375s-0.168-0.375-0.375-0.375v0h-0.369c-0.001 0-0.001 0-0.002 0-0.622 0-1.125-0.504-1.125-1.125 0-0.556 0.403-1.018 0.933-1.109l0.007-0.001v-0.393h0.751v0.375h0.943v0.751h-1.506c-0.207 0-0.375 0.168-0.375 0.375s0.168 0.375 0.375 0.375v0h0.375c0.001 0 0.001 0 0.002 0 0.622 0 1.125 0.504 1.125 1.125 0 0.556-0.403 1.018-0.933 1.109l-0.007 0.001v0.393h-0.751zM11.638 8.15h-0.943v-0.751h1.502c0.207 0 0.375-0.168 0.375-0.375s-0.168-0.375-0.375-0.375v0h-0.375c-0.001 0-0.001 0-0.002 0-0.622 0-1.125-0.504-1.125-1.125 0-0.556 0.403-1.018 0.933-1.109l0.007-0.001v-0.393h0.751v0.375h0.943v0.751h-1.502c-0.207 0-0.375 0.168-0.375 0.375s0.168 0.375 0.375 0.375v0h0.375c0.001 0 0.001 0 0.002 0 0.622 0 1.125 0.504 1.125 1.125 0 0.556-0.403 1.018-0.933 1.109l-0.007 0.001v0.393h-0.751v-0.375zM9.761 10.402h-0.375v-0.751h5.253v0.751h-4.877zM14.266 11.529h0.372v0.751h-3.754v-0.751zM9.761 12.27l-0.375-0.009 0.019-0.732 0.732 0.019v0.732zM14.266 13.406h0.372v0.75h-3.754v-0.751zM9.761 14.147l-0.375-0.009 0.019-0.732 0.732 0.019v0.731zM17.647 11.153h4.505v0.751h-4.507zM18.398 13.030h3.754v0.751h-3.754zM17.647 13.781l-0.751-0.019 0.019-0.732 0.732 0.019zM21.026 14.532v0.751h-2.629v-0.75zM17.647 15.283l-0.751-0.019 0.019-0.732 0.732 0.019zM18.398 16.034h3.754v0.751h-3.754zM17.647 16.785l-0.751-0.019 0.019-0.732 0.732 0.019zM1.877 11.156h4.505v0.751h-4.505v-0.751zM3.379 13.784h3v0.751h-3zM2.628 14.535l-0.751-0.019 0.019-0.732 0.732 0.019zM3.379 15.285h3v0.751h-3zM10.513 18.285h3c0.622 0 1.126-0.504 1.126-1.126s-0.504-1.126-1.126-1.126v0h-3c-0.622 0-1.126 0.504-1.126 1.126s0.504 1.126 1.126 1.126v0zM10.513 16.784h3c0.207 0 0.375 0.168 0.375 0.375s-0.168 0.375-0.375 0.375h-3c-0.207 0-0.375-0.168-0.375-0.375s0.168-0.375 0.375-0.375v0zM3.379 17.535h3v0.751h-3c-0.207 0-0.375 0.168-0.375 0.375s0.168 0.375 0.375 0.375h3v0.751h-3c-0.622 0-1.126-0.504-1.126-1.126s0.504-1.126 1.126-1.126v0zM21.776 18.661c-0 0.622-0.504 1.126-1.126 1.126h-3v-0.746h3c0.207 0 0.375-0.168 0.375-0.375s-0.168-0.375-0.375-0.375h-3v-0.751h3c0.62 0.001 1.123 0.503 1.126 1.123v0z"></path>
</svg>
