<!-- Generated by IcoMoon.io -->
<svg version="1.1" xmlns="http://www.w3.org/2000/svg" width="24" height="24" viewBox="0 0 24 24">
<title>sun</title>
<path d="M11.996 15.333q1.387 0 2.362-0.971t0.975-2.358-0.971-2.362-2.358-0.975-2.362 0.971-0.975 2.358 0.971 2.362 2.358 0.975zM12 17q-2.075 0-3.537-1.462t-1.462-3.537 1.462-3.537 3.537-1.462 3.537 1.462 1.462 3.537-1.462 3.537-3.537 1.462zM1.833 12.833q-0.354 0-0.594-0.24t-0.24-0.596 0.24-0.593 0.594-0.237h2.333q0.354 0 0.594 0.24t0.24 0.596-0.24 0.593-0.594 0.237h-2.333zM19.833 12.833q-0.354 0-0.594-0.24t-0.24-0.596 0.24-0.593 0.594-0.237h2.333q0.354 0 0.594 0.24t0.24 0.596-0.24 0.593-0.594 0.237h-2.333zM11.997 5q-0.355 0-0.593-0.24t-0.237-0.594v-2.333q0-0.354 0.24-0.594t0.596-0.24 0.593 0.24 0.237 0.594v2.333q0 0.354-0.24 0.594t-0.596 0.24zM11.997 23q-0.355 0-0.593-0.24t-0.237-0.594v-2.333q0-0.354 0.24-0.594t0.596-0.24 0.593 0.24 0.237 0.594v2.333q0 0.354-0.24 0.594t-0.596 0.24zM5.883 7.050l-1.308-1.283q-0.25-0.242-0.24-0.593t0.238-0.6q0.248-0.248 0.6-0.248t0.593 0.25l1.283 1.308q0.225 0.25 0.225 0.583t-0.225 0.575-0.571 0.237-0.596-0.229zM18.233 19.425l-1.283-1.308q-0.225-0.25-0.225-0.594t0.233-0.573q0.233-0.25 0.571-0.246t0.587 0.246l1.308 1.283q0.25 0.242 0.24 0.593t-0.238 0.6q-0.248 0.248-0.6 0.248t-0.593-0.25zM16.95 7.050q-0.25-0.242-0.246-0.579t0.246-0.587l1.283-1.308q0.242-0.25 0.593-0.24t0.6 0.238q0.248 0.248 0.248 0.6t-0.25 0.593l-1.308 1.283q-0.233 0.225-0.573 0.225t-0.594-0.225zM4.573 19.427q-0.248-0.248-0.248-0.6t0.25-0.593l1.308-1.283q0.247-0.242 0.586-0.242t0.574 0.242q0.257 0.242 0.252 0.579t-0.246 0.587l-1.283 1.308q-0.242 0.25-0.593 0.24t-0.6-0.238z"></path>
</svg>
