<!-- Generated by IcoMoon.io -->
<svg version="1.1" xmlns="http://www.w3.org/2000/svg" width="24" height="24" viewBox="0 0 24 24">
<title>theme</title>
<path d="M19.5 0h-15c-0.414 0-0.75 0.336-0.75 0.75v10.5c0 1.241 1.009 2.25 2.25 2.25h3.75v8.25c0 1.241 1.009 2.25 2.25 2.25s2.25-1.009 2.25-2.25v-8.25h3.75c1.241 0 2.25-1.009 2.25-2.25v-10.5c0-0.414-0.336-0.75-0.75-0.75zM8.25 1.5v3c0 0.414 0.336 0.75 0.75 0.75s0.75-0.336 0.75-0.75v-3h9v6h-13.5v-6h3zM18 12h-4.5c-0.414 0-0.75 0.336-0.75 0.75v9c0 0.414-0.336 0.75-0.75 0.75s-0.75-0.336-0.75-0.75v-9c0-0.414-0.336-0.75-0.75-0.75h-4.5c-0.414 0-0.75-0.336-0.75-0.75v-2.25h13.5v2.25c0 0.414-0.336 0.75-0.75 0.75z"></path>
</svg>
