<!-- Generated by IcoMoon.io -->
<svg version="1.1" xmlns="http://www.w3.org/2000/svg" width="24" height="24" viewBox="0 0 24 24">
<title>time</title>
<path d="M12 0c6.627 0 12 5.373 12 12s-5.373 12-12 12c-6.627 0-12-5.373-12-12v0c0.007-6.624 5.376-11.992 11.999-12h0.001zM12 1.8c-5.633 0-10.2 4.567-10.2 10.2s4.567 10.2 10.2 10.2c5.633 0 10.2-4.567 10.2-10.2v0c-0.007-5.631-4.569-10.193-10.199-10.2h-0.001zM11.593 6.12c0.497 0 0.9 0.403 0.9 0.9v0 5.306l4.086 2.436c0.258 0.161 0.428 0.444 0.428 0.767 0 0.498-0.403 0.901-0.901 0.901-0.165 0-0.32-0.045-0.454-0.122l0.004 0.002-4.524-2.699c-0.264-0.161-0.438-0.447-0.439-0.774v-5.824c0.003-0.494 0.405-0.894 0.9-0.894 0 0 0 0 0 0v0z"></path>
</svg>
