<!-- Generated by IcoMoon.io -->
<svg version="1.1" xmlns="http://www.w3.org/2000/svg" width="24" height="24" viewBox="0 0 24 24">
<title>translate</title>
<path d="M13.104 15.389l-2.804-2.771 0.033-0.033c1.81-2.005 3.214-4.414 4.059-7.073l0.038-0.137h3.235v-2.208h-7.728v-2.208h-2.208v2.208h-7.728v2.196h12.331c-0.809 2.29-2 4.259-3.513 5.932l0.013-0.015c-0.972-1.074-1.821-2.289-2.505-3.602l-0.045-0.096h-2.208c0.881 1.931 1.984 3.591 3.305 5.050l-0.015-0.016-5.619 5.542 1.568 1.568 5.52-5.519 3.433 3.433 0.839-2.252zM19.319 9.792h-2.208l-4.968 13.248h2.208l1.236-3.312h5.244l1.248 3.312h2.208zM16.427 17.52l1.788-4.78 1.788 4.78z"></path>
</svg>
